<svg xmlns="http://www.w3.org/2000/svg" viewBox="0 0 229.06 244.64" xmlns:v="https://vecta.io/nano"><path d="M219,153.91c22.2,73.57-15.83,109.16-84.93,79.49S5.22,141.61.58,94.64,34,12.08,85.51,15.15,196.83,80.34,219,153.91Z" fill="#f7f7f7"/><g fill="#2d2a32"><path d="M36.06 206.82l86.72-86.71-86.72-86.72 18.11-18.11-5.69-5.68-23.79 23.79 77 76.99 9.72 9.73-86.72 86.71 23.94 23.94 5.69-5.68-18.26-18.26zM71.22 9.6l-5.68 5.68 104.97 104.98L65.69 225.08l5.68 5.68 110.51-110.5L71.22 9.6z"/><path d="M111.63,238.85,85.49,213.6l92-95.27-95.28-92L107.64,0,229.06,117.27Z"/></g></svg>