<svg id="Layer_1" data-name="Layer 1" xmlns="http://www.w3.org/2000/svg" viewBox="0 0 163.97 113.61"><defs><style>.cls-1{fill:#c5c5df;}.cls-2{fill:#aeadd2;}.cls-3{fill:#c9c8e8;}.cls-4{fill:#aba9d1;}.cls-5{fill:#cdcde3;}.cls-6{fill:#9695bf;}.cls-7{fill:#7676b0;}.cls-8{fill:#7373b0;}.cls-9{fill:#8888b4;}.cls-10{fill:#aeaece;}.cls-11{fill:#8f8fbb;}.cls-12{fill:#bdbdd9;}.cls-13{fill:#7e7eb5;}.cls-14{fill:#7877b1;}.cls-15{fill:#7374b0;}.cls-16{fill:#a5a5c5;}.cls-17{fill:#9090bb;}.cls-18{fill:#b2b4d3;}.cls-19{fill:#aeafd1;}.cls-20{fill:#7375ad;}.cls-21{fill:#7375ab;}.cls-22{fill:#7a7dae;}.cls-23{fill:#7d7eb0;}.cls-24{fill:#a6a9c5;}.cls-25{fill:#c8cae1;}.cls-26{fill:#8a8db4;}.cls-27{fill:#d0d3f3;}.cls-28{fill:#9496b8;}.cls-29{fill:#6e71ac;}.cls-30{fill:#7174ac;}.cls-31{fill:#9597bf;}.cls-32{fill:#d8dcf0;}.cls-33{fill:#8583af;}.cls-34{fill:#9698ba;}.cls-35{fill:#c2c5e1;}.cls-36{fill:#c6c6e4;}.cls-37{fill:#757aab;}.cls-38{fill:#8383a6;}.cls-39{fill:#bcbdd7;}.cls-40{fill:#a8a9c7;}.cls-41{fill:#8286b1;}.cls-42{fill:#e0e5f6;}.cls-43{fill:#6573a1;}.cls-44{fill:#ced0e0;}.cls-45{fill:#8389af;}.cls-46{fill:#9a9ebd;}.cls-47{fill:#c3cbe6;}.cls-48{fill:#9ea5c5;}.cls-49{fill:#9aa0c1;}.cls-50{fill:#8f9eb4;}.cls-51{fill:#6f76a4;}.cls-52{fill:#6b74a3;}.cls-53{fill:#6971a3;}.cls-54{fill:#6776a0;}.cls-55{fill:#909ab8;}.cls-56{fill:#d2dbf3;}.cls-57{fill:#8793af;}.cls-58{fill:#c2cee8;}.cls-59{fill:#7a88a2;}.cls-60{fill:#6b799e;}.cls-61{fill:#61719a;}.cls-62{fill:#c3d0e3;}.cls-63{fill:#ccd6ec;}.cls-64{fill:#8c97b0;}.cls-65{fill:#5d748d;}.cls-66{fill:#d4e0f3;}.cls-67{fill:#8a96a8;}.cls-68{fill:#9da9bf;}.cls-69{fill:#b0c0d5;}.cls-70{fill:#dce7f1;}.cls-71{fill:#74839d;}.cls-72{fill:#c0cbde;}.cls-73{fill:#8a98ae;}.cls-74{fill:#c6d2df;}.cls-75{fill:#6c7f98;}.cls-76{fill:#909eb2;}.cls-77{fill:#5c7290;}.cls-78{fill:#d6dfea;}.cls-79{fill:#fff;}.cls-80{fill:#c3ccd7;}.cls-81{fill:#b3bdca;}.cls-82{fill:#aab5c1;}.cls-83{fill:#909ba6;}.cls-84{fill:#c7d1dd;}.cls-85{fill:#6f7f91;}.cls-86{fill:#c0cfdb;}.cls-87{fill:#768698;}.cls-88{fill:#afbdcb;}.cls-89{fill:#82909e;}.cls-90{fill:#5d738a;}.cls-91{fill:#5d7389;}.cls-92{fill:#8f9fae;}.cls-93{fill:#c6cdd3;}.cls-94{fill:#9caab7;}.cls-95{fill:#e2ebf2;}.cls-96{fill:#cbd6df;}.cls-97{fill:#8897a3;}.cls-98{fill:#ced7de;}.cls-99{fill:#9aa5b0;}.cls-100{fill:#b6c3ce;}.cls-101{fill:#758696;}.cls-102{fill:#c9d6e3;}.cls-103{fill:#a2afbd;}.cls-104{fill:#5e7387;}.cls-105{fill:#8e9ca9;}.cls-106{fill:#c4d3e0;}.cls-107{fill:#758593;}.cls-108{fill:#5c7286;}.cls-109{fill:#5b7286;}.cls-110{fill:#b2bbc3;}.cls-111{fill:#95a3af;}.cls-112{fill:#7c8d9b;}.cls-113{fill:#beccd9;}.cls-114{fill:#788693;}.cls-115{fill:#97a6b3;}.cls-116{fill:#c3d0dc;}.cls-117{fill:#8b9aa9;}.cls-118{fill:#c4cdd5;}.cls-119{fill:#5c7387;}.cls-120{fill:#8393a2;}.cls-121{fill:#5c7287;}.cls-122{fill:#8696a3;}.cls-123{fill:#5d7488;}.cls-124{fill:#94a1ad;}.cls-125{fill:#d0d9df;}.cls-126{fill:#c7d2dc;}.cls-127{fill:#dee7ee;}.cls-128{fill:#c5d2de;}.cls-129{fill:#768996;}.cls-130{fill:#bcc4cb;}.cls-131{fill:#ced3d9;}.cls-132{fill:#8c9aa4;}.cls-133{fill:#b5bdc4;}.cls-134{fill:#b1bec6;}.cls-135{fill:#a4b0ba;}.cls-136{fill:#6c7f8e;}.cls-137{fill:#8997a2;}.cls-138{fill:#697d8d;}.cls-139{fill:#bccbd7;}.cls-140{fill:#92a3af;}.cls-141{fill:#697d8e;}.cls-142{fill:#919ea8;}.cls-143{fill:#677d8e;}.cls-144{fill:#768a98;}.cls-145{fill:#98a6af;}.cls-146{fill:#758997;}.cls-147{fill:#a3b1bb;}.cls-148{fill:#97a5ad;}.cls-149{fill:#b0bcc3;}.cls-150{fill:#c7d0d6;}.cls-151{fill:#a7b3ba;}.cls-152{fill:#9faab2;}.cls-153{fill:#a3afb8;}.cls-154{fill:#abb7c0;}.cls-155{fill:#798a97;}.cls-156{fill:#798b97;}.cls-157{fill:#7a8c99;}.cls-158{fill:#788c99;}.cls-159{fill:#c7d3db;}.cls-160{fill:#798c99;}.cls-161{fill:#919fa9;}.cls-162{fill:#b3bcc1;}.cls-163{fill:#ccd2d7;}.cls-164{fill:#c9d2d6;}.cls-165{fill:#c4ccd1;}.cls-166{fill:#adb7be;}.cls-167{fill:#c8d0d6;}.cls-168{fill:#adb6bc;}.cls-169{fill:#8f9da8;}.cls-170{fill:#adb6bd;}.cls-171{fill:#929fa9;}.cls-172{fill:#91a0a9;}.cls-173{fill:#8f9ea8;}.cls-174{fill:#8e9da7;}.cls-175{fill:#919fa8;}.cls-176{fill:#cbd5da;}.cls-177{fill:#96a4ad;}.cls-178{fill:#b7c0c4;}.cls-179{fill:#c9d2d9;}.cls-180{fill:#c7cfd5;}.cls-181{fill:#cad0d4;}.cls-182{fill:#c2c9cd;}.cls-183{fill:#c6ccd2;}.cls-184{fill:#cfd4d9;}.cls-185{fill:#bec5ca;}.cls-186{fill:#b3bcc2;}.cls-187{fill:#a7b2b9;}.cls-188{fill:#a6b2b9;}.cls-189{fill:#a7b3b9;}.cls-190{fill:#a8b3ba;}.cls-191{fill:#a9b5bb;}.cls-192{fill:#b1b9bb;}.cls-193{fill:#cdd2d5;}.cls-194{fill:#dbdfe3;}.cls-195{fill:#ced3d7;}.cls-196{fill:#d5d8dc;}.cls-197{fill:#d5d9dc;}.cls-198{fill:#d0d3d8;}.cls-199{fill:#e6e8ec;}.cls-200{fill:#c9cfd3;}.cls-201{fill:#d2d6da;}.cls-202{fill:#e2e4e7;}.cls-203{fill:#cbd0d4;}.cls-204{fill:#e4e7ea;}.cls-205{fill:#cbcfd3;}.cls-206{fill:#c7ccd0;}.cls-207{fill:#c4cacf;}.cls-208{fill:#e9e9ec;}.cls-209{fill:#e8e8ec;}.cls-210{fill:#e8e9eb;}.cls-211{fill:#e9e9ed;}.cls-212{fill:#e8e8eb;}.cls-213{fill:#eaeaed;}.cls-214{fill:#ececf0;}.cls-215{fill:#e7e8eb;}.cls-216{fill:#e6e6ea;}.cls-217{fill:#e7e8ec;}.cls-218{fill:#e7e7eb;}.cls-219{fill:#dfe0e5;}.cls-220{fill:#dfe1e6;}.cls-221{fill:#e0e1e7;}.cls-222{fill:#d3d7df;}.cls-223{fill:#ccd1d9;}.cls-224{fill:#dbdee5;}.cls-225{fill:#dddfe4;}.cls-226{fill:#d9e1e9;}.cls-227{fill:#c4cbd4;}.cls-228{fill:#bcc3cc;}.cls-229{fill:#c7ccd5;}.cls-230{fill:#b9c0c9;}.cls-231{fill:#b9c1cb;}.cls-232{fill:#c1c8d0;}.cls-233{fill:#c0c8d1;}.cls-234{fill:#b8c1cc;}.cls-235{fill:#b2bbc6;}.cls-236{fill:#b2bac5;}.cls-237{fill:#b0bac5;}.cls-238{fill:#afb8c3;}.cls-239{fill:#bdc2ca;}.cls-240{fill:#a5b2c0;}.cls-241{fill:#98a7b7;}.cls-242{fill:#ced5dd;}.cls-243{fill:#c8d0d8;}.cls-244{fill:#dce5ee;}.cls-245{fill:#c0c8d2;}.cls-246{fill:#afb8c2;}.cls-247{fill:#cbd2d8;}.cls-248{fill:#b4bdc7;}.cls-249{fill:#97a4b2;}.cls-250{fill:#93a2b1;}.cls-251{fill:#b7c0c7;}.cls-252{fill:#a2adb9;}.cls-253{fill:#95a3b2;}.cls-254{fill:#a6b2c0;}.cls-255{fill:#94a1b0;}.cls-256{fill:#929fb0;}.cls-257{fill:#bdc4cc;}.cls-258{fill:#929fae;}.cls-259{fill:#93a0b0;}.cls-260{fill:#919eac;}.cls-261{fill:#909faf;}.cls-262{fill:#8c9cad;}.cls-263{fill:#b6c0cb;}.cls-264{fill:#92a1ae;}.cls-265{fill:#bdc6cf;}.cls-266{fill:#ccd3db;}.cls-267{fill:#d7e2ed;}.cls-268{fill:#cad2d9;}.cls-269{fill:#c5cbd4;}.cls-270{fill:#b6c1ca;}.cls-271{fill:#a6b2be;}.cls-272{fill:#97a4b1;}.cls-273{fill:#9faab6;}.cls-274{fill:#b5bfca;}.cls-275{fill:#8b99a7;}.cls-276{fill:#9ba7b2;}.cls-277{fill:#aab3bc;}.cls-278{fill:#cdd7e0;}.cls-279{fill:#7f90a2;}.cls-280{fill:#abb6c0;}.cls-281{fill:#7b8e9f;}.cls-282{fill:#74889a;}.cls-283{fill:#8d9ca9;}.cls-284{fill:#a4afbb;}.cls-285{fill:#76899b;}.cls-286{fill:#77899a;}.cls-287{fill:#7d8d9c;}.cls-288{fill:#7d8d9d;}.cls-289{fill:#8192a0;}.cls-290{fill:#74879b;}.cls-291{fill:#72879a;}.cls-292{fill:#c1c9d0;}.cls-293{fill:#a7b4bf;}.cls-294{fill:#c6d0da;}.cls-295{fill:#d1dae0;}.cls-296{fill:#7b8995;}.cls-297{fill:#8495a3;}.cls-298{fill:#5c7389;}.cls-299{fill:#647b90;}.cls-300{fill:#b3becb;}.cls-301{fill:#c7d0d8;}</style></defs><title>torq2</title><path class="cls-1" d="M81.26,0.19l0.47-.07V0.61a25.78,25.78,0,0,0,.07,3.74,25.79,25.79,0,0,0,3.74.07H86L86,4.89a19.56,19.56,0,0,1-4.7,0A19.56,19.56,0,0,1,81.26.19Z"/><path class="cls-2" d="M81.73,0.13A20,20,0,0,1,86,.17a20.06,20.06,0,0,1,0,4.25H85.53a29.82,29.82,0,0,0-.1-3.71,29.82,29.82,0,0,0-3.71-.1V0.13Z"/><path class="cls-3" d="M88.89,0.2V0.53c0,1.13-.05,2.25,0,3.38V4.4l-0.47-.07C88.34,3.49,87.81.33,88.89,0.2Z"/><path class="cls-4" d="M88.89,0.2a9.06,9.06,0,0,1,3.68,0V0.51l-0.39.2c-1.1,0-2.19-.09-3.29-0.19V0.2Z"/><path class="cls-5" d="M92.58,0.18c0.9-.58.92,4.94,0.07,4.21,0-1.29,0-2.58-.07-3.88V0.18Z"/><path class="cls-6" d="M73,0.72a20.19,20.19,0,0,1,4.71,0L77.8,1.18a31,31,0,0,0-4.22.09,25.71,25.71,0,0,0-.1,3.12C72.49,4.56,73,1.38,73,.72Z"/><path class="cls-7" d="M81.72,0.61a29.82,29.82,0,0,1,3.71.1,29.82,29.82,0,0,1,.1,3.71,25.79,25.79,0,0,1-3.74-.07A25.78,25.78,0,0,1,81.72.61Z"/><path class="cls-8" d="M88.89,0.53c1.1,0.1,2.19.14,3.29,0.19,0,1-.07,2.07-0.2,3.09a27.16,27.16,0,0,1-3.14.11C88.84,2.78,88.85,1.66,88.89.53Z"/><path class="cls-9" d="M92.19,0.71l0.39-.2c0.06,1.29.08,2.58,0.07,3.88a20.45,20.45,0,0,1-3.8,0V3.91A27.16,27.16,0,0,0,92,3.8C92.12,2.78,92.14,1.74,92.19.71Z"/><path class="cls-10" d="M95.46,0.75V1.09a21.74,21.74,0,0,0,0,3.27,14.53,14.53,0,0,0,3.65,0,21.74,21.74,0,0,0,0-3.27V0.75c1.07,0.18.53,3.29,0.5,4.14a20.08,20.08,0,0,1-4.73,0C94.93,4,94.38.93,95.46,0.75Z"/><path class="cls-11" d="M95.46,0.75a7.89,7.89,0,0,1,3.72,0V1.09a15.06,15.06,0,0,1-3.72,0V0.75Z"/><path class="cls-12" d="M101.46,0.65c0,1.26,0,2.52,0,3.78v0.5L101,4.87C101,4.08,100.41.59,101.46,0.65Z"/><path class="cls-13" d="M101.46,0.65c1.3-.22,2,0.65,3.07,1.25,0.94,0.78,2.18,1,1.79,2.52-1.62,0-3.23,0-4.86,0C101.43,3.17,101.43,1.91,101.46.65Z"/><path class="cls-14" d="M73.58,1.27a31,31,0,0,1,4.22-.09,13.32,13.32,0,0,1,0,3.17,19.71,19.71,0,0,1-4.29,0A25.71,25.71,0,0,1,73.58,1.27Z"/><path class="cls-15" d="M95.46,1.09a15.06,15.06,0,0,0,3.72,0,21.74,21.74,0,0,1,0,3.27,14.53,14.53,0,0,1-3.65,0A21.74,21.74,0,0,1,95.46,1.09Z"/><path class="cls-16" d="M101.46,4.43c1.62,0,3.24,0,4.86,0l-0.08.47a23.61,23.61,0,0,1-4.78,0V4.43Z"/><path class="cls-17" d="M67.42,5.61v0.5c-1.44,0-2.87,0-4.3,0C63,5.07,66.62,5.66,67.42,5.61Z"/><path class="cls-18" d="M67.42,5.61c1-.09.47,3.44,0.47,4.22a20.14,20.14,0,0,1-4.7,0l-0.07-.47a31.07,31.07,0,0,0,4.23-.09,23.54,23.54,0,0,0,.08-3.17V5.61Z"/><path class="cls-19" d="M73,5.65a20.13,20.13,0,0,1,4.74,0,16.7,16.7,0,0,1,0,3.7H77.32a27.63,27.63,0,0,0-.11-3.16,14.36,14.36,0,0,0-3.63,0,27.63,27.63,0,0,0-.11,3.16H73A16.7,16.7,0,0,1,73,5.65Z"/><path class="cls-20" d="M63.12,6.12c1.44,0,2.87,0,4.3,0a23.54,23.54,0,0,1-.08,3.17,31.07,31.07,0,0,1-4.23.09A16.1,16.1,0,0,1,63.12,6.12Z"/><path class="cls-21" d="M73.58,6.19a14.36,14.36,0,0,1,3.63,0,27.63,27.63,0,0,1,.11,3.16q-1.92,0-3.85,0A27.63,27.63,0,0,1,73.58,6.19Z"/><path class="cls-22" d="M88.91,6.19a13.91,13.91,0,0,1,2.66-.1c1.87-.3,1.7,2.37,1,3.33a25.71,25.71,0,0,0-3.62,0A10.73,10.73,0,0,1,88.91,6.19Z"/><path class="cls-23" d="M94.94,6.19a20.32,20.32,0,0,1,4.28,0,28.16,28.16,0,0,1-.1,4.19c-0.49.07-1,.12-1.47,0.16A15.07,15.07,0,0,0,95.07,9.1,5.67,5.67,0,0,1,94.94,6.19Z"/><path class="cls-24" d="M99.22,6.16l0.47,0.07a20.13,20.13,0,0,1,0,4.74,2.23,2.23,0,0,1-2-.45c0.49,0,1-.09,1.47-0.16A28.16,28.16,0,0,0,99.22,6.16Z"/><path class="cls-25" d="M101,6.23l0.47-.06c0,1.6,0,3.2,0,4.79L101,10.9A19.57,19.57,0,0,1,101,6.23Z"/><path class="cls-26" d="M101.45,6.17a36.06,36.06,0,0,1,4.93,0c0,1.62,0,3.23,0,4.85a45.88,45.88,0,0,1-4.91,0C101.42,9.36,101.42,7.76,101.45,6.17Z"/><path class="cls-27" d="M106.38,6.15l1.13,0V6.57c0,1.3,0,2.6,0,3.91l0,0.53h-1.1C106.36,9.38,106.36,7.77,106.38,6.15Z"/><path class="cls-28" d="M107.51,6.2c1.13-.16,2.81-0.54,3.73.34a10.61,10.61,0,0,1-3.72,0V6.2Z"/><path class="cls-29" d="M102.07,6.74a14.53,14.53,0,0,1,3.65,0,14.53,14.53,0,0,1,0,3.65,14.53,14.53,0,0,1-3.65,0A14.53,14.53,0,0,1,102.07,6.74Z"/><path class="cls-30" d="M107.51,6.57a10.61,10.61,0,0,0,3.72,0L112,7.08c-0.06,1.1-.09,2.2-0.23,3.29a33.21,33.21,0,0,1-4.24.1C107.46,9.17,107.47,7.87,107.51,6.57Z"/><path class="cls-31" d="M112,7.08l0.49,0.09c0,1.27,0,2.55,0,3.82q-2.47.07-4.93,0l0-.53a33.21,33.21,0,0,0,4.24-.1C111.86,9.29,111.89,8.18,112,7.08Z"/><path class="cls-32" d="M112.44,7.18a3.4,3.4,0,0,1,1.52.39,6.84,6.84,0,0,0-.49,2.93l0,0.49h-1C112.39,9.72,112.4,8.45,112.44,7.18Z"/><path class="cls-33" d="M114,7.57c1,0.79,2,1.64,3,2.43a7.88,7.88,0,0,1-3.51.49A6.84,6.84,0,0,1,114,7.57Z"/><path class="cls-34" d="M57,9.47a9.88,9.88,0,0,1-.05,2.7L56.56,12c0-.65-0.13-1.3-0.21-2a22.63,22.63,0,0,0-3.11-.12C53.1,8.93,56.27,9.49,57,9.47Z"/><path class="cls-35" d="M73,9.35h0.49q1.92,0,3.85,0H77.8l-0.07.47a19.2,19.2,0,0,1-4.69,0Z"/><path class="cls-36" d="M89,9.38a25.71,25.71,0,0,1,3.62,0C92.49,10.26,88.79,10.33,89,9.38Z"/><path class="cls-37" d="M53.24,9.93a22.63,22.63,0,0,1,3.11.12c0.09,0.65.16,1.3,0.21,2-1.07.07-2.15,0.1-3.22,0.15A8.82,8.82,0,0,1,53.24,9.93Z"/><path class="cls-38" d="M85,10a12.22,12.22,0,0,1,1.68.13c-0.24,1.21-.36,1.32-1.56,1.56A11.44,11.44,0,0,1,85,10Z"/><path class="cls-39" d="M86.72,10.1c1.68,1-.6,3.24-1.56,1.56C86.36,11.42,86.47,11.31,86.72,10.1Z"/><path class="cls-40" d="M117,10c0.58,0.53.89,0.38,0.35,1.19-1.29-.14-2.59-0.19-3.9-0.21l0-.49A7.88,7.88,0,0,0,117,10Z"/><path class="cls-41" d="M143.08,9.91c2-.24,3.49,1,5.49,1.12,1.44,0,1.57,1.18,2.24,2.19-0.9-.36-1.46-1.14-2.3-1.57-3.07-.18-6.17,0-9.25-0.07C140,10.3,141.7,10,143.08,9.91Z"/><path class="cls-42" d="M113.43,11c1.3,0,2.6.07,3.9,0.21a17.87,17.87,0,0,1,2.12.73c-0.79,1.66-.4,3.86-0.5,5.68l-0.53,0c-1.85,0-3.69,0-5.53-.07l1.19-.94c1.41-.1,2.84-0.08,4.24-0.24a16.56,16.56,0,0,0,0-4.17,36.72,36.72,0,0,0-5.27-.06C113.17,11.77,113.29,11.38,113.43,11Z"/><path class="cls-43" d="M139.26,11.57c3.08,0.05,6.18-.11,9.25.07,0.84,0.43,1.4,1.21,2.3,1.57a9.87,9.87,0,0,1,3,4,23.71,23.71,0,0,0,.94,4.32l-0.13,1a109.72,109.72,0,0,1-11.54.52c-3.4-.08-7.3.32-10.55-0.73a1.33,1.33,0,0,0-1,.26c0.11-1.23-.43-2.89.76-3.7,1.56-1.29,1.81-3.16,3-4.69A28.07,28.07,0,0,0,139.26,11.57Z"/><path class="cls-44" d="M53.33,12.15c1.07,0,2.15-.08,3.22-0.15l0.34,0.17C57.26,13,53,13,53.33,12.15Z"/><path class="cls-45" d="M78.56,12.25a6.81,6.81,0,0,1,2.49,0,14.66,14.66,0,0,1,0,3.67,12,12,0,0,1-3.11,0C77.9,14.82,77.46,12.88,78.56,12.25Z"/><path class="cls-46" d="M101.55,12.23a19.33,19.33,0,0,1,4.71,0,16.9,16.9,0,0,1,0,4.21,2.55,2.55,0,0,1-2.12-.35c2.49,0.1,1.55-1.61,1.59-3.32a32.73,32.73,0,0,0-4.28-.08Z"/><path class="cls-47" d="M107.48,12.19v0.49c0,1.09,0,2.18,0,3.27v0.49L107,16.38C107,15.61,106.44,12.08,107.48,12.19Z"/><path class="cls-48" d="M107.48,12.19a24.29,24.29,0,0,1,4.81,0,16.39,16.39,0,0,1,0,4.18,24.23,24.23,0,0,1-4.8,0V16a33.53,33.53,0,0,0,4.26-.09,11.83,11.83,0,0,0,0-3.08,33.53,33.53,0,0,0-4.26-.09V12.19Z"/><path class="cls-49" d="M113.05,12.17a36.72,36.72,0,0,1,5.27.06,16.56,16.56,0,0,1,0,4.17c-1.4.16-2.83,0.14-4.24,0.24C112.23,16.78,113,13.29,113.05,12.17Z"/><path class="cls-50" d="M119.44,11.93c0.24,0.33.45,0.68,0.66,1-1.23,2.57-.35,6.28-0.55,9.12-0.09,10,0,20,0,30.06q0,1.37,0,2.75H119c0-2.38,0-4.76,0-7.14,0-1.85,0-3.7,0-5.55V41.7c0.05-1.63.05-3.27,0-4.9v-1.1c0.05-3.83,0-7.67,0-11.51V23.08c0-1.82,0-3.65,0-5.46S118.65,13.59,119.44,11.93Z"/><path class="cls-51" d="M101.45,12.69a32.73,32.73,0,0,1,4.28.08c0,1.71.9,3.42-1.59,3.32C103,15.18,101.44,14.39,101.45,12.69Z"/><path class="cls-52" d="M107.49,12.68a33.53,33.53,0,0,1,4.26.09,11.83,11.83,0,0,1,0,3.08,33.53,33.53,0,0,1-4.26.09C107.47,14.86,107.47,13.77,107.49,12.68Z"/><path class="cls-53" d="M113.57,12.77a17.45,17.45,0,0,1,4.21,0,11.68,11.68,0,0,1,0,3.09,17.45,17.45,0,0,1-4.21,0A11.68,11.68,0,0,1,113.57,12.77Z"/><path class="cls-54" d="M120.11,13c0.86,1,1.33,2.08,2.77,2.33a9.71,9.71,0,0,1,6.26,4.18c0.84,1.49.22,3.21,2.44,3.15-1,1.74-1.93-.55-3.3.82-0.3-.6-0.52-1.22-0.78-1.84-1.13.36-1.37,1.26-2,2.14-0.66-.64-1.15-1.41-1.75-2.1-1.39-.14.25,2.54-1.25,1.83a10.45,10.45,0,0,0-.81-2.43c-0.72.33-1.4,0.71-2.12,1C119.76,19.23,118.87,15.53,120.11,13Z"/><path class="cls-55" d="M107.58,17.71a35.16,35.16,0,0,1,4.81-.07c0,1.8,0,3.6,0,5.4a3,3,0,0,1-1-.32,7.6,7.6,0,0,0,.39-4.46,31.64,31.64,0,0,0-4.26-.09Z"/><path class="cls-56" d="M112.38,17.64l0.5-.07c0.07,1.86.07,3.72,0,5.58L112.4,23C112.38,21.24,112.39,19.44,112.38,17.64Z"/><path class="cls-57" d="M112.88,17.57c1.84,0,3.68,0,5.53.07,0,1.81,0,3.62,0,5.43-1.83,0-3.66,0-5.49.09C112.95,21.28,112.95,19.43,112.88,17.57Z"/><path class="cls-58" d="M118.41,17.63l0.53,0c0,1.82,0,3.65,0,5.46l-0.53,0C118.42,21.25,118.43,19.44,118.41,17.63Z"/><path class="cls-59" d="M157.39,20.4c0.08,1.63.45,3.22,0.54,4.86-1,.95-0.91,1.47-2.35.61,1.89,0,.92-1.16.79-2.31a18.66,18.66,0,0,1-.78-5.5C156.09,16.86,157.77,19.59,157.39,20.4Z"/><path class="cls-60" d="M107.48,18.17a31.64,31.64,0,0,1,4.26.09,7.6,7.6,0,0,1-.39,4.46C110.13,21.51,107.68,19.94,107.48,18.17Z"/><path class="cls-61" d="M113.59,18.25a16.73,16.73,0,0,1,4.19,0,16.73,16.73,0,0,1,0,4.19,16.73,16.73,0,0,1-4.19,0A16.73,16.73,0,0,1,113.59,18.25Z"/><path class="cls-62" d="M155.58,18.06a18.66,18.66,0,0,0,.78,5.5c0.13,1.16,1.1,2.36-.79,2.31A12.6,12.6,0,0,0,154.8,23l-0.18-.48,0.13-1A24.3,24.3,0,0,1,155.58,18.06Z"/><path class="cls-63" d="M158.4,18.68a13.76,13.76,0,0,0,.39,4c-0.12,1,1,4.05-.86,2.62-0.08-1.63-.46-3.22-0.54-4.86C157.72,19.82,158,19.23,158.4,18.68Z"/><path class="cls-64" d="M158.4,18.68c0.82-.09,1.13.25,0.94,1a29.7,29.7,0,0,0-.55,2.93A13.76,13.76,0,0,1,158.4,18.68Z"/><path class="cls-65" d="M159.34,19.71a10.3,10.3,0,0,0,.61,2.4l0.19,0.47c0,0.75-.66,3.63.5,3.66l0.47,0,0.48,0c0.24-1.5-.15-3.28.75-4.52,0,1.84-.41,4.1.35,5.82,0.25,0.66.54,1.32,0.8,2-0.09,1.53-.12,3.05-0.13,4.59-1,.94-0.61,2.49-0.43,3.71-0.08,1.26-.14,2.5-0.27,3.75-0.71,2.27-.36,4.94-0.27,7.3-0.14.88-.23,1.78-0.32,2.66-0.16.56-.31,1.11-0.44,1.67-0.26-.33-0.54-0.67-0.81-1-0.13.48-.26,1-0.38,1.45-0.35-.42-0.31-1.75-1-1.09-1.39,1-1.87.22-3.17-.32-2.27.78-4.4,1.45-6.78,0.64-2.17-.17-4.7-0.92-6.76-0.09-1.82-1.23-2.35.09-4.14,0.1a19.59,19.59,0,0,0-3.67-3.55c-0.58.32-1.1,0.7-1.65,1.07-1.94.26-2.37,1.89-4,2.57-1.27-.39-2.35-0.3-3.63-0.81-2,1.26-4.2,1.61-6.08-.1,0-10-.07-20,0-30.06,0.71-.34,1.4-0.72,2.12-1a10.45,10.45,0,0,1,.81,2.43c1.5,0.72-.14-2,1.25-1.83,0.61,0.69,1.09,1.46,1.75,2.1,0.64-.88.88-1.78,2-2.14,0.26,0.62.48,1.24,0.78,1.84,1.37-1.37,2.26.92,3.3-.82a1.33,1.33,0,0,1,1-.26c3.24,1.06,7.15.66,10.55,0.73a109.72,109.72,0,0,0,11.54-.52L154.8,23c-0.39,1.24-1.41,1-2.4,1.57-0.24.59-.86,1.5-0.31,2.07,0.88,1.11,1.54,2.5,2.52,3.5,0.91,0.29.31-2.16,0.39-2.66s0.36-1.12.58-1.66c1.44,0.86,1.3.33,2.35-.61,1.9,1.43.74-1.67,0.86-2.62A29.7,29.7,0,0,1,159.34,19.71Z"/><path class="cls-66" d="M161.19,20.91c0,1.79,0,3.57-.07,5.36l-0.47,0c0-1.3.35-2.55-.5-3.66L160,22.11A1,1,0,0,1,161.19,20.91Z"/><path class="cls-67" d="M161.19,20.91a1,1,0,0,1,1.16.86c-0.89,1.24-.51,3-0.75,4.52l-0.48,0C161.19,24.48,161.18,22.69,161.19,20.91Z"/><path class="cls-68" d="M162.34,21.76c0.84,1.67.39,4,.35,5.82C161.93,25.86,162.35,23.6,162.34,21.76Z"/><path class="cls-69" d="M160.14,22.57c0.85,1.11.55,2.36,0.5,3.66C159.49,26.21,160.14,23.32,160.14,22.57Z"/><path class="cls-70" d="M112.92,23.15c1.83-.07,3.66-0.07,5.49-0.09l0.53,0v1.11l-0.53,0c-1.66,0-3.3,0-4.95-.07l-0.56-.1Z"/><path class="cls-71" d="M154.8,23a12.6,12.6,0,0,1,.77,2.82q-0.32.81-.58,1.66c-0.62-1.77-.29-2.82-2.6-2.92C153.4,24.09,154.42,24.29,154.8,23Z"/><path class="cls-72" d="M112.89,24l0.56,0.1-0.13.49c-0.57,1.69-.38,3.39-0.45,5.2l-0.42,0c-0.09-1.72.15-3.62-.49-5.21A8.35,8.35,0,0,1,112.89,24Z"/><path class="cls-73" d="M113.46,24.14c1.65,0.05,3.29.05,4.95,0.07,0,1.81.07,3.64,0,5.45l-0.52,0a37.82,37.82,0,0,0-.09-4.8c-1.47-.16-3-0.14-4.43-0.21Z"/><path class="cls-74" d="M118.41,24.21l0.53,0c0,3.83,0,7.68,0,11.51-1.83,0-3.85.25-5.54-.43,1.49-.09,3-0.08,4.48-0.2,1,0.21.45-3,.45-3.65-1.62-.16-3.25-0.12-4.88-0.25,1.63-.58,3.16-0.33,4.84-0.52l0.05-.46,0-.53C118.47,27.85,118.42,26,118.41,24.21Z"/><path class="cls-75" d="M112,24.6c0.64,1.59.4,3.49,0.49,5.21-1.51-.14-3.27,0-4.64-0.62C109.16,27.62,110.64,26.18,112,24.6Z"/><path class="cls-76" d="M113.33,24.63a38,38,0,0,1,.13,5.06l-0.58.14C112.95,28,112.76,26.32,113.33,24.63Z"/><path class="cls-77" d="M113.33,24.63c1.47,0.08,3,0,4.43.21a37.82,37.82,0,0,1,.09,4.8c-1.47,0-2.94,0-4.4,0A38,38,0,0,0,113.33,24.63Z"/><path class="cls-78" d="M152.4,24.62c2.31,0.09,2,1.15,2.6,2.92-0.08.5,0.52,2.95-.39,2.66-1-1-1.63-2.39-2.52-3.5C151.55,26.12,152.16,25.2,152.4,24.62Z"/><path class="cls-79" d="M150.78,28.52a33.11,33.11,0,0,1,2.45,4.76c0.64,1.33,2.44,2.09,3.55,3a60.59,60.59,0,0,1-.13,6.54c-0.76,1.24-.49,2.43-0.3,3.78-1.13,1.43-1.38,4-2.79,5-2.37-2.1-4.22-4.11-7.53-4.64-0.94-1.52-1.13-3.49-2-5a13.23,13.23,0,0,0-4.3-3.51,8.52,8.52,0,0,0,2.2-1.07c1.47-1.58,3.06-3.64,5.49-3,0.81-.35.51-1.71,0.7-2.44C148.1,30,149.42,29.42,150.78,28.52Z"/><path class="cls-80" d="M107.81,29.18c1.37,0.66,3.13.48,4.64,0.62a10.13,10.13,0,0,1-4.93.29A1,1,0,0,1,107.81,29.18Z"/><path class="cls-81" d="M112.88,29.84l0.58-.14c1.46,0,2.93,0,4.4,0l0.52,0,0,0.53A16.26,16.26,0,0,1,112.88,29.84Z"/><path class="cls-82" d="M163.49,29.56a5.12,5.12,0,0,1-.13,4.59C163.37,32.61,163.4,31.09,163.49,29.56Z"/><path class="cls-83" d="M106.25,30.83a19.76,19.76,0,0,1,.06,4.3h-0.49a9.54,9.54,0,0,0-.45-4A0.82,0.82,0,0,1,106.25,30.83Z"/><path class="cls-84" d="M113.09,31.16l-0.61.61c-1.53-.67-3.42-0.43-5.1-0.55C108.89,30.34,111.44,30.7,113.09,31.16Z"/><path class="cls-85" d="M105.37,31.14a9.54,9.54,0,0,1,.45,4,6.92,6.92,0,0,1-3.47-.45C103.33,33.48,104.37,32.32,105.37,31.14Z"/><path class="cls-86" d="M107.37,31.21c0.07,1.33.1,2.65,0.08,4l-0.19.56C106.92,34.43,106.49,32.38,107.37,31.21Z"/><path class="cls-87" d="M107.37,31.21c1.68,0.12,3.57-.12,5.1.55-1.45.07-2.92,0-4.36,0.2a30,30,0,0,0-.12,3.14l-0.54.08C107.47,33.86,107.44,32.54,107.37,31.21Z"/><path class="cls-88" d="M113.09,31.16h0.36l0.07,0.62c0,1.16-.05,2.32-0.12,3.48h-0.93q-0.07-1.75,0-3.5Z"/><path class="cls-89" d="M113.44,31.17c1.63,0.14,3.26.09,4.88,0.25,0,0.65.54,3.86-.45,3.65a25.38,25.38,0,0,0-.1-3.1c-1.4-.15-2.84-0.12-4.25-0.18Z"/><path class="cls-90" d="M108.11,32c1.45-.16,2.92-0.13,4.36-0.2q-0.08,1.75,0,3.5c-1.49-.1-3-0.14-4.48-0.16A30,30,0,0,1,108.11,32Z"/><path class="cls-91" d="M113.51,31.79c1.41,0.06,2.85,0,4.25.18a25.38,25.38,0,0,1,.1,3.1c-1.49.12-3,.11-4.48,0.2C113.46,34.11,113.5,32.94,113.51,31.79Z"/><path class="cls-92" d="M163.37,34.15a15.81,15.81,0,0,1-.08,3.71h-0.35C162.76,36.64,162.32,35.09,163.37,34.15Z"/><path class="cls-93" d="M102.35,34.68a6.92,6.92,0,0,0,3.47.45h0.49c0.23,0.87-1.64.47-2.14,0.6C103.43,35.57,101.12,36.08,102.35,34.68Z"/><path class="cls-94" d="M107.45,35.19l0.54-.08c1.5,0,3,.05,4.48.16-1.67.64-3.38,0.4-5.21,0.48Z"/><path class="cls-95" d="M112.47,35.27h0.93c1.69,0.69,3.72.4,5.54,0.43v1.1l-0.53,0h-0.53c-1.46,0-2.93,0-4.39,0h-1.1c-1.63,0-3.27-.05-4.9,0h-0.44c0.07-.37.14-0.73,0.21-1.1C109.09,35.67,110.8,35.91,112.47,35.27Z"/><path class="cls-96" d="M136.57,35.2c2.25,0.08,2.84,2.54,5.31,2.13a8.52,8.52,0,0,1-2.2,1.07C138.1,38,136.13,37.25,136.57,35.2Z"/><path class="cls-97" d="M156.78,36.29a1.11,1.11,0,0,1,.54,1.06c0,2.55.28,5.28-.28,7.78-0.11-.77-0.24-1.53-0.39-2.29A60.59,60.59,0,0,0,156.78,36.29Z"/><path class="cls-98" d="M101,36.94l0.48-.06,0.08,0.5a9.33,9.33,0,0,0,0,3.74l-0.08.5L101,41.57A17.21,17.21,0,0,1,101,36.94Z"/><path class="cls-99" d="M101.48,36.88a22.12,22.12,0,0,1,4.78,0,20,20,0,0,1,0,4.72,22.12,22.12,0,0,1-4.78,0l0.08-.5h0.35a25.32,25.32,0,0,0,3.82,0,14.53,14.53,0,0,0,0-3.65,25.32,25.32,0,0,0-3.82,0h-0.35Z"/><path class="cls-100" d="M107.05,36.85h0.44v0.5q0,1.91,0,3.83v0.49L107,41.6A17.25,17.25,0,0,1,107.05,36.85Z"/><path class="cls-101" d="M107.5,36.83c1.63-.06,3.27-0.05,4.9,0,0,1.44,0,2.89,0,4.33h-0.53a30.92,30.92,0,0,0-.11-3.71,35.32,35.32,0,0,0-4.24-.1v-0.5Z"/><path class="cls-102" d="M112.4,36.83h0.54c0,1.55-.18,3,0.42,4.42l0.15,0.45H112.4l0-.54C112.38,39.72,112.39,38.27,112.4,36.83Z"/><path class="cls-103" d="M112.93,36.83h0.56c0,1.48,0,3-.14,4.43C112.75,39.8,112.95,38.39,112.93,36.83Z"/><path class="cls-104" d="M113.49,36.83c1.46,0,2.93,0,4.39,0a36.3,36.3,0,0,1-.12,4.23c-1.46.17-2.94,0.14-4.41,0.2C113.46,39.78,113.5,38.31,113.49,36.83Z"/><path class="cls-105" d="M117.88,36.83h0.53q0,2.43,0,4.87c-1.63,0-3.27,0-4.91,0l-0.15-.45c1.47-.06,3,0,4.41-0.2A36.3,36.3,0,0,0,117.88,36.83Z"/><path class="cls-106" d="M118.41,36.82l0.53,0c0,1.63,0,3.27,0,4.9h-0.52Q118.43,39.26,118.41,36.82Z"/><path class="cls-107" d="M101.56,37.39h0.35a12.49,12.49,0,0,1,0,3.73h-0.35A9.33,9.33,0,0,1,101.56,37.39Z"/><path class="cls-108" d="M101.9,37.39a25.32,25.32,0,0,1,3.82,0,14.53,14.53,0,0,1,0,3.65,25.32,25.32,0,0,1-3.82,0A12.49,12.49,0,0,0,101.9,37.39Z"/><path class="cls-109" d="M107.5,37.34a35.32,35.32,0,0,1,4.24.1,30.92,30.92,0,0,1,.11,3.71q-2.18,0-4.36,0Q107.45,39.25,107.5,37.34Z"/><path class="cls-110" d="M162.93,37.85h0.35c0.1,2,.09,4,0.08,6.06h-0.53c-0.05-.77-0.11-1.54-0.17-2.31C162.8,40.36,162.86,39.11,162.93,37.85Z"/><path class="cls-111" d="M107.49,41.17q2.18,0,4.36,0h0.53l0,0.54a48.79,48.79,0,0,1-4.91,0V41.17Z"/><path class="cls-112" d="M162.67,41.61c0.06,0.77.12,1.54,0.17,2.31,0,1.51,0,3,.08,4.52l-0.16.47h-0.36C162.3,46.55,162,43.88,162.67,41.61Z"/><path class="cls-113" d="M118.92,42.2c0,1.85.07,3.7,0,5.55l-0.46.15c-0.07-1.68-.09-3.37-0.13-5Z"/><path class="cls-114" d="M99.68,42.92a23.59,23.59,0,0,1,0,4.82c-1.47,0-2.94,0-4.41-.07l0.21-.39c1.21-.05,2.42,0,3.62-0.19a13.21,13.21,0,0,0,0-3.6,32.36,32.36,0,0,0-3.26-.21C96.82,42.48,98.53,42.84,99.68,42.92Z"/><path class="cls-115" d="M107.58,42.93a36.24,36.24,0,0,1,4.82-.09l0,0.54h-0.53c-1.28,0-2.56,0-3.84,0h-0.49Z"/><path class="cls-116" d="M112.4,42.84h1.11l-0.14.45a14.37,14.37,0,0,0-.52,4.59l-0.47-.15q0-2.18,0-4.35Z"/><path class="cls-117" d="M113.5,42.84c1.62,0,3.24,0,4.86,0,0,1.68.06,3.37,0.13,5l-0.58-.12c0-1.43,0-2.88-.15-4.29-1.46-.17-2.94-0.14-4.4-0.2Z"/><path class="cls-118" d="M156.65,42.83c0.15,0.76.29,1.52,0.39,2.29a4.13,4.13,0,0,1-.7,1.49C156.16,45.26,155.89,44.07,156.65,42.83Z"/><path class="cls-119" d="M95.88,43.28a32.36,32.36,0,0,1,3.26.21,13.21,13.21,0,0,1,0,3.6c-1.19.14-2.41,0.14-3.62,0.19,0-1.11-.13-2.23-0.26-3.33Z"/><path class="cls-120" d="M107.52,43.4H108a29.93,29.93,0,0,0,.09,3.71,14.4,14.4,0,0,0,3.63,0,31.14,31.14,0,0,0,.11-3.72h0.53q0,2.17,0,4.35l-4.89,0A39.85,39.85,0,0,1,107.52,43.4Z"/><path class="cls-121" d="M108,43.4c1.28,0,2.56,0,3.84,0a31.14,31.14,0,0,1-.11,3.72,14.4,14.4,0,0,1-3.63,0A29.93,29.93,0,0,1,108,43.4Z"/><path class="cls-122" d="M113.36,43.29a42.39,42.39,0,0,1,.09,4.49l-0.61.1A14.37,14.37,0,0,1,113.36,43.29Z"/><path class="cls-123" d="M113.36,43.29c1.46,0.06,2.94,0,4.4.2,0.16,1.41.12,2.87,0.15,4.29q-2.23-.06-4.46,0A42.39,42.39,0,0,0,113.36,43.29Z"/><path class="cls-124" d="M95.26,44c0.14,1.1.22,2.21,0.26,3.33l-0.21.39H94.95C94.71,46.61,94.53,44.84,95.26,44Z"/><path class="cls-125" d="M162.83,43.92h0.53c0,1.58.22,3.08-.45,4.53C162.85,46.94,162.82,45.43,162.83,43.92Z"/><path class="cls-126" d="M94.95,47.67h0.36c1.47,0.07,2.93.09,4.41,0.07l-0.06.47C98.67,48.21,95.22,48.8,94.95,47.67Z"/><path class="cls-127" d="M107.48,47.76l4.89,0,0.47,0.15a8.54,8.54,0,0,0,5.65,0l0.46-.15c0,2.38,0,4.76,0,7.14s-0.44,5.09.44,7.28l-0.76.48c-0.17-2-3.82-.93-5.18-1.16l-1.11,0V60.93c2,0,3.94.06,5.89-.09l0-.4c-1.73-.15-3.27.12-4.93-0.5,1.65-.12,3.31-0.07,4.95-0.23a20,20,0,0,0,0-4.72,10,10,0,0,0-4.92.32h-0.91a15.43,15.43,0,0,0-4.68-.53c-0.07-.34-0.14-0.69-0.2-1q2.38,0.07,4.77,0l1.14,0a30.46,30.46,0,0,0,4.8,0,20,20,0,0,0,0-4.25L118.29,49c-1.65-.11-3.89-0.5-5.35.41l-0.45-.12c-1.67-.6-3.26-0.39-5-0.41V47.76Z"/><path class="cls-128" d="M112.85,47.88l0.61-.1q2.24-.07,4.46,0l0.58,0.12A8.54,8.54,0,0,1,112.85,47.88Z"/><path class="cls-129" d="M92.55,48.93a15.33,15.33,0,0,1,0,4.31,35,35,0,0,0-3.56,0C88.14,50.89,90.06,48.3,92.55,48.93Z"/><path class="cls-130" d="M95,49a19.56,19.56,0,0,1,4.7,0,19.56,19.56,0,0,1,0,4.7l-0.47.07V53.23a25.78,25.78,0,0,0-.07-3.74,25.79,25.79,0,0,0-3.74-.07H94.91Z"/><path class="cls-131" d="M101.56,49a19.57,19.57,0,0,1,4.67,0l0.07,0.47q-2.4,0-4.8,0Z"/><path class="cls-132" d="M107.48,48.84c1.75,0,3.34-.19,5,0.41-1.46.11-2.93,0.1-4.39,0.26a13.78,13.78,0,0,0,0,3.62,33.4,33.4,0,0,0,4.25.09l0,0.52q-2.38.07-4.77,0A27.59,27.59,0,0,1,107.48,48.84Z"/><path class="cls-133" d="M118.29,49l0.07,0.47h-0.49c-1.51,0-3,0-4.53,0l-0.39,0C114.41,48.46,116.64,48.86,118.29,49Z"/><path class="cls-134" d="M162.39,48.91h0.36a6.28,6.28,0,0,1-.28,3.72l-0.4-1.06C162.16,50.69,162.25,49.79,162.39,48.91Z"/><path class="cls-135" d="M94.91,49.43H95.4a29.82,29.82,0,0,0,.1,3.71,29.82,29.82,0,0,0,3.71.1v0.49a20,20,0,0,1-4.25,0A20.06,20.06,0,0,1,94.91,49.43Z"/><path class="cls-136" d="M95.4,49.43a25.79,25.79,0,0,1,3.74.07,25.78,25.78,0,0,1,.07,3.74,29.82,29.82,0,0,1-3.71-.1A29.82,29.82,0,0,1,95.4,49.43Z"/><path class="cls-137" d="M101.49,49.42q2.4,0,4.8,0a19.41,19.41,0,0,1,0,4.26,20,20,0,0,1-4.72,0A19.41,19.41,0,0,1,101.49,49.42Z"/><path class="cls-138" d="M108.1,49.51c1.46-.16,2.93-0.15,4.39-0.26-0.08,1.32-.12,2.65-0.14,4a33.4,33.4,0,0,1-4.25-.09A13.78,13.78,0,0,1,108.1,49.51Z"/><path class="cls-139" d="M112.49,49.26l0.45,0.12a6.56,6.56,0,0,0,.38,3.85l0.19,0.5-1.14,0,0-.52C112.37,51.9,112.41,50.58,112.49,49.26Z"/><path class="cls-140" d="M112.94,49.38l0.39,0a8,8,0,0,1,0,3.83A6.56,6.56,0,0,1,112.94,49.38Z"/><path class="cls-141" d="M113.34,49.4c1.51,0,3,0,4.53,0a29.64,29.64,0,0,1-.1,3.69,36.36,36.36,0,0,1-4.44.1A8,8,0,0,0,113.34,49.4Z"/><path class="cls-142" d="M117.87,49.44h0.49a20,20,0,0,1,0,4.25,30.46,30.46,0,0,1-4.8,0l-0.19-.5a36.36,36.36,0,0,0,4.44-.1A29.64,29.64,0,0,0,117.87,49.44Z"/><path class="cls-143" d="M102.06,50a14.62,14.62,0,0,1,3.66,0,11.76,11.76,0,0,1,0,3.1,14.62,14.62,0,0,1-3.66,0A11.76,11.76,0,0,1,102.06,50Z"/><path class="cls-144" d="M133.24,50.47a37.38,37.38,0,0,1-5.16,5.29c-2.14,1.39-4.45,2.26-6.33,4.07-0.73.28-1.45,0.6-2.18,0.89-0.12-1.94,0-3.9-.07-5.85q0-1.37,0-2.75c1.87,1.71,4.07,1.36,6.08.1,1.29,0.51,2.37.42,3.63,0.81C130.87,52.36,131.3,50.73,133.24,50.47Z"/><path class="cls-145" d="M162.07,51.57l0.4,1.06a23.69,23.69,0,0,1-.58,3.45c-0.09-.95-0.18-1.89-0.26-2.83C161.76,52.69,161.91,52.13,162.07,51.57Z"/><path class="cls-146" d="M142.7,52.85c2.06-.83,4.59-0.08,6.76.09,2.38,0.81,4.51.15,6.78-.64,1.3,0.54,1.78,1.33,3.17.32,0.72-.66.68,0.66,1,1.09,0.12-.48.25-1,0.38-1.45,0.27,0.32.55,0.66,0.81,1,0.08,0.94.18,1.89,0.26,2.83l-0.21.92c-0.6,1.24-1.12,2.54-1.8,3.74-2.52,0-5.06-.24-7.66-0.06-1.74.17-3.14-.7-4.85-0.77a19.34,19.34,0,0,1-8.81-7C140.35,52.94,140.88,51.62,142.7,52.85Z"/><path class="cls-147" d="M89,53.23a35,35,0,0,1,3.56,0C92.83,54.14,88.65,54.13,89,53.23Z"/><path class="cls-148" d="M92.56,55a15.49,15.49,0,0,1-.05,4.33l-0.35-.16c0-1.2,0-2.42-.15-3.61a25.71,25.71,0,0,0-3.12-.1C88.71,54.44,91.9,55,92.56,55Z"/><path class="cls-149" d="M95,55a20,20,0,0,1,4.25,0v0.49a29.94,29.94,0,0,0-3.71.1,14.36,14.36,0,0,0,0,3.63,29.94,29.94,0,0,0,3.71.1v0.49a20,20,0,0,1-4.25,0A20,20,0,0,1,95,55Z"/><path class="cls-150" d="M99.2,54.94L99.67,55a19.11,19.11,0,0,1,0,4.68l-0.47.07V59.26c0-1.28,0-2.55,0-3.84V54.94Z"/><path class="cls-151" d="M101.56,55a20.1,20.1,0,0,1,4.7,0,20,20,0,0,1,0,4.72,19.8,19.8,0,0,1-4.7,0l-0.07-.46a31.07,31.07,0,0,0,4.23-.09,14.36,14.36,0,0,0,0-3.63,31.07,31.07,0,0,0-4.23-.09Z"/><path class="cls-152" d="M107.81,54.78a15.43,15.43,0,0,1,4.68.53c-1.46.09-2.93,0.08-4.38,0.24a13.78,13.78,0,0,0,0,3.62,35.53,35.53,0,0,0,4.25.1l0,0.52a36.15,36.15,0,0,1-4.81-.07A11.7,11.7,0,0,1,107.81,54.78Z"/><path class="cls-153" d="M118.32,55a20,20,0,0,1,0,4.72c-1.64.16-3.3,0.12-4.95,0.23l0.14-.61c1.41,0,2.86,0,4.26-.16a13.55,13.55,0,0,0,0-3.62c-1.45-.16-2.92-0.14-4.38-0.24A10,10,0,0,1,118.32,55Z"/><path class="cls-154" d="M119,54.88h0.52c0,2,0,3.91.07,5.85,0.73-.29,1.45-0.61,2.18-0.89a10.41,10.41,0,0,1-2.33,2.32C118.54,60,119.1,57.21,119,54.88Z"/><path class="cls-155" d="M88.88,55.43a25.71,25.71,0,0,1,3.12.1c0.14,1.19.13,2.41,0.15,3.61C91.1,59.2,90,59.24,89,59.28A14.87,14.87,0,0,1,88.88,55.43Z"/><path class="cls-156" d="M95.49,55.53a29.94,29.94,0,0,1,3.71-.1c0,1.28,0,2.55,0,3.84a29.94,29.94,0,0,1-3.71-.1A14.36,14.36,0,0,1,95.49,55.53Z"/><path class="cls-157" d="M101.49,55.44a31.07,31.07,0,0,1,4.23.09,14.36,14.36,0,0,1,0,3.63,31.07,31.07,0,0,1-4.23.09A19.18,19.18,0,0,1,101.49,55.44Z"/><path class="cls-158" d="M108.1,55.54c1.45-.16,2.92-0.14,4.38-0.24-0.07,1.32-.11,2.64-0.13,4a35.53,35.53,0,0,1-4.25-.1A13.78,13.78,0,0,1,108.1,55.54Z"/><path class="cls-159" d="M112.48,55.31h0.91c0.08,1.34.11,2.67,0.12,4l-0.14.61-1-.15,0-.52C112.37,57.94,112.41,56.62,112.48,55.31Z"/><path class="cls-160" d="M113.39,55.31c1.46,0.09,2.93.08,4.38,0.24a13.55,13.55,0,0,1,0,3.62c-1.41.15-2.85,0.11-4.26,0.16C113.5,58,113.47,56.64,113.39,55.31Z"/><path class="cls-161" d="M161.68,57a17.5,17.5,0,0,1-1.27,5.91c-0.6,1.19-1.88,1.43-3.07,1.7-3.85-.79-6.51-2.93-10-4.7,1.71,0.07,3.11.94,4.85,0.77,2.6-.18,5.14.1,7.66,0.06C160.56,59.54,161.08,58.23,161.68,57Z"/><path class="cls-162" d="M89,59.28c1.06,0,2.13-.08,3.18-0.14l0.35,0.16C92.87,60.14,88.63,60.11,89,59.28Z"/><path class="cls-163" d="M85.38,61.44c-1.06,0-2.12.08-3.17,0.13l-0.37-.16C81.49,60.58,85.72,60.61,85.38,61.44Z"/><path class="cls-164" d="M92.52,61.46a34.9,34.9,0,0,1-3.55,0C88.65,60.56,92.83,60.56,92.52,61.46Z"/><path class="cls-165" d="M95,61a20,20,0,0,1,4.72,0c0.06,1.45.54,3.74-.45,4.92a33.34,33.34,0,0,0-.1-4.38,13.87,13.87,0,0,0-3.63,0,33.34,33.34,0,0,0-.1,4.38C94.41,64.75,94.89,62.47,95,61Z"/><path class="cls-166" d="M101.57,61a19.67,19.67,0,0,1,4.68,0,23.56,23.56,0,0,1,0,5.27,20.08,20.08,0,0,1-4.73,0,21.6,21.6,0,0,1,0-3.86,22.51,22.51,0,0,1,.62,3.31,12.51,12.51,0,0,0,3.56,0,17,17,0,0,0,0-4.19,32,32,0,0,0-4.17-.09Z"/><path class="cls-167" d="M107.56,61a37.36,37.36,0,0,1,4.83-.09v0.53a35.89,35.89,0,0,0-4.28.1,16.51,16.51,0,0,0,0,4.16c1.46,0.16,2.93.16,4.39,0.29a11.11,11.11,0,0,1-4.93.27A23.89,23.89,0,0,1,107.56,61Z"/><path class="cls-168" d="M73,61.59l0.46-.07a31,31,0,0,0,.09,4.22,14.11,14.11,0,0,0,3.63,0,31.07,31.07,0,0,0,.09-4.23l0.47,0.07a20.1,20.1,0,0,1,0,4.7,20,20,0,0,1-4.72,0A19.8,19.8,0,0,1,73,61.59Z"/><path class="cls-169" d="M73.49,61.52a19.18,19.18,0,0,1,3.8,0,31.07,31.07,0,0,1-.09,4.23,14.11,14.11,0,0,1-3.63,0A31,31,0,0,1,73.49,61.52Z"/><path class="cls-170" d="M81.85,61.41l0.37,0.16c0,1.39,0,2.77,0,4.15l-0.37.16A14.23,14.23,0,0,1,81.85,61.41Z"/><path class="cls-171" d="M82.22,61.57c1.05-.05,2.11-0.09,3.17-0.13a13.89,13.89,0,0,1,0,4.42c-1.06,0-2.12-.08-3.17-0.13C82.25,64.34,82.25,63,82.22,61.57Z"/><path class="cls-172" d="M89,61.46a34.9,34.9,0,0,0,3.55,0,17.73,17.73,0,0,1,.15,3.28c-1.05,1.5-2.18,1.06-3.78,1.11A18.34,18.34,0,0,1,89,61.46Z"/><path class="cls-173" d="M95.5,61.56a13.87,13.87,0,0,1,3.63,0,33.34,33.34,0,0,1,.1,4.38,12.11,12.11,0,0,0-3.83,0A33.34,33.34,0,0,1,95.5,61.56Z"/><path class="cls-174" d="M101.55,61.47a32,32,0,0,1,4.17.09,17,17,0,0,1,0,4.19,12.51,12.51,0,0,1-3.56,0,22.51,22.51,0,0,0-.62-3.31Z"/><path class="cls-175" d="M108.1,61.56a35.89,35.89,0,0,1,4.28-.1c0,1.52,0,3,.12,4.55-1.46-.13-2.93-0.13-4.39-0.29A16.51,16.51,0,0,1,108.1,61.56Z"/><path class="cls-176" d="M112.38,61.46l1.11,0c0,1.42,0,2.83,0,4.25l-1,.29C112.4,64.5,112.38,63,112.38,61.46Z"/><path class="cls-177" d="M113.49,61.48c1.36,0.22,5-.82,5.18,1.16-1.74,1-3.33,2.45-5.21,3.09C113.49,64.31,113.49,62.9,113.49,61.48Z"/><path class="cls-178" d="M92.67,64.73c0,0.52-.06,1-0.13,1.56-0.66,0-3.83.54-3.66-.45C90.49,65.79,91.62,66.24,92.67,64.73Z"/><path class="cls-179" d="M81.85,65.89l0.37-.16c1.05,0.05,2.11.09,3.17,0.13C85.72,66.69,81.49,66.72,81.85,65.89Z"/><path class="cls-180" d="M95.4,65.94a12.11,12.11,0,0,1,3.83,0C99,66.71,95.6,66.71,95.4,65.94Z"/><path class="cls-181" d="M73,67.59a19,19,0,0,1,4.7,0l0,0.88a8,8,0,0,0-4.21-.36,14.53,14.53,0,0,0,0,3.65,11.09,11.09,0,0,0,3.54,0c0.23-.92.41-1.85,0.69-2.77a24.3,24.3,0,0,1,0,3.34,20.43,20.43,0,0,1-4.74,0A20,20,0,0,1,73,67.59Z"/><path class="cls-182" d="M81.8,67.59a13.41,13.41,0,0,1,3.63,0,20.13,20.13,0,0,1,0,4.74,13.41,13.41,0,0,1-3.63,0A20.13,20.13,0,0,1,81.8,67.59Z"/><path class="cls-183" d="M92.55,67.59a20.13,20.13,0,0,1,0,4.74c-0.66,0-3.85.54-3.67-.45a27.1,27.1,0,0,0,3.13-.1,14.44,14.44,0,0,0,0-3.64,27.1,27.1,0,0,0-3.13-.1C88.71,67,91.9,67.59,92.55,67.59Z"/><path class="cls-184" d="M95,67.59a20,20,0,0,1,4.72,0,20,20,0,0,1,0,4.72,20,20,0,0,1-4.72,0A20,20,0,0,1,95,67.59Z"/><path class="cls-185" d="M106.26,67.59a21.05,21.05,0,0,1,.1,3.72l-0.42.16c-0.07-1.1-.1-2.22-0.26-3.31-1.43-.18-2.89-0.16-4.32-0.22C102.64,67.09,104.78,67.52,106.26,67.59Z"/><path class="cls-186" d="M107.56,67.57a8.5,8.5,0,0,1,3,.05c0.22,0.61.38,1.24,0.6,1.85s1.11,1.46,1.16,2.29a20.8,20.8,0,0,1-4.78,0A17,17,0,0,1,107.56,67.57Z"/><path class="cls-185" d="M63.61,68.09a27.29,27.29,0,0,0,.1,3.14,12.16,12.16,0,0,0,3.09,0,27.29,27.29,0,0,0,.1-3.14c1-.17.44,3,0.45,3.68a17.31,17.31,0,0,1-4.19,0C63.16,71.1,62.61,67.92,63.61,68.09Z"/><path class="cls-187" d="M63.61,68.09a16.49,16.49,0,0,1,3.29,0,27.29,27.29,0,0,1-.1,3.14,12.16,12.16,0,0,1-3.09,0A27.29,27.29,0,0,1,63.61,68.09Z"/><path class="cls-188" d="M73.57,68.13a8,8,0,0,1,4.21.36V69c-0.27.92-.45,1.85-0.69,2.77a11.09,11.09,0,0,1-3.54,0A14.53,14.53,0,0,1,73.57,68.13Z"/><path class="cls-188" d="M82.34,68.12a10,10,0,0,1,2.55,0,14.71,14.71,0,0,1,0,3.67,10,10,0,0,1-2.55,0A14.71,14.71,0,0,1,82.34,68.12Z"/><path class="cls-189" d="M88.89,68a27.1,27.1,0,0,1,3.13.1,14.44,14.44,0,0,1,0,3.64,27.1,27.1,0,0,1-3.13.1A19.51,19.51,0,0,1,88.89,68Z"/><path class="cls-190" d="M95.49,68.13a14.53,14.53,0,0,1,3.65,0,14.53,14.53,0,0,1,0,3.65,14.53,14.53,0,0,1-3.65,0A14.53,14.53,0,0,1,95.49,68.13Z"/><path class="cls-191" d="M101.36,67.94c1.44,0.05,2.89,0,4.32.22,0.15,1.09.19,2.21,0.26,3.31-1.29.62-3,.38-4.41,0.39C101.62,71,100.61,68.42,101.36,67.94Z"/><path class="cls-192" d="M58.72,69.74c0,2.08-.52,1.38-2.18,1.6C56.24,69,57,69.8,58.72,69.74Z"/><path class="cls-193" d="M58.72,69.74c0.87-.26.36,1.58,0.43,2-0.5,0-2.89.47-2.6-.44C58.2,71.12,58.67,71.83,58.72,69.74Z"/><path class="cls-194" d="M105.94,71.47l0.42-.16-0.11,1a17.79,17.79,0,0,1-4.64,0l-0.08-.45C102.94,71.84,104.66,72.09,105.94,71.47Z"/><path class="cls-195" d="M73,73.62a20.08,20.08,0,0,1,4.73,0c0,1.15.55,3.45-.6,4.15a13.92,13.92,0,0,1-4.13,0A16.39,16.39,0,0,1,73,73.62Z"/><path class="cls-196" d="M81.79,73.61c0.66,0,3.87-.54,3.67.46-1,.23-3.69-0.67-3.23,1.1-0.23,1,1.38,1.62,2.07,2.06,0.43-.5.82-1,1.22-1.57a20.1,20.1,0,0,1-.1,2.15,14.15,14.15,0,0,1-3.63,0A17.31,17.31,0,0,1,81.79,73.61Z"/><path class="cls-197" d="M92.56,73.61a17.31,17.31,0,0,1,0,4.19c-1-.06-4.24.79-3.72-1A30.87,30.87,0,0,0,92,76.7a10.35,10.35,0,0,0,0-2.54,27.35,27.35,0,0,0-3.15-.1C88.71,73.07,91.9,73.62,92.56,73.61Z"/><path class="cls-198" d="M94.95,73.62a13.92,13.92,0,0,1,4.13,0c1.28,0.81.67,3.06,0,4.12a13.19,13.19,0,0,1-4.13,0A16.64,16.64,0,0,1,94.95,73.62Z"/><path class="cls-199" d="M101.44,73.59c0.13,1.18-.47,3.48.69,4.19,1.66,0.2,3.15.6,4.24-1,0,0.52-.07,1-0.13,1.55-1.4,0-4.31.66-5.24-.59C100.93,77,100.43,73.49,101.44,73.59Z"/><path class="cls-200" d="M101.44,73.59a23.59,23.59,0,0,1,4.82,0,18.63,18.63,0,0,1,.12,3.17c-1.09,1.58-2.58,1.18-4.24,1C101,77.06,101.56,74.77,101.44,73.59Z"/><path class="cls-201" d="M107.56,73.62a40.55,40.55,0,0,1,4.83-.09v0.54a36.14,36.14,0,0,0-4.29.1,9.71,9.71,0,0,0,0,2,7.78,7.78,0,0,0,4.3-.39c0,0.7,0,1.4,0,2.11a39.77,39.77,0,0,1-4.85-.08A16.9,16.9,0,0,1,107.56,73.62Z"/><path class="cls-202" d="M112.38,73.53h1a12.15,12.15,0,0,0,.25,3.72c1.74,0.09,3.95.72,5-1.06,1.92,1,3.37,2.95,4.92,4.43a15.31,15.31,0,0,1-.76,1.46c-1.16-.93-1.87-0.23-3.14,0a11.3,11.3,0,0,0-.55-2.63c-0.22-.46-0.52-1.54-1.21-1.35a19.37,19.37,0,0,1-5.49-.21c0-.71,0-1.41,0-2.11s0-1.14,0-1.7V73.53Z"/><path class="cls-203" d="M113.37,73.52a15.69,15.69,0,0,1,3.25.14,17.06,17.06,0,0,1,2,2.52c-1.07,1.78-3.28,1.15-5,1.06A12.15,12.15,0,0,1,113.37,73.52Z"/><path class="cls-204" d="M63.15,74.2l0.46-.07a21.32,21.32,0,0,0,.13,3.08c1.3,0.22,2.34.78,3.57,0a18.11,18.11,0,0,0,.15-3.09L67.9,74.2c0,1.15.54,3.43-.61,4.13a9.33,9.33,0,0,1-3.53,0C62.6,77.62,63.11,75.34,63.15,74.2Z"/><path class="cls-205" d="M63.61,74.13a19.57,19.57,0,0,1,3.84,0,18.11,18.11,0,0,1-.15,3.09c-1.23.77-2.26,0.21-3.57,0A21.32,21.32,0,0,1,63.61,74.13Z"/><path class="cls-206" d="M85.47,74.07c0,0.52.07,1.05,0.06,1.58-0.4.53-.79,1.07-1.22,1.57-0.69-.44-2.3-1.06-2.07-2.06C81.77,73.4,84.45,74.3,85.47,74.07Z"/><path class="cls-206" d="M88.88,74.06a27.35,27.35,0,0,1,3.15.1,10.35,10.35,0,0,1,0,2.54,30.87,30.87,0,0,1-3.18.13A17.22,17.22,0,0,1,88.88,74.06Z"/><path class="cls-207" d="M108.08,74.17a36.14,36.14,0,0,1,4.29-.1c0,0.56,0,1.13,0,1.7a7.78,7.78,0,0,1-4.3.39A9.71,9.71,0,0,1,108.08,74.17Z"/><path class="cls-208" d="M85.41,79.31c0.77,1,.35,1.87.25,3-0.08.69-.18,1.38-0.29,2.07a12.59,12.59,0,0,1-3.57,0,17.28,17.28,0,0,1,0-4.7C82.56,78.87,84.41,79.39,85.41,79.31Z"/><path class="cls-209" d="M88.92,79.1a13.41,13.41,0,0,1,3.63,0,24.33,24.33,0,0,1,0,5.28,13.41,13.41,0,0,1-3.63,0A24.33,24.33,0,0,1,88.92,79.1Z"/><path class="cls-208" d="M99.09,79.12c1.18,0.72.44,2.17,0.35,3.25-0.12.66-.24,1.33-0.38,2-1.12.1-3.39,0.56-4.07-.58a11.85,11.85,0,0,1,0-4.08C95.67,78.56,98,79,99.09,79.12Z"/><path class="cls-210" d="M101.57,79.12a17.38,17.38,0,0,1,4.68,0,23.56,23.56,0,0,1,0,5.27,18.84,18.84,0,0,1-4.68,0C101.54,83,100.6,80.22,101.57,79.12Z"/><path class="cls-211" d="M107.58,79.13c2.47-.57,4.71.44,7.13,0.14a35.73,35.73,0,0,1,4.39.18,11.3,11.3,0,0,1,.55,2.63c1.27-.23,2-0.93,3.14,0a15.31,15.31,0,0,0,.76-1.46,91.78,91.78,0,0,1,6.56,8.06,6.2,6.2,0,0,0-3.48-.43c-2.65.41-4.58-.78-6.92,0.26a25,25,0,0,0-.8,2.58c-2.06,0-4.07.18-6-.37,1.79-.24,3.58-0.16,5.38-0.27a5.34,5.34,0,0,0-1.09-2.5,17.4,17.4,0,0,1-3.54.17c-0.26.87-.48,1.74-0.75,2.6a14.45,14.45,0,0,1-4.37.35c-0.62,0-1.44-.16-1.34-0.94,0.15-1.29.23-2.59,0.41-3.89,3.73-.35,7.54.12,11.28-0.21a17.86,17.86,0,0,0,0-3.16c-0.36.48-.54,1.37-1.13,1.56-2.19.29-4.31-.27-6.48,0a17.39,17.39,0,0,1-3.7,0C107.4,82.52,106.94,80.93,107.58,79.13Z"/><path class="cls-212" d="M50.56,79.65a24.23,24.23,0,0,1,5.27,0,16.14,16.14,0,0,1,0,4.18,24.23,24.23,0,0,1-5.27,0A16.14,16.14,0,0,1,50.56,79.65Z"/><path class="cls-213" d="M63.16,79.64a16.64,16.64,0,0,1,4.18,0c0,1.92,1.05,5.28-2.09,4.87C62.11,84.92,63.16,81.56,63.16,79.64Z"/><path class="cls-208" d="M73,79.65a20,20,0,0,1,4.72,0c0,1.28.61,3.89-.59,4.7-1.12.13-3.41,0.55-4.11-.58A13.89,13.89,0,0,1,73,79.65Z"/><path class="cls-214" d="M73.62,85.7c1.12-.13,3.41-0.56,4.11.58a17.12,17.12,0,0,1,0,4.68A20,20,0,0,1,73,91C73,89.54,72.37,86.63,73.62,85.7Z"/><path class="cls-215" d="M40.73,86.25a7.06,7.06,0,0,1,3,0c1.15,0.71.64,3,.6,4.16a17.27,17.27,0,0,1-4.19,0C40.09,89.25,39.58,87,40.73,86.25Z"/><path class="cls-216" d="M51.15,86.25a17.12,17.12,0,0,1,4.68,0,16.14,16.14,0,0,1,0,4.18,24.28,24.28,0,0,1-5.28,0C50.51,89.25,50,87,51.15,86.25Z"/><path class="cls-217" d="M63.76,86.25a11.08,11.08,0,0,1,3.58,0,17,17,0,0,1,0,4.19,17,17,0,0,1-4.19,0C63.11,89.25,62.6,87,63.76,86.25Z"/><path class="cls-213" d="M95.48,86.23a17,17,0,0,1,4.22,0,14.92,14.92,0,0,1,0,3.7C98,89.33,94.56,88.66,95.48,86.23Z"/><path class="cls-218" d="M101.53,86.23a20.08,20.08,0,0,1,4.73,0,21.1,21.1,0,0,1,0,4.74,28.64,28.64,0,0,1-4.69-1.19A10.44,10.44,0,0,1,101.53,86.23Z"/><path class="cls-219" d="M77.28,88a12.66,12.66,0,0,1-.05,2.41,14.24,14.24,0,0,1-3.68,0,8.14,8.14,0,0,1,0-1.93c0.7-.11,1.39-0.2,2.09-0.27Z"/><path class="cls-220" d="M113.66,88.1a17.4,17.4,0,0,0,3.54-.17,5.34,5.34,0,0,1,1.09,2.5c-1.8.11-3.58,0-5.38,0.27C113.19,89.84,113.4,89,113.66,88.1Z"/><path class="cls-221" d="M126.64,88.23a6.2,6.2,0,0,1,3.48.43,23.51,23.51,0,0,1,1.64,2.19c-3.44-1.53-8.19-.43-11.55-0.62a14.56,14.56,0,0,0-1.27,1.39V91.07a25,25,0,0,1,.8-2.58C122.06,87.45,124,88.64,126.64,88.23Z"/><path class="cls-222" d="M120.2,90.24c3.36,0.19,8.11-.91,11.55.62a17.15,17.15,0,0,1,1,1.66c-4.24-.69-8.84-0.34-13.14-0.25-0.05.52-.1,1-0.13,1.55L119.08,95C119,94,119,93.1,118.92,92.15V91.63A14.56,14.56,0,0,1,120.2,90.24Z"/><path class="cls-223" d="M27.58,92.28a11.85,11.85,0,0,1,4.08,0c1.21,0.8.63,3.43,0.6,4.7A24.23,24.23,0,0,1,27,97C27,95.7,26.37,93.09,27.58,92.28Z"/><path class="cls-224" d="M40.76,92.25c1,0,4.11-.76,3.66.94a8.78,8.78,0,0,0-3.75-.49Z"/><path class="cls-225" d="M63.16,92.26c1.27,0,3.89-.61,4.7.6,0.07,0.75.58,4.25-.42,4.17,0-1.5.14-2.86-.7-4.18a8.69,8.69,0,0,0-3,0A32.06,32.06,0,0,0,63.62,97L63.16,97A20.1,20.1,0,0,1,63.16,92.26Z"/><path class="cls-226" d="M107.59,92.26c3.76-.26,7.56,0,11.34-0.1,0,0.94.1,1.89,0.15,2.84a25.21,25.21,0,0,1-.42,4.3c-1.52-1-3.9-.55-5.62-0.46,0,0.66-.54,3.85.45,3.66a20.42,20.42,0,0,0,4.37,0l0.77-.5c0.18,0.75.32,1.5,0.45,2.25-0.58.18-1.15,0.33-1.74,0.46,0.14-.32.27-0.64,0.4-1a22.38,22.38,0,0,0-4.65,0c-0.07.49-.13,1-0.18,1.47h-0.48c0-.49-0.12-1-0.19-1.49a37.23,37.23,0,0,0-4.76-.12l-0.05-1.09a43.57,43.57,0,0,0,4.86-.11,14.11,14.11,0,0,0,0-3.63,34,34,0,0,0-4.79-.08V98.32c3.55-.39,7.2.07,10.77-0.22l0-.4c-2.13-.2-4,0.24-6-0.59v-1a27.14,27.14,0,0,0,0-3.27,36.43,36.43,0,0,0-4.77-.08Z"/><path class="cls-227" d="M119.66,92.26c4.3-.09,8.9-0.44,13.14.25,0.2,0.35.38,0.7,0.57,1.05-4.64.56-9.23-.11-13.83,0.24C119.56,93.29,119.6,92.78,119.66,92.26Z"/><path class="cls-228" d="M40.67,92.69a8.78,8.78,0,0,1,3.75.49,21.44,21.44,0,0,1-.1,3.8,11.15,11.15,0,0,1-3.6,0C39.72,96.14,40.68,93.8,40.67,92.69Z"/><path class="cls-229" d="M50.56,92.8a24.23,24.23,0,0,1,5.27,0,19.07,19.07,0,0,1,.12,2.09c-0.79-1.49-3.46-.33-4.84-0.41C51,95.33,51,96.16,51,97,50,97.09,50.56,93.58,50.56,92.8Z"/><path class="cls-230" d="M63.71,92.79a8.69,8.69,0,0,1,3,0c0.84,1.33.71,2.69,0.7,4.18a19.34,19.34,0,0,1-3.82,0A32.06,32.06,0,0,1,63.71,92.79Z"/><path class="cls-231" d="M105.46,93l0.81-.22a18,18,0,0,1,0,4.24A19.65,19.65,0,0,1,102,97a1.32,1.32,0,0,1-.72-2.27A21.29,21.29,0,0,1,105.46,93Z"/><path class="cls-232" d="M107.53,92.72a36.43,36.43,0,0,1,4.77.08,27.14,27.14,0,0,1,0,3.27c-0.31-2.41-3.81-2.33-4.89-.61A25.39,25.39,0,0,1,107.53,92.72Z"/><path class="cls-233" d="M113.59,92.8a13.53,13.53,0,0,1,4.13,0c1.06,0.59.59,2.21,0.65,3.23-0.65-2.67-2.81-1.46-4.88-1.73C113.5,93.82,113.53,93.31,113.59,92.8Z"/><path class="cls-234" d="M133.37,93.57a4.81,4.81,0,0,1,.61,4.72c-0.21-.88-0.06-2.77-1.34-2.79-4.31-.08-8.71-0.15-13,0a23.31,23.31,0,0,0-.1,2.63c0,0.74,0,1.48,0,2.22,0.27,1.65-.87,3.55,1.62,3.32l0,0.49-2.09,0c-0.13-.75-0.27-1.51-0.45-2.25a8.3,8.3,0,0,1,0-2.68,25.21,25.21,0,0,0,.42-4.3l0.45-1.18C124.14,93.46,128.73,94.13,133.37,93.57Z"/><path class="cls-235" d="M27.51,93.9a17.54,17.54,0,0,1,4.22,0,9.88,9.88,0,0,1,0,2.54,17.54,17.54,0,0,1-4.22,0A9.88,9.88,0,0,1,27.51,93.9Z"/><path class="cls-236" d="M55.95,94.9A14.57,14.57,0,0,1,55.83,97,23.86,23.86,0,0,1,51,97c0-.85,0-1.69.12-2.53C52.49,94.57,55.16,93.41,55.95,94.9Z"/><path class="cls-237" d="M112.34,96.08v1c-1.58,0-3.21,0-4.79-.14a14,14,0,0,1-.11-1.52C108.53,93.75,112,93.67,112.34,96.08Z"/><path class="cls-238" d="M113.49,94.33c2.07,0.27,4.23-.94,4.88,1.73L118.3,97a19.94,19.94,0,0,1-4.71,0A17.09,17.09,0,0,1,113.49,94.33Z"/><path class="cls-239" d="M97.77,95.62C99.34,95.34,100,95,99.71,97a18.62,18.62,0,0,1-4.31,0A11.51,11.51,0,0,1,97.77,95.62Z"/><path class="cls-240" d="M119.62,95.55c4.3-.2,8.7-0.13,13,0,1.28,0,1.13,1.91,1.34,2.79a4.54,4.54,0,0,1-1.17,1.63c0-.76.75-2.2-0.22-2.54a63.7,63.7,0,0,1-11.83.05,14.17,14.17,0,0,0-1.23.75A23.31,23.31,0,0,1,119.62,95.55Z"/><path class="cls-241" d="M120.75,97.43a63.7,63.7,0,0,0,11.83-.05c1,0.34.19,1.79,0.22,2.54a5.64,5.64,0,0,1-1.57,1.14c0-.36.09-0.71,0.13-1.07-2.44.32-4.51-.73-6.91-0.21-1.66.33-3.92-1.21-4.94,0.61,0-.74,0-1.48,0-2.22A14.17,14.17,0,0,1,120.75,97.43Z"/><path class="cls-242" d="M95,98.29c1,0,4.4-.6,4.69.5H99.31a24.61,24.61,0,0,0-3.82,0,28.48,28.48,0,0,0-.09,3.68C94.38,102.58,95,99.07,95,98.29Z"/><path class="cls-243" d="M101,98.29a13.08,13.08,0,0,1,5.44.27c-1.63.17-3.27,0.12-4.89,0.29-0.07.51-.1,1-0.12,1.55a11.79,11.79,0,0,0,.1,1.52,32.37,32.37,0,0,0,4.31.08h0.51v0.54a42.84,42.84,0,0,1-5.37-.08A16.6,16.6,0,0,1,101,98.29Z"/><path class="cls-244" d="M107.52,98.32v0.43c0,1.27-.06,2.54-0.08,3.82l-1.08,0V102c0-1.15,0-2.29.08-3.44Z"/><path class="cls-245" d="M27,98.83a20.54,20.54,0,0,1,4.71,0l0.07,0.47a30.65,30.65,0,0,0-4.2.09c-0.14.9-.2,1.83-0.27,2.74C26.64,101.22,26.87,99.88,27,98.83Z"/><path class="cls-246" d="M44.32,98.82A19.94,19.94,0,0,1,44.4,101c-0.72-2.35-1.73-1.66-3.76-1.76C40.48,98.29,43.65,98.83,44.32,98.82Z"/><path class="cls-247" d="M77.76,98.8a14.12,14.12,0,0,1,0,3.66,20.22,20.22,0,0,1-4.75,0c0-1.67-.87-3.33,1.53-3.3-0.91,1-1.28,1.33-1,2.76a14,14,0,0,0,3.68,0,9.09,9.09,0,0,0,0-2.5c-0.73-.15-1.46-0.27-2.2-0.37A6.38,6.38,0,0,1,77.76,98.8Z"/><path class="cls-248" d="M81.79,98.82a14.53,14.53,0,0,1,3.65,0,14.53,14.53,0,0,1,0,3.65,14.53,14.53,0,0,1-3.65,0A14.53,14.53,0,0,1,81.79,98.82Z"/><path class="cls-249" d="M88.91,98.82a14.53,14.53,0,0,1,3.65,0,14.53,14.53,0,0,1,0,3.65,14.53,14.53,0,0,1-3.65,0A14.53,14.53,0,0,1,88.91,98.82Z"/><path class="cls-250" d="M95.5,98.82a24.61,24.61,0,0,1,3.82,0,20.62,20.62,0,0,0-.08,3.63,14.9,14.9,0,0,1-3.83.08A28.48,28.48,0,0,1,95.5,98.82Z"/><path class="cls-251" d="M99.31,98.79h0.33c0.21,0.7.59,3.52-.41,3.63A20.62,20.62,0,0,1,99.31,98.79Z"/><path class="cls-252" d="M101.53,98.84c1.62-.16,3.26-0.12,4.89-0.29,0,1.15-.07,2.3-0.08,3.44h-0.51a26.12,26.12,0,0,0-.13-2.62c-1.71-.1-3.16-0.63-4.29,1C101.43,99.87,101.47,99.35,101.53,98.84Z"/><path class="cls-253" d="M107.51,98.76a34,34,0,0,1,4.79.08,14.11,14.11,0,0,1,0,3.63,43.57,43.57,0,0,1-4.86.11C107.45,101.3,107.46,100,107.51,98.76Z"/><path class="cls-254" d="M113,98.83c1.73-.09,4.11-0.52,5.62.46a8.3,8.3,0,0,0,0,2.68l-0.77.5a22.46,22.46,0,0,0-.08-3.1,17.22,17.22,0,0,0-4.18,0,25.74,25.74,0,0,0-.1,3.12C112.5,102.68,113,99.5,113,98.83Z"/><path class="cls-255" d="M27.56,99.38a30.65,30.65,0,0,1,4.2-.09,13,13,0,0,1,0,2.69c-1.49,0-3,.05-4.47.13C27.36,101.21,27.42,100.29,27.56,99.38Z"/><path class="cls-256" d="M40.64,99.27c2,0.11,3-.58,3.76,1.76v0.52a9.46,9.46,0,0,1-3.75.48A13.63,13.63,0,0,1,40.64,99.27Z"/><path class="cls-257" d="M51,99.35c0,0.87,0,1.7.12,2.57a20,20,0,0,0,4.72,0c0.09-.86.1-1.7,0.12-2.57,0.95-.25.43,2.55,0.44,3.11a29.73,29.73,0,0,1-5.84,0C50.56,101.9,50,99.1,51,99.35Z"/><path class="cls-258" d="M51,99.35a28.77,28.77,0,0,1,5,0c0,0.87,0,1.7-.12,2.57a20,20,0,0,1-4.72,0C51,101.05,51,100.22,51,99.35Z"/><path class="cls-259" d="M74.54,99.16L75,99.05c0.74,0.1,1.47.22,2.2,0.37a9.09,9.09,0,0,1,0,2.5,14,14,0,0,1-3.68,0C73.26,100.49,73.63,100.15,74.54,99.16Z"/><path class="cls-260" d="M82.33,99.36a10.13,10.13,0,0,1,2.58,0,10.13,10.13,0,0,1,0,2.58,10.13,10.13,0,0,1-2.58,0A10.13,10.13,0,0,1,82.33,99.36Z"/><path class="cls-261" d="M105.7,99.38a26.12,26.12,0,0,1,.13,2.62,32.37,32.37,0,0,1-4.31-.08,11.79,11.79,0,0,1-.1-1.52C102.55,98.75,104,99.28,105.7,99.38Z"/><path class="cls-261" d="M113.59,99.38a17.22,17.22,0,0,1,4.18,0,22.46,22.46,0,0,1,.08,3.1,20.42,20.42,0,0,1-4.37,0A25.74,25.74,0,0,1,113.59,99.38Z"/><path class="cls-262" d="M124.45,99.78c2.41-.53,4.47.53,6.91,0.21,0,0.36-.08.71-0.13,1.07-1.69.92-3.42,1.73-5.09,2.67-1.67,0-3.34-.07-5,0-2.49.22-1.35-1.67-1.62-3.32C120.53,98.57,122.79,100.11,124.45,99.78Z"/><path class="cls-263" d="M63.14,99.93a16.57,16.57,0,0,1,4.23,0c-0.07.46,0.43,2.27-.43,2,0.21-2.36-1.61-1.46-3.18-1.47-0.08.49-.14,1-0.19,1.47C62.7,102.2,63.2,100.39,63.14,99.93Z"/><path class="cls-264" d="M63.75,100.48c1.58,0,3.39-.89,3.18,1.47a16.55,16.55,0,0,1-3.38,0C63.61,101.45,63.68,101,63.75,100.48Z"/><path class="cls-265" d="M44.39,101.55c0.11,1.43-.6.85-1.62,1-0.48-.12-2.37.3-2.14-0.55A9.46,9.46,0,0,0,44.39,101.55Z"/><path class="cls-266" d="M27.29,102.12c1.49-.08,3-0.1,4.47-0.13l-0.07.48C30.35,102.56,28.47,102.91,27.29,102.12Z"/><path class="cls-267" d="M85.39,103.66a35.12,35.12,0,0,1-3.56,0C81.52,102.76,85.71,102.76,85.39,103.66Z"/><path class="cls-268" d="M12.31,103.83c1.43-.15,4.82-0.65,5.8.36-2,0-4,0-6,0Z"/><path class="cls-269" d="M40.72,103.75c1,0.07,4.15-.75,3.72,1a9.06,9.06,0,0,0-3.79-.5Z"/><path class="cls-270" d="M50.56,103.77a27.77,27.77,0,0,1,5.8,0l0.07,0.47H55.94a34.79,34.79,0,0,0-4.84.07,23.49,23.49,0,0,0-.08,3.17V108C50,108.09,50.55,104.55,50.56,103.77Z"/><path class="cls-271" d="M73,103.77a19.11,19.11,0,0,1,4.71,0l0.13,0.93a7.8,7.8,0,0,0-4.31-.4,11.91,11.91,0,0,0,0,3.09,31.15,31.15,0,0,0,4.23.09l-0.07.47a20.14,20.14,0,0,1-4.7,0A16.39,16.39,0,0,1,73,103.77Z"/><path class="cls-272" d="M81.83,103.66a35.12,35.12,0,0,0,3.56,0,11,11,0,0,1,.05,3.21,18.66,18.66,0,0,1-2.77,0c0.87-.46,2.52-0.19,2.29-1.56,0.42-1.7-1.61-.94-2.61-1-0.1.85-.12,1.69-0.15,2.54C81.28,107.1,81.82,104.19,81.83,103.66Z"/><path class="cls-273" d="M92.58,103.76a10.81,10.81,0,0,1,0,2.56,19.36,19.36,0,0,1-2.76,0c1.29-.6,2.54-0.08,2.23-2a25.69,25.69,0,0,0-3.18-.1C88.72,103.21,91.9,103.77,92.58,103.76Z"/><path class="cls-274" d="M94.93,103.77a20.41,20.41,0,0,1,4.77,0,9.79,9.79,0,0,1,0,2.53,20.41,20.41,0,0,1-4.77,0A9.79,9.79,0,0,1,94.93,103.77Z"/><path class="cls-275" d="M101.58,103.79a17.36,17.36,0,0,1,4.71,0,9.24,9.24,0,0,1,0,2,24.15,24.15,0,0,1-5.34,0C100.87,104.89,100.8,104.33,101.58,103.79Z"/><path class="cls-276" d="M107.48,103.66a37.23,37.23,0,0,1,4.76.12c0.07,0.49.14,1,.19,1.49l-1.72,0c0.36-.33.72-0.66,1.06-1-1.41-.09-2.83-0.08-4.26-0.09Z"/><path class="cls-277" d="M113.09,103.78a22.38,22.38,0,0,1,4.65,0c-0.13.32-.26,0.64-0.4,1a26.61,26.61,0,0,1-4.43.56C113,104.76,113,104.27,113.09,103.78Z"/><path class="cls-278" d="M121.13,103.71c1.67-.05,3.34,0,5,0-1.36.83-3.44,0.39-5,.48Z"/><path class="cls-279" d="M12.08,104.19c2,0,4,0,6,0,0.55,0.72,1,2.92.07,3.4a50.41,50.41,0,0,0-6.17,0C11.11,107.11,11.53,104.91,12.08,104.19Z"/><path class="cls-280" d="M27,104.32a24.73,24.73,0,0,1,5.29,0,13.41,13.41,0,0,1,0,3.63c-1.52.09-3.61,0.47-5-.34,1.47-.07,3-0.05,4.44-0.22a10,10,0,0,0,0-2.53,16.6,16.6,0,0,0-4.17,0c-0.14.9-.2,1.83-0.27,2.74C26.64,106.7,26.87,105.36,27,104.32Z"/><path class="cls-281" d="M40.65,104.2a9.06,9.06,0,0,1,3.79.5,20.36,20.36,0,0,1,0,2.31,9.06,9.06,0,0,1-3.79.5A16.7,16.7,0,0,1,40.65,104.2Z"/><path class="cls-282" d="M51.1,104.32a34.79,34.79,0,0,1,4.84-.07,27.44,27.44,0,0,1-.11,3.15,38,38,0,0,1-4.81.09A23.49,23.49,0,0,1,51.1,104.32Z"/><path class="cls-283" d="M55.94,104.24h0.49a16.66,16.66,0,0,1,0,3.69A29.68,29.68,0,0,1,51,108v-0.5a38,38,0,0,0,4.81-.09A27.44,27.44,0,0,0,55.94,104.24Z"/><path class="cls-284" d="M63.16,104.31a17.31,17.31,0,0,1,4.19,0,14.19,14.19,0,0,1,0,3.64,17.31,17.31,0,0,1-4.19,0A14.19,14.19,0,0,1,63.16,104.31Z"/><path class="cls-285" d="M73.56,104.3a7.8,7.8,0,0,1,4.31.4,17.43,17.43,0,0,1-.08,2.78,31.15,31.15,0,0,1-4.23-.09A11.91,11.91,0,0,1,73.56,104.3Z"/><path class="cls-286" d="M82.35,104.29c1,0.07,3-.7,2.61,1,0.23,1.38-1.41,1.1-2.29,1.56l-0.48,0C82.23,106,82.25,105.14,82.35,104.29Z"/><path class="cls-287" d="M88.86,104.22a25.69,25.69,0,0,1,3.18.1c0.31,1.93-.94,1.4-2.23,2C88.28,106.6,89,105.18,88.86,104.22Z"/><path class="cls-288" d="M95.48,104.31c1.43,0.1,4.43-1,3.69,1.45C97.73,105.65,94.73,106.78,95.48,104.31Z"/><path class="cls-289" d="M107.51,104.2c1.43,0,2.85,0,4.26.09-0.35.35-.7,0.68-1.06,1C109.69,105.09,107,106,107.51,104.2Z"/><path class="cls-290" d="M27.56,104.86a16.6,16.6,0,0,1,4.17,0,10,10,0,0,1,0,2.53c-1.47.16-3,.15-4.44,0.22C27.36,106.69,27.42,105.77,27.56,104.86Z"/><path class="cls-291" d="M63.69,104.85a12.42,12.42,0,0,1,3.12,0,10,10,0,0,1,0,2.57,11.92,11.92,0,0,1-3.12,0A10,10,0,0,1,63.69,104.85Z"/><path class="cls-292" d="M44.43,107c0,1.44-.61.88-1.66,1.06-0.48-.13-2.37.3-2.13-0.56A9.06,9.06,0,0,0,44.43,107Z"/><path class="cls-293" d="M12,107.6a50.41,50.41,0,0,1,6.17,0C17.33,108.31,12.87,108.31,12,107.6Z"/><path class="cls-294" d="M0.15,109.25a19.57,19.57,0,0,1,4.67,0l0.07,0.47c-1.61,0-3.21,0-4.81,0Z"/><path class="cls-295" d="M12.21,109.25c1.42,0,4.95-.64,5.84.44-2,0-3.94,0-5.91,0Z"/><path class="cls-296" d="M0.08,109.71c1.61,0,3.21,0,4.81,0a16.78,16.78,0,0,1,0,3.23H4.42c0-.88,0-1.74-0.12-2.61a13.82,13.82,0,0,0-3.62,0,25.82,25.82,0,0,0-.13,2.61H0.07A16.78,16.78,0,0,1,.08,109.71Z"/><path class="cls-297" d="M12.14,109.72c2,0,3.94,0,5.91,0l0.21,0.41c-1.85.15-3.72,0.07-5.57,0.25a4.6,4.6,0,0,0,.43,2.62h-1A15.61,15.61,0,0,1,12.14,109.72Z"/><path class="cls-298" d="M0.68,110.34a13.82,13.82,0,0,1,3.62,0c0.1,0.87.1,1.73,0.12,2.61q-1.94,0-3.87,0A25.82,25.82,0,0,1,.68,110.34Z"/><path class="cls-299" d="M12.7,110.35c1.85-.18,3.72-0.09,5.57-0.25a2.49,2.49,0,0,1-.15,2.89c-1.67,0-3.33,0-5,0A4.6,4.6,0,0,1,12.7,110.35Z"/><path class="cls-300" d="M0.07,112.95H0.56q1.93,0,3.87,0H4.91l-0.07.47a19.2,19.2,0,0,1-4.69,0Z"/><path class="cls-301" d="M12.15,113h1c1.66,0,3.32,0,5,0-1,1-4.42.43-5.9,0.42Z"/></svg>