<svg aria-hidden="true" style="position: absolute; width: 0; height: 0; overflow: hidden;" version="1.1" xmlns="http://www.w3.org/2000/svg" xmlns:xlink="http://www.w3.org/1999/xlink">
<defs>
<symbol id="github" viewBox="0 0 24 24">
<title>github</title>
<path d="M22.5 8.5c0-1.5-0.5-2.8-1.4-4 0.3-1.3 0.2-2.7-0.3-3.9-0.1-0.3-0.3-0.5-0.6-0.6-0.4-0.1-1.7-0.3-4.4 1.4-2.2-0.5-4.5-0.5-6.6 0-2.7-1.7-4-1.5-4.4-1.4-0.3 0.1-0.5 0.3-0.6 0.6-0.6 1.3-0.7 2.6-0.3 3.9-0.9 1.2-1.4 2.6-1.4 4 0 5.4 3 7.1 5.8 7.7-0.2 0.7-0.3 1.3-0.3 1.9v0.1c-2.1 0.4-2.8-0.4-3.6-1.5-0.5-0.7-1.1-1.5-2.2-1.7-0.5-0.1-1.1 0.2-1.2 0.7s0.2 1.1 0.7 1.2c0.3 0.1 0.7 0.5 1.1 1 0.9 1.2 2.2 2.8 5.2 2.4v1.7c0 0.6 0.4 1 1 1s1-0.4 1-1v-2.9c0 0 0-0.1 0-0.1v-0.9c0-0.7 0.2-1.3 0.7-1.8 0.3-0.3 0.4-0.7 0.2-1-0.1-0.4-0.4-0.6-0.8-0.7-2.9-0.4-5.6-1.3-5.6-6 0-1.2 0.4-2.2 1.2-3.1 0.3-0.3 0.3-0.7 0.2-1-0.3-0.9-0.3-1.7-0.1-2.5 0.5 0.1 1.4 0.4 2.6 1.3 0.3 0.2 0.6 0.2 0.9 0.1 2.1-0.6 4.4-0.6 6.5 0 0.3 0.1 0.6 0 0.8-0.1 1.3-0.9 2.2-1.2 2.6-1.3 0.2 0.8 0.2 1.6-0.1 2.4-0.1 0.4-0.1 0.8 0.2 1 0.8 0.8 1.2 1.9 1.2 3.1 0 4.7-2.7 5.7-5.6 6-0.4 0-0.7 0.3-0.8 0.7s0 0.8 0.2 1c0.5 0.5 0.7 1.2 0.7 1.9v3.9c0 0.6 0.4 1 1 1s1-0.4 1-1v-3.8c0.1-0.7 0-1.3-0.3-1.9 2.4-0.5 5.8-2.1 5.8-7.8z"></path>
</symbol>
<symbol id="linkedin" viewBox="0 0 24 24">
<title>linkedin</title>
<path d="M16 7c-3.9 0-7 3.1-7 7v7c0 0.6 0.4 1 1 1h4c0.6 0 1-0.4 1-1v-7c0-0.6 0.4-1 1-1s1 0.4 1 1v7c0 0.6 0.4 1 1 1h4c0.6 0 1-0.4 1-1v-7c0-3.9-3.1-7-7-7zM21 20h-2v-6c0-1.7-1.3-3-3-3s-3 1.3-3 3v6h-2v-6c0-2.8 2.2-5 5-5s5 2.2 5 5v6z"></path>
<path d="M6 8h-4c-0.6 0-1 0.4-1 1v12c0 0.6 0.4 1 1 1h4c0.6 0 1-0.4 1-1v-12c0-0.6-0.4-1-1-1zM5 20h-2v-10h2v10z"></path>
<path d="M4 1c-1.7 0-3 1.3-3 3s1.3 3 3 3 3-1.3 3-3-1.3-3-3-3zM4 5c-0.6 0-1-0.4-1-1s0.4-1 1-1 1 0.4 1 1-0.4 1-1 1z"></path>
</symbol>
<symbol id="personal-site" viewBox="0 0 24 24">
<title>personal site</title>
<path d="M21.1 2.8c-2.3-2.3-6-2.3-8.3 0l-1.8 1.7c-0.4 0.4-0.4 1 0 1.4s1 0.4 1.4 0l1.7-1.7c1.6-1.5 4-1.5 5.6 0s1.6 4.1 0.1 5.6l-3 3c-0.1 0.1-0.3 0.3-0.4 0.4-1.8 1.3-4.3 1-5.6-0.8-0.3-0.4-1-0.5-1.4-0.2s-0.5 1-0.2 1.4c1.2 1.6 3 2.4 4.8 2.4 1.2 0 2.5-0.4 3.6-1.2 0.2-0.2 0.4-0.4 0.7-0.6l3-3c2.3-2.3 2.2-6.2-0.2-8.4z"></path>
<path d="M11.5 18.1l-1.7 1.7c-1.6 1.5-4 1.5-5.6 0s-1.6-4.1-0.1-5.6l3-3c0.1-0.1 0.3-0.3 0.4-0.4 0.9-0.6 1.9-0.9 3-0.8 1.1 0.2 2 0.7 2.6 1.6 0.3 0.4 1 0.5 1.4 0.2s0.5-1 0.2-1.4c-1-1.3-2.4-2.1-3.9-2.3-1.5-0.3-3.1 0.1-4.4 1.1-0.2 0.2-0.4 0.4-0.6 0.6l-3 3c-2.3 2.4-2.2 6.2 0.1 8.5 1.2 1.1 2.7 1.7 4.2 1.7s3-0.6 4.2-1.7l1.7-1.7c0.4-0.4 0.4-1 0-1.4s-1.1-0.5-1.5-0.1z"></path>
</symbol>
<!-- <symbol id="dev-arrow" viewBox="0 0 49 32">
<path d="M24.803 26.408c-0.673 1.139-1.45 2.175-1.968 3.262-0.155 0.311 0.259 0.673 0.57 0.466 1.605-1.191 3.003-3.366 3.78-5.074 0.207-0.414-0.259-0.777-0.621-0.57-0.777 0.466-1.346 1.087-1.761 1.916z"></path>
<path d="M32.777 17.605c-0.777 0.88-1.346 1.761-2.019 2.744-0.259 0.311 0.207 0.673 0.57 0.466 0.777-0.725 1.502-1.45 2.123-2.123 0.673-0.828 1.553-1.45 2.019-2.485 0.207-0.57-0.311-0.932-0.828-0.673-0.673 0.518-1.191 1.295-1.864 2.071z"></path>
<path d="M38.887 12.117c0.777-0.414 1.502-0.984 2.227-1.605s1.605-1.398 2.019-2.33c0.207-0.57-0.311-0.932-0.725-0.621-0.777 0.414-1.243 1.295-1.864 2.019s-1.346 1.346-2.071 1.916c-0.518 0.207-0.104 0.88 0.414 0.621z"></path>
<path d="M37.592 5.074c2.9-1.087 5.748-2.434 8.699-2.951 0.414 2.175 0.984 4.194 0.777 6.576-0.052 1.087 1.139 0.984 1.398 0.518v0 0c0.052-0.104 0.052-0.104 0.052-0.259 1.139-2.537-0.155-5.282-0.414-7.922 0-0.621-0.518-1.036-1.139-0.984-3.521 0.311-6.887 1.657-10.201 3.159-1.036 0.414-0.466 2.33 0.828 1.864z"></path>
<path d="M3.625 30.706c-1.191 0.104-2.227 0.311-3.366 0.518-0.414 0.052-0.311 0.673 0.104 0.725 1.087 0 2.071 0 3.003-0.052 1.087-0.104 2.123 0.052 3.159-0.362 0.518-0.259 0.466-0.88-0.104-1.087-0.828 0.052-1.761 0.207-2.796 0.259z"></path>
<path d="M11.858 31.12c0.828 0.207 1.761 0.362 2.693 0.362 0.984 0.052 2.123 0.155 3.055-0.259 0.518-0.259 0.466-0.88-0.052-0.932-0.828-0.207-1.812 0.052-2.744 0.155-0.932 0.052-1.916 0.052-2.796-0.104-0.57-0.207-0.725 0.57-0.155 0.777z"></path>
</symbol> -->
<symbol id="dev-arrow" viewBox="0 0 10 32">
<path d="M6.649 28.74c0.257 1.072 0.429 2.145 0.772 3.088 0.086 0.257 0.558 0.214 0.601-0.086 0.214-1.63-0.214-3.732-0.729-5.19-0.129-0.343-0.643-0.3-0.686 0.043-0.257 0.729-0.172 1.458 0.043 2.145z"></path>
<path d="M6.134 18.96c0.086 0.987 0.257 1.845 0.429 2.788 0.043 0.343 0.558 0.257 0.601-0.086 0.043-0.901 0.043-1.716 0-2.488-0.086-0.901 0.043-1.759-0.3-2.617-0.214-0.429-0.729-0.386-0.901 0.086-0.043 0.686 0.129 1.458 0.172 2.316z"></path>
<path d="M6.52 12.139c0.172-0.686 0.3-1.458 0.343-2.231 0.043-0.815 0.129-1.759-0.172-2.531-0.214-0.429-0.729-0.386-0.772 0.043-0.172 0.686 0.043 1.501 0.086 2.273s0 1.587-0.086 2.316c-0.214 0.472 0.429 0.601 0.601 0.129z"></path>
<path d="M1.63 8.794c1.030-2.316 1.93-4.804 3.389-6.82 1.501 0.987 3.046 1.887 4.29 3.389 0.601 0.643 1.244-0.086 1.115-0.515v0 0c0-0.086 0-0.086-0.129-0.172-0.815-2.145-3.174-3.003-4.89-4.418-0.386-0.343-0.901-0.3-1.244 0.086-1.845 2.231-3.046 5.019-4.118 7.85-0.343 0.858 1.115 1.63 1.587 0.601z"></path>
</symbol>
<symbol id="who-arrow" viewBox="0 0 15 32">
<path d="M12.289 31.946c0.403 0.134 0.861-0.027 1.291-0.054s0.941-0.134 1.398-0.161c0.215-0.027 0.188-0.403-0.054-0.376-0.43 0.027-0.941 0.027-1.371 0.054-0.376 0.027-0.834-0.054-1.264 0.134-0.215 0-0.215 0.296 0 0.403z"></path>
<path d="M6.938 29.042c0.188 0.35 0.619 0.619 0.968 0.861 0.43 0.269 0.887 0.43 1.345 0.511 0.242 0.054 0.323-0.323 0.134-0.35-0.403-0.134-0.834-0.403-1.183-0.645-0.269-0.269-0.592-0.619-0.995-0.753-0.108-0.054-0.296 0.188-0.269 0.376z"></path>
<path d="M5.62 25.654c0.108 0.323 0.565 0.134 0.484-0.161-0.296-0.807-0.242-1.694-0.484-2.581-0.081-0.269-0.457-0.242-0.484 0.027-0.108 0.968 0.081 1.909 0.484 2.716z"></path>
<path d="M4.168 18.017c0.161 0.672 0.269 1.345 0.484 1.936 0.054 0.161 0.35 0.134 0.376-0.054 0.134-1.022-0.134-2.34-0.457-3.254-0.081-0.215-0.403-0.188-0.43 0.027-0.161 0.457-0.108 0.914 0.027 1.345z"></path>
<path d="M3.845 11.886c0.054 0.618 0.161 1.156 0.269 1.748 0.027 0.215 0.35 0.161 0.376-0.054 0.027-0.565 0.027-1.076 0-1.56-0.054-0.565 0.027-1.103-0.188-1.64-0.134-0.269-0.457-0.242-0.565 0.054-0.027 0.43 0.081 0.914 0.108 1.452z"></path>
<path d="M4.087 7.61c0.108-0.43 0.188-0.914 0.215-1.398 0.027-0.511 0.081-1.103-0.108-1.587-0.134-0.269-0.457-0.242-0.484 0.027-0.108 0.43 0.027 0.941 0.054 1.425s0 0.995-0.054 1.452c-0.134 0.296 0.269 0.376 0.376 0.081z"></path>
<path d="M1.022 5.513c0.645-1.452 1.21-3.012 2.124-4.276 0.941 0.619 1.909 1.183 2.689 2.124 0.376 0.403 0.78-0.054 0.699-0.323v0 0c0-0.054 0-0.054-0.081-0.108-0.511-1.345-1.99-1.882-3.066-2.77-0.242-0.215-0.565-0.188-0.78 0.054-1.156 1.398-1.909 3.146-2.582 4.921-0.215 0.538 0.699 1.022 0.995 0.376z"></path>
</symbol>
<symbol id="clients-arrow" viewBox="0 0 89 32">
<path d="M68.352 6.041c0.866 0.714 1.862 1.126 2.858 1.819 0.866 0.563 1.602 1.169 2.447 1.732 0.433 0.216 0.779-0.216 0.476-0.585-1.602-1.299-3.248-2.966-5.326-3.681-0.411-0.087-0.888 0.368-0.455 0.714z"></path>
<path d="M55.080 2.966c2.273 0.152 4.612-0.498 6.972-0.888 0.52-0.065 0.433-0.844-0.108-0.931-2.252 0.108-4.806 0-6.993 0.628-0.52 0.195-0.411 1.126 0.13 1.191z"></path>
<path d="M39.773 3.183c2.1 0.974 4.958 0.26 7.21 0.022 0.801-0.087 0.671-1.277-0.13-1.191-1.191 0.13-2.511 0.152-3.724 0.13-1.061-0.022-2.143-0.173-3.226-0.173-0.52 0.043-0.693 0.996-0.13 1.212z"></path>
<path d="M26.349 4.785c0.953 0.173 1.862-0.065 2.771-0.173s1.97-0.216 2.88-0.455c0.801-0.087 0.671-1.277-0.13-1.191-0.931 0.108-1.97 0.216-2.923 0.195-0.931 0.108-1.862 0.065-2.75 0.433-0.606 0.195-0.52 0.996 0.152 1.191z"></path>
<path d="M12.579 5.629c1.602 0.087 3.291-0.368 5.001-0.541 0.801-0.087 0.65-1.407-0.152-1.321-1.602 0.043-3.313 0.087-5.001 0.541-0.628 0.195-0.52 1.256 0.152 1.321z"></path>
<path d="M0.238 6.17c1.862 2.338 4.503 4.568 7.166 5.889 1.126 0.541 2.382-1.321 1.256-1.992-2.143-1.364-4.157-2.75-5.954-4.547 1.559-1.645 3.378-3.161 5.283-4.179 0.758-0.476 0.087-1.602-0.671-1.256-2.555 1.061-4.46 3.139-6.712 4.568-0.628 0.346-0.801 1.039-0.368 1.516z"></path>
<path d="M88.097 31.719c0.303 0.585 0.953 0.108 0.823-0.433-0.736-2.014-0.844-5.088-2.533-6.604-0.476-0.346-1.061-0.043-0.931 0.498 0.13 1.126 0.693 2.187 1.234 3.248 0.303 1.191 0.866 2.252 1.407 3.291z"></path>
<path d="M83.594 19.594c0.238 0.173 0.714-0.065 0.411-0.368-1.516-1.754-2.143-4.114-3.529-5.932-0.368-0.411-1.061-0.043-0.931 0.498 0.606 2.057 2.36 4.287 4.049 5.802z"></path>
</symbol>
<symbol id="contact-arrow" viewBox="0 0 23 32">
<path d="M9.63 1.072c-0.297-0.354-0.699-0.699-1.053-0.996-0.297-0.23-0.641 0.115-0.412 0.412 0.297 0.297 0.584 0.641 0.881 0.996s0.584 0.881 0.995 1.168c0.172 0.115 0.412-0.057 0.354-0.297-0.010-0.459-0.412-0.929-0.766-1.283z"></path>
<path d="M10.74 4.24c0-0.23-0.412-0.23-0.412 0-0.057 0.584-0.172 1.11-0.297 1.694-0.115 0.526-0.412 1.053-0.412 1.637 0 0.297 0.412 0.412 0.526 0.115 0.536-0.986 0.651-2.393 0.593-3.446z"></path>
<path d="M8.223 10.156c-0.297 0.412-0.584 0.823-0.881 1.235-0.23 0.412-0.641 0.823-0.699 1.292 0 0.23 0.23 0.297 0.412 0.23 0.412-0.172 0.584-0.699 0.766-1.053 0.297-0.469 0.526-0.995 0.823-1.465 0.105-0.297-0.249-0.479-0.421-0.239z"></path>
<path d="M5.293 14.425c-0.526 0.469-0.938 0.938-1.292 1.465s-0.823 1.292-0.699 1.934c0.057 0.297 0.354 0.354 0.526 0.115 0.297-0.412 0.354-0.995 0.526-1.465 0.23-0.699 0.641-1.35 1.11-1.934 0.124-0.048-0.057-0.23-0.172-0.115z"></path>
<path d="M1.953 20.169c-0.526 0.469-0.938 0.995-1.292 1.637s-0.766 1.465-0.641 2.163c0.057 0.23 0.412 0.23 0.469 0.057 0.354-0.526 0.354-1.235 0.584-1.819 0.23-0.641 0.641-1.292 1.11-1.876 0.124-0.105-0.057-0.335-0.23-0.163z"></path>
<path d="M1.895 29.138c-0.412-0.23-0.766-0.412-1.053-0.766-0.297-0.469-0.412-1.168-0.412-1.694 0-0.172-0.297-0.172-0.297 0-0.115 1.11 0.115 3.044 1.637 2.987 0.239-0.067 0.354-0.412 0.124-0.526z"></path>
<path d="M8.108 31.186c-0.641-0.057-1.292 0.057-1.934 0.057-0.823-0.057-1.579-0.297-2.23-0.766-0.115-0.057-0.172 0.115-0.115 0.172 1.235 0.938 2.929 1.761 4.451 1.11 0.297-0.163 0.115-0.574-0.172-0.574z"></path>
<path d="M13.085 27.204c-0.412 0.23-0.766 0.584-1.235 0.881-0.412 0.23-0.881 0.354-1.35 0.412-0.297 0.057-0.297 0.469 0 0.469 1.053 0.057 2.403-0.297 2.987-1.292 0.239-0.297-0.115-0.593-0.402-0.469z"></path>
<path d="M15.488 23.682c-0.766 0.766-1.579 1.579-2.106 2.517-0.172 0.297 0.23 0.469 0.412 0.23 0.641-0.823 1.694-1.407 2.163-2.403 0.057-0.287-0.239-0.574-0.469-0.345z"></path>
<path d="M19.882 23.739c-0.172-0.354-0.641-0.584-0.995-0.766-0.412-0.172-0.881-0.23-1.35-0.23-0.297 0-0.297 0.412 0 0.412 0.412 0 0.766 0.115 1.11 0.297 0.297 0.172 0.526 0.469 0.823 0.641 0.23 0.182 0.526-0.115 0.412-0.354z"></path>
<path d="M23.395 26.027c-0.823-1.35-1.35-2.872-2.048-4.279-0.354-0.641-1.292-0.057-0.995 0.584 0.526 1.168 0.995 2.403 1.694 3.513-0.526 0.057-1.053 0.115-1.637 0.172-0.23 0.057-0.641 0.057-0.823 0.297l-0.057 0.057c0 0-0.057 0-0.057 0.057-0.115 0.115 0 0.354 0.115 0.354v0c0.057 0.057 0.115 0.057 0.23 0.057 0.297 0.057 0.584 0 0.938 0 0.766-0.057 1.465-0.115 2.23-0.057 0.354 0.067 0.584-0.402 0.412-0.756z"></path>
</symbol>
</defs>
</svg>
