<?xml version="1.0" encoding="UTF-8"?>
<svg viewBox="0 0 392.24 477.53" xmlns="http://www.w3.org/2000/svg">
<path d="M213.33,104.46a17.07,17.07,0,0,0-17.07,0l-115.47,66H17.07A17.07,17.07,0,0,0,0,187.49v102.4A17.07,17.07,0,0,0,17.07,307H80.79l115.54,66a17.05,17.05,0,0,0,25.53-14.81V119.23a17.06,17.06,0,0,0-8.53-14.77Z"/>
<path d="M286.36,176.79a17.07,17.07,0,0,0-26.59,21.4h0a68.57,68.57,0,0,1,0,81,17.07,17.07,0,1,0,26.47,21.55l.12-.15a102,102,0,0,0,0-123.8Z"/>
<path d="M354.63,125.59A17.07,17.07,0,0,0,328,147h0a153.15,153.15,0,0,1,0,183.4,17.07,17.07,0,1,0,26.47,21.55l.12-.15a188.88,188.88,0,0,0,0-226.2Z"/>
</svg>
