<?xml version="1.0" standalone="no"?>
<!DOCTYPE svg PUBLIC "-//W3C//DTD SVG 20010904//EN"
 "http://www.w3.org/TR/2001/REC-SVG-20010904/DTD/svg10.dtd">
<svg version="1.0" xmlns="http://www.w3.org/2000/svg"
 width="760.000000pt" height="760.000000pt" viewBox="0 0 760.000000 760.000000"
 preserveAspectRatio="xMidYMid meet">
<metadata>
Created by potrace 1.11, written by Peter Selinger 2001-2013
</metadata>
<g transform="translate(0.000000,760.000000) scale(0.100000,-0.100000)"
fill="#000000" stroke="none">
<path d="M2937 5712 l-1887 -1887 1914 -1913 1915 -1913 124 125 c68 69 129
126 134 126 6 0 40 -29 75 -65 34 -36 67 -65 72 -65 5 0 28 19 51 43 77 79 61
83 191 -47 l116 -116 232 231 c127 127 333 334 458 459 l227 227 -1454 1454
c-800 800 -1454 1457 -1452 1462 1 4 656 661 1455 1460 l1452 1452 -429 429
-429 428 -23 -26 c-28 -32 -31 -32 -64 -2 l-27 25 -83 -85 c-45 -46 -86 -84
-91 -84 -5 0 -34 26 -66 57 l-58 57 -70 -69 c-39 -39 -75 -69 -80 -67 -6 1
-54 45 -107 98 l-97 96 -21 -26 c-26 -32 -32 -32 -65 -1 l-25 24 -1888 -1887z
m2093 1572 c0 0 -25 -25 -54 -55 -30 -30 -809 -808 -1730 -1729 l-1676 -1675
1720 -1720 c946 -946 1723 -1723 1727 -1727 6 -8 -134 -154 -142 -147 -27 25
-3587 3584 -3591 3590 -3 5 806 819 1797 1809 l1802 1800 73 -72 c41 -40 74
-73 74 -74z m951 -187 c172 -173 322 -323 332 -334 17 -20 -10 -48 -1439
-1476 l-1456 -1456 1458 -1456 1457 -1457 -345 -345 -346 -346 -62 60 -61 59
285 285 285 286 -1454 1454 c-800 799 -1455 1456 -1455 1459 0 3 655 660 1455
1460 l1455 1455 -282 282 -283 283 60 59 c38 38 64 56 70 51 6 -5 153 -151
326 -323z"/>
</g>
</svg>
