<svg id="a744df9c-8b85-4ce2-b15a-09616d1edc2c" data-name="Layer 1" xmlns="http://www.w3.org/2000/svg" viewBox="0 0 189.41 178.59"><defs><style>.fc83ebd4-b88f-4df5-a030-e7884009c5c4{fill:#ebe5d1;}.a429c05a-1aaa-482b-858e-a3fb93b421cd{fill:#d1ccba;}.b3d29839-7735-4c63-ba46-5d048b2fce13{fill:#252422;}</style></defs><polygon class="fc83ebd4-b88f-4df5-a030-e7884009c5c4" points="54.41 149.02 140.85 149.02 142.23 178.07 55.79 178.07 54.41 149.02"/><path class="a429c05a-1aaa-482b-858e-a3fb93b421cd" d="M85.18,153.52l-31.12-4.84.7,29.73h6.91S66.51,168,85.18,153.52Z"/><path class="fc83ebd4-b88f-4df5-a030-e7884009c5c4" d="M14,60.16s-24.95,85.67,63.62,87.13c83.68,1.39,103.73,0,103.73-75.37Z"/><path class="fc83ebd4-b88f-4df5-a030-e7884009c5c4" d="M101.93,151c-7.44,0-15.53-.11-24.37-.26-27.14-.45-46.8-8.68-58.44-24.46C10.87,115.1,6.8,99.93,7.35,82.41A102.48,102.48,0,0,1,10.68,59.2a3.46,3.46,0,0,1,3.56-2.49L181.59,68.47a3.46,3.46,0,0,1,3.22,3.45c0,35.23-4.39,53.26-15.64,64.33C156.59,148.62,136.34,151,101.93,151ZM16.65,63.82a102.52,102.52,0,0,0-2.39,19c-.33,11.07,1.21,26.9,10.44,39.4,10.3,13.93,28.12,21.21,53,21.62,47.77.79,73.32.59,86.65-12.52,9.31-9.16,13.29-25.55,13.55-56.18Z"/><line class="fc83ebd4-b88f-4df5-a030-e7884009c5c4" x1="54.93" y1="178.41" x2="54.11" y2="148.75"/><rect class="b3d29839-7735-4c63-ba46-5d048b2fce13" x="47.95" y="148.75" width="13.14" height="29.67" transform="translate(-4.5 1.57) rotate(-1.58)"/><line class="fc83ebd4-b88f-4df5-a030-e7884009c5c4" x1="141.11" y1="148.75" x2="141.93" y2="178.41"/><rect class="b3d29839-7735-4c63-ba46-5d048b2fce13" x="134.95" y="148.75" width="13.14" height="29.67" transform="translate(-4.47 3.98) rotate(-1.59)"/><path class="b3d29839-7735-4c63-ba46-5d048b2fce13" d="M116.54,156.37c-2,0-3.27-.09-3.52-.11l1.12-15.17c.26,0,28,1.71,45.35-16,11.43-11.6,16.24-29.29,14.28-52.58l15.16-1.27c2.35,28-3.94,49.73-18.71,64.64C151.78,154.55,125.91,156.37,116.54,156.37Z"/><rect class="a429c05a-1aaa-482b-858e-a3fb93b421cd" x="141.93" y="16.6" width="33.88" height="71.92" rx="11.75"/><path class="a429c05a-1aaa-482b-858e-a3fb93b421cd" d="M167.52,92H150.23a11.76,11.76,0,0,1-11.75-11.75V24.89a11.76,11.76,0,0,1,11.75-11.75h17.29a11.76,11.76,0,0,1,11.75,11.75V80.22A11.76,11.76,0,0,1,167.52,92ZM150.23,20.05a4.85,4.85,0,0,0-4.84,4.84V80.22a4.84,4.84,0,0,0,4.84,4.84h17.29a4.84,4.84,0,0,0,4.84-4.84V24.89a4.85,4.85,0,0,0-4.84-4.84Z"/><rect class="fc83ebd4-b88f-4df5-a030-e7884009c5c4" x="157.84" y="26.28" width="25.59" height="56.01" rx="8.88"/><path class="fc83ebd4-b88f-4df5-a030-e7884009c5c4" d="M175.13,85.75h-9A11.77,11.77,0,0,1,154.38,74V34.58a11.77,11.77,0,0,1,11.76-11.76h9a11.76,11.76,0,0,1,11.75,11.76V74A11.76,11.76,0,0,1,175.13,85.75Zm-9-56a4.84,4.84,0,0,0-4.84,4.84V74a4.84,4.84,0,0,0,4.84,4.84h9A4.85,4.85,0,0,0,180,74V34.58a4.85,4.85,0,0,0-4.84-4.84Z"/><path class="a429c05a-1aaa-482b-858e-a3fb93b421cd" d="M72.09,105.8s32.5-24.2,84.36-19.36L94.22,73.3Z"/><path class="a429c05a-1aaa-482b-858e-a3fb93b421cd" d="M72.09,109.26a3.47,3.47,0,0,1-2.86-5.4l22.13-32.5a3.44,3.44,0,0,1,3.57-1.44l62.24,13.14a3.46,3.46,0,0,1-1,6.82,136.56,136.56,0,0,0-59.84,7.57c-14.06,5.2-22.06,11.07-22.14,11.13A3.48,3.48,0,0,1,72.09,109.26Zm23.68-32.1L83.4,95.33a134.73,134.73,0,0,1,41.81-12Z"/><path class="b3d29839-7735-4c63-ba46-5d048b2fce13" d="M163.45,95.43H155a25.53,25.53,0,0,1-25.5-25.51V34.5A25.53,25.53,0,0,1,155,9h8.46A25.54,25.54,0,0,1,189,34.5V69.92A25.54,25.54,0,0,1,163.45,95.43ZM155,24.2A10.31,10.31,0,0,0,144.7,34.5V69.92A10.31,10.31,0,0,0,155,80.22h8.46a10.31,10.31,0,0,0,10.29-10.3V34.5a10.31,10.31,0,0,0-10.29-10.3Z"/><rect class="a429c05a-1aaa-482b-858e-a3fb93b421cd" x="102.52" y="7.61" width="33.88" height="71.92" rx="11.75"/><path class="a429c05a-1aaa-482b-858e-a3fb93b421cd" d="M128.1,83H110.81A11.76,11.76,0,0,1,99.06,71.23V15.9A11.76,11.76,0,0,1,110.81,4.15H128.1A11.77,11.77,0,0,1,139.86,15.9V71.23A11.77,11.77,0,0,1,128.1,83ZM110.81,11.06A4.86,4.86,0,0,0,106,15.9V71.23a4.85,4.85,0,0,0,4.84,4.84H128.1a4.84,4.84,0,0,0,4.84-4.84V15.9a4.85,4.85,0,0,0-4.84-4.84Z"/><rect class="fc83ebd4-b88f-4df5-a030-e7884009c5c4" x="118.42" y="17.29" width="25.59" height="56.01" rx="8.88"/><path class="fc83ebd4-b88f-4df5-a030-e7884009c5c4" d="M135.71,76.76h-9A11.77,11.77,0,0,1,115,65V25.59a11.77,11.77,0,0,1,11.76-11.76h9a11.76,11.76,0,0,1,11.75,11.76V65A11.76,11.76,0,0,1,135.71,76.76Zm-9-56a4.84,4.84,0,0,0-4.84,4.84V65a4.84,4.84,0,0,0,4.84,4.84h9A4.84,4.84,0,0,0,140.55,65V25.59a4.84,4.84,0,0,0-4.84-4.84Z"/><path class="b3d29839-7735-4c63-ba46-5d048b2fce13" d="M124,86.44h-8.45A25.53,25.53,0,0,1,90.07,60.93V25.51A25.53,25.53,0,0,1,115.58,0H124a25.53,25.53,0,0,1,25.51,25.51V60.93A25.53,25.53,0,0,1,124,86.44Zm-8.45-71.23a10.31,10.31,0,0,0-10.3,10.3V60.93a10.31,10.31,0,0,0,10.3,10.3H124a10.31,10.31,0,0,0,10.3-10.3V25.51A10.31,10.31,0,0,0,124,15.21Z"/><rect class="a429c05a-1aaa-482b-858e-a3fb93b421cd" x="63.79" y="7.61" width="33.88" height="71.92" rx="11.75"/><path class="a429c05a-1aaa-482b-858e-a3fb93b421cd" d="M89.38,83H72.09A11.77,11.77,0,0,1,60.33,71.23V15.9A11.77,11.77,0,0,1,72.09,4.15H89.38A11.76,11.76,0,0,1,101.13,15.9V71.23A11.76,11.76,0,0,1,89.38,83ZM72.09,11.06a4.85,4.85,0,0,0-4.84,4.84V71.23a4.84,4.84,0,0,0,4.84,4.84H89.38a4.84,4.84,0,0,0,4.84-4.84V15.9a4.85,4.85,0,0,0-4.84-4.84Z"/><rect class="fc83ebd4-b88f-4df5-a030-e7884009c5c4" x="79.7" y="17.29" width="25.59" height="56.01" rx="8.88"/><path class="fc83ebd4-b88f-4df5-a030-e7884009c5c4" d="M97,76.76H88A11.76,11.76,0,0,1,76.24,65V25.59A11.76,11.76,0,0,1,88,13.83h9a11.77,11.77,0,0,1,11.76,11.76V65A11.77,11.77,0,0,1,97,76.76Zm-9-56a4.85,4.85,0,0,0-4.84,4.84V65A4.85,4.85,0,0,0,88,69.84h9A4.84,4.84,0,0,0,101.82,65V25.59A4.84,4.84,0,0,0,97,20.75Z"/><path class="b3d29839-7735-4c63-ba46-5d048b2fce13" d="M85.31,86.44H76.85A25.54,25.54,0,0,1,51.34,60.93V25.51A25.54,25.54,0,0,1,76.85,0h8.46a25.53,25.53,0,0,1,25.5,25.51V60.93A25.53,25.53,0,0,1,85.31,86.44ZM76.85,15.21a10.3,10.3,0,0,0-10.29,10.3V60.93a10.3,10.3,0,0,0,10.29,10.3h8.46A10.31,10.31,0,0,0,95.6,60.93V25.51a10.31,10.31,0,0,0-10.29-10.3Z"/><rect class="a429c05a-1aaa-482b-858e-a3fb93b421cd" x="21.61" y="15.9" width="33.88" height="71.92" rx="11.75"/><path class="a429c05a-1aaa-482b-858e-a3fb93b421cd" d="M47.19,91.28H29.91A11.77,11.77,0,0,1,18.15,79.52V24.2A11.76,11.76,0,0,1,29.91,12.45H47.19A11.76,11.76,0,0,1,59,24.2V79.52A11.77,11.77,0,0,1,47.19,91.28ZM29.91,19.36a4.84,4.84,0,0,0-4.84,4.84V79.52a4.85,4.85,0,0,0,4.84,4.85H47.19A4.85,4.85,0,0,0,52,79.52V24.2a4.84,4.84,0,0,0-4.84-4.84Z"/><rect class="fc83ebd4-b88f-4df5-a030-e7884009c5c4" x="37.51" y="25.59" width="25.59" height="56.01" rx="8.88"/><path class="fc83ebd4-b88f-4df5-a030-e7884009c5c4" d="M54.8,85.06h-9A11.77,11.77,0,0,1,34.06,73.3V33.88A11.76,11.76,0,0,1,45.81,22.13h9A11.77,11.77,0,0,1,66.56,33.88V73.3A11.78,11.78,0,0,1,54.8,85.06Zm-9-56A4.85,4.85,0,0,0,41,33.88V73.3a4.84,4.84,0,0,0,4.84,4.84h9a4.84,4.84,0,0,0,4.84-4.84V33.88A4.85,4.85,0,0,0,54.8,29Z"/><path class="b3d29839-7735-4c63-ba46-5d048b2fce13" d="M43.12,94.74H34.67A25.53,25.53,0,0,1,9.16,69.23V33.8A25.53,25.53,0,0,1,34.67,8.3h8.45A25.53,25.53,0,0,1,68.63,33.8V69.23A25.53,25.53,0,0,1,43.12,94.74ZM34.67,23.51A10.31,10.31,0,0,0,24.37,33.8V69.23a10.3,10.3,0,0,0,10.3,10.29h8.45a10.3,10.3,0,0,0,10.3-10.29V33.8a10.31,10.31,0,0,0-10.3-10.29Z"/><path class="fc83ebd4-b88f-4df5-a030-e7884009c5c4" d="M84.21,66.39H12s-17.52,41.7,38,40.1S84.21,66.39,84.21,66.39Z"/><path class="fc83ebd4-b88f-4df5-a030-e7884009c5c4" d="M46.94,110c-17.89,0-30.14-4.65-36.43-13.84C1.45,83,8.5,65.77,8.81,65.05A3.46,3.46,0,0,1,12,62.93H84.21a3.45,3.45,0,0,1,3,1.79c.37.66,8.83,16.33,1.34,29.43C82.92,104.06,70,109.38,50.06,110,49,110,48,110,46.94,110ZM14.46,69.84c-1.34,4.39-3.57,14.68,1.77,22.44S32.79,103.53,49.86,103c17.3-.5,28.3-4.63,32.7-12.29s1.14-17-.53-20.91Z"/><path class="a429c05a-1aaa-482b-858e-a3fb93b421cd" d="M12.27,78.49s10,48.06,61.89,65.35c0,0-39.41-6.23-44.95-13.14C21.65,121.24,14.31,86.56,12.27,78.49Z"/><path class="a429c05a-1aaa-482b-858e-a3fb93b421cd" d="M74.17,147.29a3.48,3.48,0,0,1-.55,0c-9.55-1.51-41.2-7-47.11-14.39-6.19-7.75-11.82-29.1-16.5-49-.27-1.14-.51-2.16-.72-3s-.38-1.56-.4-1.67a3.46,3.46,0,0,1,6.74-1.55L16,79a88.9,88.9,0,0,0,10.89,24.1c11.49,18,27.78,30.62,48.42,37.5a3.45,3.45,0,0,1-1.09,6.73ZM24.68,112.14c2.29,7.11,4.79,13.34,7.23,16.4,1.28,1.59,7.26,4,16.47,6.45A97.37,97.37,0,0,1,24.68,112.14Z"/><path class="b3d29839-7735-4c63-ba46-5d048b2fce13" d="M86.2,154.89c-2.67-.14-5.89-.14-9.3-.13-10.77,0-24.18,0-35.84-4.44-42.16-16.16-43.7-61.24-39.49-75C5.06,64,14.11,52.56,26.48,52.56H82a14.7,14.7,0,0,1,11.76,6.11c5.28,6.9,6.18,17.88,4.34,24.7-6.6,24.48-30.74,29-42.58,27.94l.66-7.59.63-7.57a35,35,0,0,0,12.25-1.68c7.61-2.54,12.3-7.47,14.35-15.06,1.08-4-.37-10.14-1.83-11.64H26.48c-4.17,0-8.54,6.13-10.36,12-1.07,3.47-2,14.53,2,26.58,4.69,14.29,14.25,24.28,28.42,29.71,9,3.46,20.37,3.44,30.38,3.43,3.63,0,7.05,0,10.14.16Z"/></svg>