<svg aria-hidden="true" style="position: absolute; width: 0; height: 0; overflow: hidden;" version="1.1" xmlns="http://www.w3.org/2000/svg" xmlns:xlink="http://www.w3.org/1999/xlink">
<defs>
<symbol id="github" viewBox="0 0 24 24">
<title>github</title>
<path d="M22.5 8.5c0-1.5-0.5-2.8-1.4-4 0.3-1.3 0.2-2.7-0.3-3.9-0.1-0.3-0.3-0.5-0.6-0.6-0.4-0.1-1.7-0.3-4.4 1.4-2.2-0.5-4.5-0.5-6.6 0-2.7-1.7-4-1.5-4.4-1.4-0.3 0.1-0.5 0.3-0.6 0.6-0.6 1.3-0.7 2.6-0.3 3.9-0.9 1.2-1.4 2.6-1.4 4 0 5.4 3 7.1 5.8 7.7-0.2 0.7-0.3 1.3-0.3 1.9v0.1c-2.1 0.4-2.8-0.4-3.6-1.5-0.5-0.7-1.1-1.5-2.2-1.7-0.5-0.1-1.1 0.2-1.2 0.7s0.2 1.1 0.7 1.2c0.3 0.1 0.7 0.5 1.1 1 0.9 1.2 2.2 2.8 5.2 2.4v1.7c0 0.6 0.4 1 1 1s1-0.4 1-1v-2.9c0 0 0-0.1 0-0.1v-0.9c0-0.7 0.2-1.3 0.7-1.8 0.3-0.3 0.4-0.7 0.2-1-0.1-0.4-0.4-0.6-0.8-0.7-2.9-0.4-5.6-1.3-5.6-6 0-1.2 0.4-2.2 1.2-3.1 0.3-0.3 0.3-0.7 0.2-1-0.3-0.9-0.3-1.7-0.1-2.5 0.5 0.1 1.4 0.4 2.6 1.3 0.3 0.2 0.6 0.2 0.9 0.1 2.1-0.6 4.4-0.6 6.5 0 0.3 0.1 0.6 0 0.8-0.1 1.3-0.9 2.2-1.2 2.6-1.3 0.2 0.8 0.2 1.6-0.1 2.4-0.1 0.4-0.1 0.8 0.2 1 0.8 0.8 1.2 1.9 1.2 3.1 0 4.7-2.7 5.7-5.6 6-0.4 0-0.7 0.3-0.8 0.7s0 0.8 0.2 1c0.5 0.5 0.7 1.2 0.7 1.9v3.9c0 0.6 0.4 1 1 1s1-0.4 1-1v-3.8c0.1-0.7 0-1.3-0.3-1.9 2.4-0.5 5.8-2.1 5.8-7.8z"></path>
</symbol>
<symbol id="linkedin" viewBox="0 0 24 24">
<title>linkedin</title>
<path d="M16 7c-3.9 0-7 3.1-7 7v7c0 0.6 0.4 1 1 1h4c0.6 0 1-0.4 1-1v-7c0-0.6 0.4-1 1-1s1 0.4 1 1v7c0 0.6 0.4 1 1 1h4c0.6 0 1-0.4 1-1v-7c0-3.9-3.1-7-7-7zM21 20h-2v-6c0-1.7-1.3-3-3-3s-3 1.3-3 3v6h-2v-6c0-2.8 2.2-5 5-5s5 2.2 5 5v6z"></path>
<path d="M6 8h-4c-0.6 0-1 0.4-1 1v12c0 0.6 0.4 1 1 1h4c0.6 0 1-0.4 1-1v-12c0-0.6-0.4-1-1-1zM5 20h-2v-10h2v10z"></path>
<path d="M4 1c-1.7 0-3 1.3-3 3s1.3 3 3 3 3-1.3 3-3-1.3-3-3-3zM4 5c-0.6 0-1-0.4-1-1s0.4-1 1-1 1 0.4 1 1-0.4 1-1 1z"></path>
</symbol>
<symbol id="personal-site" viewBox="0 0 24 24">
<title>personal site</title>
<path d="M21.1 2.8c-2.3-2.3-6-2.3-8.3 0l-1.8 1.7c-0.4 0.4-0.4 1 0 1.4s1 0.4 1.4 0l1.7-1.7c1.6-1.5 4-1.5 5.6 0s1.6 4.1 0.1 5.6l-3 3c-0.1 0.1-0.3 0.3-0.4 0.4-1.8 1.3-4.3 1-5.6-0.8-0.3-0.4-1-0.5-1.4-0.2s-0.5 1-0.2 1.4c1.2 1.6 3 2.4 4.8 2.4 1.2 0 2.5-0.4 3.6-1.2 0.2-0.2 0.4-0.4 0.7-0.6l3-3c2.3-2.3 2.2-6.2-0.2-8.4z"></path>
<path d="M11.5 18.1l-1.7 1.7c-1.6 1.5-4 1.5-5.6 0s-1.6-4.1-0.1-5.6l3-3c0.1-0.1 0.3-0.3 0.4-0.4 0.9-0.6 1.9-0.9 3-0.8 1.1 0.2 2 0.7 2.6 1.6 0.3 0.4 1 0.5 1.4 0.2s0.5-1 0.2-1.4c-1-1.3-2.4-2.1-3.9-2.3-1.5-0.3-3.1 0.1-4.4 1.1-0.2 0.2-0.4 0.4-0.6 0.6l-3 3c-2.3 2.4-2.2 6.2 0.1 8.5 1.2 1.1 2.7 1.7 4.2 1.7s3-0.6 4.2-1.7l1.7-1.7c0.4-0.4 0.4-1 0-1.4s-1.1-0.5-1.5-0.1z"></path>
</symbol>
<symbol id="dev-arrow" viewBox="0 0 10 32">
<path d="M6.649 28.74c0.257 1.072 0.429 2.145 0.772 3.088 0.086 0.257 0.558 0.214 0.601-0.086 0.214-1.63-0.214-3.732-0.729-5.19-0.129-0.343-0.643-0.3-0.686 0.043-0.257 0.729-0.172 1.458 0.043 2.145z"></path>
<path d="M6.134 18.96c0.086 0.987 0.257 1.845 0.429 2.788 0.043 0.343 0.558 0.257 0.601-0.086 0.043-0.901 0.043-1.716 0-2.488-0.086-0.901 0.043-1.759-0.3-2.617-0.214-0.429-0.729-0.386-0.901 0.086-0.043 0.686 0.129 1.458 0.172 2.316z"></path>
<path d="M6.52 12.139c0.172-0.686 0.3-1.458 0.343-2.231 0.043-0.815 0.129-1.759-0.172-2.531-0.214-0.429-0.729-0.386-0.772 0.043-0.172 0.686 0.043 1.501 0.086 2.273s0 1.587-0.086 2.316c-0.214 0.472 0.429 0.601 0.601 0.129z"></path>
<path d="M1.63 8.794c1.030-2.316 1.93-4.804 3.389-6.82 1.501 0.987 3.046 1.887 4.29 3.389 0.601 0.643 1.244-0.086 1.115-0.515v0 0c0-0.086 0-0.086-0.129-0.172-0.815-2.145-3.174-3.003-4.89-4.418-0.386-0.343-0.901-0.3-1.244 0.086-1.845 2.231-3.046 5.019-4.118 7.85-0.343 0.858 1.115 1.63 1.587 0.601z"></path>
</symbol>
<symbol id="who-arrow" viewBox="0 0 15 32">
<path d="M12.289 31.946c0.403 0.134 0.861-0.027 1.291-0.054s0.941-0.134 1.398-0.161c0.215-0.027 0.188-0.403-0.054-0.376-0.43 0.027-0.941 0.027-1.371 0.054-0.376 0.027-0.834-0.054-1.264 0.134-0.215 0-0.215 0.296 0 0.403z"></path>
<path d="M6.938 29.042c0.188 0.35 0.619 0.619 0.968 0.861 0.43 0.269 0.887 0.43 1.345 0.511 0.242 0.054 0.323-0.323 0.134-0.35-0.403-0.134-0.834-0.403-1.183-0.645-0.269-0.269-0.592-0.619-0.995-0.753-0.108-0.054-0.296 0.188-0.269 0.376z"></path>
<path d="M5.62 25.654c0.108 0.323 0.565 0.134 0.484-0.161-0.296-0.807-0.242-1.694-0.484-2.581-0.081-0.269-0.457-0.242-0.484 0.027-0.108 0.968 0.081 1.909 0.484 2.716z"></path>
<path d="M4.168 18.017c0.161 0.672 0.269 1.345 0.484 1.936 0.054 0.161 0.35 0.134 0.376-0.054 0.134-1.022-0.134-2.34-0.457-3.254-0.081-0.215-0.403-0.188-0.43 0.027-0.161 0.457-0.108 0.914 0.027 1.345z"></path>
<path d="M3.845 11.886c0.054 0.618 0.161 1.156 0.269 1.748 0.027 0.215 0.35 0.161 0.376-0.054 0.027-0.565 0.027-1.076 0-1.56-0.054-0.565 0.027-1.103-0.188-1.64-0.134-0.269-0.457-0.242-0.565 0.054-0.027 0.43 0.081 0.914 0.108 1.452z"></path>
<path d="M4.087 7.61c0.108-0.43 0.188-0.914 0.215-1.398 0.027-0.511 0.081-1.103-0.108-1.587-0.134-0.269-0.457-0.242-0.484 0.027-0.108 0.43 0.027 0.941 0.054 1.425s0 0.995-0.054 1.452c-0.134 0.296 0.269 0.376 0.376 0.081z"></path>
<path d="M1.022 5.513c0.645-1.452 1.21-3.012 2.124-4.276 0.941 0.619 1.909 1.183 2.689 2.124 0.376 0.403 0.78-0.054 0.699-0.323v0 0c0-0.054 0-0.054-0.081-0.108-0.511-1.345-1.99-1.882-3.066-2.77-0.242-0.215-0.565-0.188-0.78 0.054-1.156 1.398-1.909 3.146-2.582 4.921-0.215 0.538 0.699 1.022 0.995 0.376z"></path>
</symbol>
<symbol id="clients-arrow" viewBox="0 0 89 32">
<path d="M68.352 6.041c0.866 0.714 1.862 1.126 2.858 1.819 0.866 0.563 1.602 1.169 2.447 1.732 0.433 0.216 0.779-0.216 0.476-0.585-1.602-1.299-3.248-2.966-5.326-3.681-0.411-0.087-0.888 0.368-0.455 0.714z"></path>
<path d="M55.080 2.966c2.273 0.152 4.612-0.498 6.972-0.888 0.52-0.065 0.433-0.844-0.108-0.931-2.252 0.108-4.806 0-6.993 0.628-0.52 0.195-0.411 1.126 0.13 1.191z"></path>
<path d="M39.773 3.183c2.1 0.974 4.958 0.26 7.21 0.022 0.801-0.087 0.671-1.277-0.13-1.191-1.191 0.13-2.511 0.152-3.724 0.13-1.061-0.022-2.143-0.173-3.226-0.173-0.52 0.043-0.693 0.996-0.13 1.212z"></path>
<path d="M26.349 4.785c0.953 0.173 1.862-0.065 2.771-0.173s1.97-0.216 2.88-0.455c0.801-0.087 0.671-1.277-0.13-1.191-0.931 0.108-1.97 0.216-2.923 0.195-0.931 0.108-1.862 0.065-2.75 0.433-0.606 0.195-0.52 0.996 0.152 1.191z"></path>
<path d="M12.579 5.629c1.602 0.087 3.291-0.368 5.001-0.541 0.801-0.087 0.65-1.407-0.152-1.321-1.602 0.043-3.313 0.087-5.001 0.541-0.628 0.195-0.52 1.256 0.152 1.321z"></path>
<path d="M0.238 6.17c1.862 2.338 4.503 4.568 7.166 5.889 1.126 0.541 2.382-1.321 1.256-1.992-2.143-1.364-4.157-2.75-5.954-4.547 1.559-1.645 3.378-3.161 5.283-4.179 0.758-0.476 0.087-1.602-0.671-1.256-2.555 1.061-4.46 3.139-6.712 4.568-0.628 0.346-0.801 1.039-0.368 1.516z"></path>
<path d="M88.097 31.719c0.303 0.585 0.953 0.108 0.823-0.433-0.736-2.014-0.844-5.088-2.533-6.604-0.476-0.346-1.061-0.043-0.931 0.498 0.13 1.126 0.693 2.187 1.234 3.248 0.303 1.191 0.866 2.252 1.407 3.291z"></path>
<path d="M83.594 19.594c0.238 0.173 0.714-0.065 0.411-0.368-1.516-1.754-2.143-4.114-3.529-5.932-0.368-0.411-1.061-0.043-0.931 0.498 0.606 2.057 2.36 4.287 4.049 5.802z"></path>
</symbol>
<symbol id="contact-arrow" viewBox="0 0 23 32">
<path d="M9.63 1.072c-0.297-0.354-0.699-0.699-1.053-0.996-0.297-0.23-0.641 0.115-0.412 0.412 0.297 0.297 0.584 0.641 0.881 0.996s0.584 0.881 0.995 1.168c0.172 0.115 0.412-0.057 0.354-0.297-0.010-0.459-0.412-0.929-0.766-1.283z"></path>
<path d="M10.74 4.24c0-0.23-0.412-0.23-0.412 0-0.057 0.584-0.172 1.11-0.297 1.694-0.115 0.526-0.412 1.053-0.412 1.637 0 0.297 0.412 0.412 0.526 0.115 0.536-0.986 0.651-2.393 0.593-3.446z"></path>
<path d="M8.223 10.156c-0.297 0.412-0.584 0.823-0.881 1.235-0.23 0.412-0.641 0.823-0.699 1.292 0 0.23 0.23 0.297 0.412 0.23 0.412-0.172 0.584-0.699 0.766-1.053 0.297-0.469 0.526-0.995 0.823-1.465 0.105-0.297-0.249-0.479-0.421-0.239z"></path>
<path d="M5.293 14.425c-0.526 0.469-0.938 0.938-1.292 1.465s-0.823 1.292-0.699 1.934c0.057 0.297 0.354 0.354 0.526 0.115 0.297-0.412 0.354-0.995 0.526-1.465 0.23-0.699 0.641-1.35 1.11-1.934 0.124-0.048-0.057-0.23-0.172-0.115z"></path>
<path d="M1.953 20.169c-0.526 0.469-0.938 0.995-1.292 1.637s-0.766 1.465-0.641 2.163c0.057 0.23 0.412 0.23 0.469 0.057 0.354-0.526 0.354-1.235 0.584-1.819 0.23-0.641 0.641-1.292 1.11-1.876 0.124-0.105-0.057-0.335-0.23-0.163z"></path>
<path d="M1.895 29.138c-0.412-0.23-0.766-0.412-1.053-0.766-0.297-0.469-0.412-1.168-0.412-1.694 0-0.172-0.297-0.172-0.297 0-0.115 1.11 0.115 3.044 1.637 2.987 0.239-0.067 0.354-0.412 0.124-0.526z"></path>
<path d="M8.108 31.186c-0.641-0.057-1.292 0.057-1.934 0.057-0.823-0.057-1.579-0.297-2.23-0.766-0.115-0.057-0.172 0.115-0.115 0.172 1.235 0.938 2.929 1.761 4.451 1.11 0.297-0.163 0.115-0.574-0.172-0.574z"></path>
<path d="M13.085 27.204c-0.412 0.23-0.766 0.584-1.235 0.881-0.412 0.23-0.881 0.354-1.35 0.412-0.297 0.057-0.297 0.469 0 0.469 1.053 0.057 2.403-0.297 2.987-1.292 0.239-0.297-0.115-0.593-0.402-0.469z"></path>
<path d="M15.488 23.682c-0.766 0.766-1.579 1.579-2.106 2.517-0.172 0.297 0.23 0.469 0.412 0.23 0.641-0.823 1.694-1.407 2.163-2.403 0.057-0.287-0.239-0.574-0.469-0.345z"></path>
<path d="M19.882 23.739c-0.172-0.354-0.641-0.584-0.995-0.766-0.412-0.172-0.881-0.23-1.35-0.23-0.297 0-0.297 0.412 0 0.412 0.412 0 0.766 0.115 1.11 0.297 0.297 0.172 0.526 0.469 0.823 0.641 0.23 0.182 0.526-0.115 0.412-0.354z"></path>
<path d="M23.395 26.027c-0.823-1.35-1.35-2.872-2.048-4.279-0.354-0.641-1.292-0.057-0.995 0.584 0.526 1.168 0.995 2.403 1.694 3.513-0.526 0.057-1.053 0.115-1.637 0.172-0.23 0.057-0.641 0.057-0.823 0.297l-0.057 0.057c0 0-0.057 0-0.057 0.057-0.115 0.115 0 0.354 0.115 0.354v0c0.057 0.057 0.115 0.057 0.23 0.057 0.297 0.057 0.584 0 0.938 0 0.766-0.057 1.465-0.115 2.23-0.057 0.354 0.067 0.584-0.402 0.412-0.756z"></path>
</symbol>
<symbol id="agros" viewBox="0 0 37 32">
<path fill="#b3d344" style="fill: var(--color1, #b3d344)" d="M17.919 5.926c-0.504 0.098-0.817 0.224-1.115 0.446-0.242 0.179-0.65 0.617-0.652 0.698 0 0.001 0 0.002 0 0.003 0 0.030-0.022 0.054-0.051 0.058l-0 0c-0.030 0.013-0.050 0.043-0.050 0.077 0 0.006 0.001 0.012 0.002 0.018l-0-0.001c0 0.002 0 0.004 0 0.006 0 0.045-0.019 0.086-0.049 0.115l-0 0c-0.063 0.039-0.224 0.39-0.543 1.188-0.078 0.194-0.191 0.453-0.242 0.545-0.024 0.047-0.040 0.103-0.044 0.161l-0 0.001c-0.014 0.086-0.042 0.164-0.082 0.234l0.002-0.003c-0.142 0.273-0.162 0.32-0.162 0.376-0.012 0.079-0.034 0.15-0.064 0.216l0.002-0.005c-0.036 0.084-0.103 0.242-0.148 0.347s-0.102 0.231-0.121 0.278c-0.025 0.044-0.041 0.097-0.046 0.152l-0 0.001c-0.012 0.077-0.036 0.147-0.070 0.211l0.002-0.003c-0.038 0.075-0.090 0.191-0.121 0.258-0.207 0.533-0.265 0.68-0.396 0.994-0.022 0.053-0.068 0.173-0.101 0.267s-0.087 0.235-0.121 0.315-0.097 0.242-0.144 0.364c-0.166 0.422-0.223 0.559-0.269 0.641-0.025 0.046-0.042 0.1-0.046 0.157l-0 0.001c-0.005 0.058-0.021 0.112-0.047 0.16l0.001-0.002c-0.046 0.084-0.103 0.221-0.269 0.641s-0.223 0.559-0.269 0.642c-0.025 0.044-0.041 0.097-0.046 0.152l-0 0.001c-0.012 0.077-0.036 0.147-0.070 0.211l0.002-0.003c-0.038 0.075-0.090 0.192-0.121 0.258l-0.264 0.679c-0.025 0.067-0.078 0.183-0.121 0.258-0.032 0.060-0.056 0.13-0.067 0.204l-0 0.004c-0.005 0.057-0.021 0.109-0.047 0.156l0.001-0.002c-0.056 0.101-0.113 0.242-0.4 0.982-0.025 0.067-0.078 0.183-0.121 0.258-0.032 0.060-0.056 0.13-0.067 0.204l-0 0.004c-0.005 0.057-0.021 0.109-0.047 0.156l0.001-0.002c-0.078 0.157-0.16 0.353-0.23 0.554l-0.012 0.039c-0.034 0.093-0.088 0.235-0.121 0.315s-0.097 0.242-0.144 0.364c-0.166 0.422-0.223 0.559-0.269 0.641-0.025 0.044-0.041 0.097-0.046 0.152l-0 0.001c-0.016 0.087-0.044 0.165-0.083 0.235l0.002-0.004c-0.149 0.298-0.161 0.33-0.161 0.422-0.012 0.099-0.038 0.188-0.075 0.271l0.002-0.006c-0.305 0.727 0.079 1.763 0.824 2.215 0.405 0.242 1.353 0.405 1.454 0.242 0.051-0.040 0.113-0.068 0.181-0.079l0.002-0c0.544-0.121 0.882-0.625 1.492-2.228l0.121-0.303 0.158-0.412 0.114-0.303c0.019-0.053 0.072-0.179 0.121-0.28 0.035-0.074 0.063-0.159 0.078-0.249l0.001-0.006c0.005-0.058 0.021-0.111 0.047-0.158l-0.001 0.002c0.025-0.046 0.082-0.166 0.121-0.267l0.081-0.182 6.845 0.024 0.059 0.121c0.069 0.142 0.171 0.39 0.258 0.63 0.034 0.093 0.088 0.235 0.121 0.315s0.087 0.222 0.121 0.315 0.090 0.235 0.121 0.315 0.091 0.233 0.121 0.339c0.035 0.111 0.076 0.207 0.125 0.298l-0.004-0.008c0.033 0.052 0.056 0.114 0.062 0.18l0 0.002c-0.001 0.004-0.001 0.009-0.001 0.014 0 0.033 0.020 0.061 0.049 0.071l0.001 0c0.029 0.008 0.050 0.034 0.050 0.065 0 0.004-0 0.009-0.001 0.013l0-0c0.010 0.077 0.034 0.147 0.069 0.209l-0.002-0.003c0.038 0.070 0.13 0.259 0.206 0.419 0.062 0.138 0.124 0.252 0.194 0.362l-0.007-0.012c0.027 0.033 0.114 0.145 0.194 0.251 0.555 0.727 1.922 0.757 2.641 0.055 0.199-0.194 0.438-0.517 0.438-0.591 0.003-0.047 0.023-0.089 0.052-0.121l-0 0c0.078-0.078 0.111-0.777 0.052-1.058l-0.082-0.388c-0.028-0.115-0.062-0.215-0.104-0.31l0.005 0.012c-0.030-0.060-0.053-0.129-0.067-0.202l-0.001-0.005c-0.006-0.051-0.022-0.098-0.045-0.14l0.001 0.002c-0.024-0.046-0.081-0.182-0.127-0.302s-0.121-0.294-0.154-0.388c-0.121-0.303-0.147-0.364-0.233-0.582-0.047-0.121-0.137-0.333-0.2-0.474-0.042-0.083-0.081-0.181-0.112-0.282l-0.004-0.014c-0.057-0.175-0.123-0.325-0.204-0.467l0.006 0.012c-0.024-0.045-0.040-0.097-0.045-0.152l-0-0.001c-0.012-0.077-0.035-0.147-0.070-0.211l0.002 0.003c-0.038-0.075-0.095-0.202-0.121-0.282s-0.088-0.204-0.121-0.274c-0.035-0.067-0.059-0.145-0.067-0.228l-0-0.002c0.002-0.006 0.002-0.014 0.002-0.022 0-0.033-0.016-0.062-0.040-0.080l-0-0c-0.056-0.071-0.099-0.157-0.12-0.25l-0.001-0.004c-0.047-0.139-0.121-0.32-0.151-0.4s-0.092-0.211-0.121-0.291-0.090-0.204-0.121-0.274c-0.035-0.067-0.059-0.145-0.067-0.228l-0-0.002c0.001-0.006 0.002-0.013 0.002-0.020 0-0.036-0.020-0.067-0.050-0.082l-0.001-0c-0.028-0.007-0.049-0.032-0.049-0.062 0-0.004 0-0.007 0.001-0.010l-0 0c-0.013-0.086-0.037-0.164-0.071-0.235l0.002 0.005c-0.038-0.087-0.104-0.242-0.149-0.353-0.121-0.308-0.177-0.427-0.242-0.582-0.034-0.080-0.121-0.298-0.194-0.485s-0.165-0.416-0.204-0.509c-0.107-0.257-0.142-0.344-0.234-0.582s-0.159-0.402-0.242-0.606c-0.034-0.080-0.098-0.233-0.142-0.339l-0.121-0.291c-0.022-0.053-0.099-0.25-0.172-0.436s-0.16-0.405-0.195-0.485-0.098-0.233-0.142-0.339-0.099-0.231-0.121-0.278c-0.024-0.042-0.040-0.091-0.046-0.144l-0-0.002c-0.031-0.116-0.073-0.217-0.125-0.311l0.004 0.007c-0.050-0.091-0.092-0.197-0.119-0.309l-0.002-0.009c-0.002-0.046-0.019-0.088-0.046-0.122l0 0c-0.055-0.090-0.102-0.193-0.139-0.302l-0.003-0.011c-0.183-0.54-0.366-0.98-0.572-1.407l0.032 0.074c-0.073-0.169-0.154-0.314-0.248-0.45l0.006 0.008c-0.029-0.028-0.048-0.068-0.048-0.112 0-0.003 0-0.007 0-0.010l-0 0c0.001-0.004 0.001-0.010 0.001-0.015 0-0.036-0.014-0.068-0.037-0.092l0 0c-0.087-0.082-0.166-0.169-0.239-0.263l-0.004-0.005c-0.205-0.242-0.773-0.693-0.884-0.693-0.079-0.015-0.149-0.038-0.214-0.071l0.005 0.002c-0.269-0.121-1.099-0.189-1.462-0.121zM18.566 10.388c0.018 0.087 0.042 0.162 0.072 0.234l-0.003-0.009c0.093 0.162 0.161 0.351 0.193 0.552l0.001 0.009c-0.002 0.008-0.003 0.017-0.003 0.026 0 0.040 0.020 0.074 0.051 0.094l0 0c0.029 0.011 0.050 0.038 0.050 0.071 0 0.005-0 0.010-0.001 0.015l0-0c0.011 0.084 0.037 0.159 0.074 0.228l-0.002-0.003c0.036 0.064 0.061 0.138 0.072 0.217l0 0.003c0 0.048 0.016 0.092 0.043 0.128l-0-0.001c0.055 0.104 0.103 0.224 0.139 0.35l0.003 0.013c0.121 0.364 0.196 0.599 0.279 0.8 0.033 0.080 0.087 0.233 0.121 0.339s0.091 0.263 0.121 0.347c0.031 0.066 0.054 0.143 0.065 0.224l0 0.004c0 0 0 0.001 0 0.001 0 0.041 0.019 0.079 0.048 0.103l0 0c0.030 0.029 0.049 0.069 0.049 0.114 0 0.002-0 0.005-0 0.007v-0c0.041 0.205 0.111 0.387 0.205 0.553l-0.005-0.009c0.023 0.047 0.039 0.103 0.042 0.161l0 0.001c0.010 0.077 0.033 0.147 0.067 0.21l-0.002-0.003c0.094 0.198 0.181 0.434 0.249 0.678l0.008 0.032c0.044 0.146 0.092 0.269 0.149 0.387l-0.007-0.016c0.036 0.066 0.060 0.143 0.068 0.225l0 0.002c-0 0.003-0 0.006-0 0.010 0 0.046 0.019 0.088 0.049 0.119v0c0.030 0.035 0.049 0.082 0.049 0.132 0 0.006-0 0.011-0.001 0.016l0-0.001v0.121h-4.799v-0.121c-0-0.005-0.001-0.010-0.001-0.016 0-0.051 0.019-0.097 0.049-0.132l-0 0c0.030-0.030 0.049-0.072 0.049-0.119 0-0.003-0-0.007-0-0.010l0 0c0.008-0.085 0.033-0.162 0.071-0.231l-0.002 0.003c0.054-0.116 0.106-0.255 0.147-0.399l0.005-0.020c0.030-0.128 0.072-0.24 0.125-0.346l-0.004 0.009c0.027-0.042 0.043-0.092 0.043-0.147 0-0.003-0-0.006-0-0.009v0c-0-0.004-0.001-0.009-0.001-0.014 0-0.047 0.017-0.089 0.046-0.122l-0 0c0.040-0.051 0.068-0.113 0.079-0.181l0-0.002c0.019-0.089 0.043-0.166 0.074-0.239l-0.003 0.009c0.072-0.156 0.134-0.338 0.178-0.528l0.004-0.019c0.007-0.061 0.031-0.116 0.067-0.161l-0 0.001c0.026-0.024 0.043-0.058 0.043-0.096 0-0.002-0-0.003-0-0.005v0c0.012-0.085 0.036-0.162 0.070-0.233l-0.002 0.005c0.031-0.067 0.063-0.15 0.088-0.235l0.004-0.014c0.030-0.121 0.364-1.081 0.419-1.212 0.023-0.053 0.046-0.117 0.064-0.183l0.002-0.010c0.068-0.236 0.139-0.429 0.22-0.618l-0.013 0.033c0.030-0.066 0.053-0.143 0.064-0.224l0-0.004c0-0 0-0.001 0-0.001 0-0.041 0.019-0.079 0.048-0.103l0-0c0.031-0.039 0.050-0.089 0.050-0.143 0-0.006-0-0.012-0.001-0.018l0 0.001c0.004-0.084 0.030-0.161 0.074-0.226l-0.001 0.002c0.041-0.057 0.067-0.127 0.071-0.202l0-0.001c-0-0.004-0-0.009-0-0.014 0-0.049 0.019-0.093 0.049-0.126l-0 0c0.030-0.033 0.049-0.077 0.049-0.126 0-0.004-0-0.009-0-0.013l0 0.001c0-0.287 0.252-0.223 0.319 0.081z"></path>
<path fill="#54843c" style="fill: var(--color2, #54843c)" d="M7.878 0.078c-0.037 0.045-0.062 0.102-0.067 0.164l-0 0.001c0.001 0.004 0.001 0.009 0.001 0.013 0 0.043-0.032 0.079-0.073 0.086l-0 0q-0.073 0-0.073 0.145t-0.073 0.145c-0.045 0-0.073 0.046-0.073 0.121 0.001 0.007 0.002 0.015 0.002 0.023 0 0.040-0.020 0.076-0.050 0.098l-0 0c-0.031 0.022-0.051 0.058-0.051 0.099 0 0.008 0.001 0.016 0.002 0.023l-0-0.001c0 0.075-0.028 0.121-0.073 0.121s-0.073 0.046-0.073 0.121c0.001 0.007 0.002 0.015 0.002 0.023 0 0.040-0.020 0.076-0.050 0.098l-0 0c-0.031 0.022-0.051 0.058-0.051 0.099 0 0.008 0.001 0.016 0.002 0.023l-0-0.001c0 0.075-0.028 0.121-0.073 0.121s-0.073 0.046-0.073 0.121c0.001 0.007 0.002 0.015 0.002 0.023 0 0.040-0.020 0.076-0.050 0.098l-0 0c-0.032 0.028-0.052 0.068-0.052 0.113 0 0.011 0.001 0.023 0.004 0.033l-0-0.001q0 0.145-0.073 0.145c-0.045 0-0.073 0.046-0.073 0.121s-0.028 0.121-0.073 0.121-0.073 0.046-0.073 0.121c0.001 0.007 0.002 0.015 0.002 0.023 0 0.040-0.020 0.076-0.050 0.098l-0 0c-0.031 0.022-0.051 0.058-0.051 0.099 0 0.008 0.001 0.016 0.002 0.023l-0-0.001c0 0.075-0.028 0.121-0.073 0.121s-0.073 0.046-0.073 0.121c0.001 0.007 0.002 0.015 0.002 0.023 0 0.040-0.020 0.076-0.050 0.098l-0 0c-0.031 0.022-0.051 0.058-0.051 0.099 0 0.008 0.001 0.016 0.002 0.023l-0-0.001c0 0.075-0.028 0.121-0.073 0.121s-0.073 0.048-0.073 0.145-0.024 0.145-0.073 0.145-0.073 0.046-0.073 0.121c0.001 0.007 0.002 0.015 0.002 0.023 0 0.040-0.020 0.076-0.050 0.098l-0 0c-0.031 0.022-0.051 0.058-0.051 0.099 0 0.008 0.001 0.016 0.002 0.023l-0-0.001c0 0.075-0.028 0.121-0.073 0.121s-0.073 0.046-0.073 0.121c0.001 0.007 0.002 0.015 0.002 0.023 0 0.040-0.020 0.076-0.050 0.098l-0 0c-0.032 0.019-0.052 0.054-0.052 0.093 0 0.010 0.001 0.020 0.004 0.029l-0-0.001c0 0.003 0 0.006 0 0.010 0 0.056-0.029 0.105-0.072 0.134l-0.001 0c-0.044 0.031-0.073 0.081-0.073 0.138 0 0.004 0 0.008 0 0.013l-0-0.001c0 0.076-0.028 0.121-0.073 0.121s-0.073 0.046-0.073 0.121c0.001 0.007 0.002 0.015 0.002 0.023 0 0.040-0.020 0.076-0.050 0.098l-0 0c-0.031 0.022-0.051 0.058-0.051 0.099 0 0.008 0.001 0.016 0.002 0.023l-0-0.001c0 0.075-0.028 0.121-0.073 0.121s-0.073 0.046-0.073 0.121c0.001 0.007 0.002 0.015 0.002 0.023 0 0.040-0.020 0.076-0.050 0.098l-0 0c-0.031 0.022-0.051 0.058-0.051 0.099 0 0.008 0.001 0.016 0.002 0.023l-0-0.001c0 0.075-0.028 0.121-0.073 0.121-0.044 0.009-0.077 0.047-0.077 0.093 0 0.010 0.002 0.020 0.005 0.029l-0-0.001c0 0.003 0 0.006 0 0.010 0 0.056-0.029 0.105-0.072 0.134l-0.001 0c-0.044 0.031-0.073 0.081-0.073 0.138 0 0.004 0 0.008 0 0.013l-0-0.001c0.001 0.007 0.002 0.015 0.002 0.023 0 0.040-0.020 0.076-0.050 0.098l-0 0c-0.031 0.022-0.051 0.058-0.051 0.099 0 0.008 0.001 0.016 0.002 0.023l-0-0.001c0 0.075-0.028 0.121-0.073 0.121s-0.073 0.046-0.073 0.121c0.001 0.007 0.002 0.015 0.002 0.023 0 0.040-0.020 0.076-0.050 0.098l-0 0c-0.031 0.022-0.051 0.058-0.051 0.099 0 0.008 0.001 0.016 0.002 0.023l-0-0.001c0 0.075-0.028 0.121-0.073 0.121s-0.073 0.046-0.073 0.121c0.001 0.007 0.002 0.015 0.002 0.023 0 0.040-0.020 0.076-0.050 0.098l-0 0c-0.032 0.027-0.052 0.068-0.052 0.113 0 0.011 0.001 0.023 0.004 0.033l-0-0.001q0 0.145-0.073 0.145c-0.045 0-0.073 0.046-0.073 0.121s-0.028 0.121-0.073 0.121-0.073 0.046-0.073 0.121c0.001 0.007 0.002 0.015 0.002 0.023 0 0.040-0.020 0.076-0.050 0.098l-0 0c-0.031 0.022-0.051 0.058-0.051 0.099 0 0.008 0.001 0.016 0.002 0.023l-0-0.001c0 0.075-0.028 0.121-0.073 0.121s-0.073 0.046-0.073 0.121c0.001 0.007 0.002 0.015 0.002 0.023 0 0.040-0.020 0.076-0.050 0.098l-0 0c-0.031 0.022-0.051 0.058-0.051 0.099 0 0.008 0.001 0.016 0.002 0.023l-0-0.001c0 0.075-0.028 0.121-0.073 0.121s-0.073 0.048-0.073 0.145-0.024 0.145-0.073 0.145-0.073 0.046-0.073 0.121c0.001 0.007 0.002 0.015 0.002 0.023 0 0.040-0.020 0.076-0.050 0.098l-0 0c-0.031 0.022-0.051 0.058-0.051 0.099 0 0.008 0.001 0.016 0.002 0.023l-0-0.001c0 0.075-0.028 0.121-0.073 0.121s-0.073 0.046-0.073 0.121c0.001 0.007 0.002 0.015 0.002 0.023 0 0.040-0.020 0.076-0.050 0.098l-0 0c-0.031 0.022-0.051 0.058-0.051 0.099 0 0.008 0.001 0.016 0.002 0.023l-0-0.001c0 0.075-0.028 0.121-0.073 0.121-0.044 0.009-0.077 0.047-0.077 0.093 0 0.010 0.002 0.020 0.005 0.029l-0-0.001c0 0.003 0 0.006 0 0.010 0 0.056-0.029 0.105-0.072 0.134l-0.001 0c-0.044 0.031-0.073 0.081-0.073 0.138 0 0.004 0 0.008 0 0.013l-0-0.001c0.001 0.007 0.002 0.015 0.002 0.023 0 0.040-0.020 0.076-0.050 0.098l-0 0c-0.031 0.022-0.051 0.058-0.051 0.099 0 0.008 0.001 0.016 0.002 0.023l-0-0.001c0 0.075-0.028 0.121-0.073 0.121s-0.073 0.046-0.073 0.121c0.001 0.007 0.002 0.015 0.002 0.023 0 0.040-0.020 0.076-0.050 0.098l-0 0c-0.031 0.022-0.051 0.058-0.051 0.099 0 0.008 0.001 0.016 0.002 0.023l-0-0.001c0 0.075-0.028 0.121-0.073 0.121-0.044 0.009-0.077 0.047-0.077 0.093 0 0.010 0.002 0.020 0.005 0.029l-0-0.001c0 0.003 0 0.006 0 0.010 0 0.056-0.029 0.105-0.072 0.134l-0.001 0c-0.044 0.031-0.073 0.081-0.073 0.138 0 0.004 0 0.008 0 0.013l-0-0.001c0.001 0.007 0.002 0.015 0.002 0.023 0 0.040-0.020 0.076-0.050 0.098l-0 0c-0.031 0.022-0.051 0.058-0.051 0.099 0 0.008 0.001 0.016 0.002 0.023l-0-0.001c0 0.075-0.028 0.121-0.073 0.121s-0.073 0.046-0.073 0.121c0.001 0.007 0.002 0.015 0.002 0.023 0 0.040-0.020 0.076-0.050 0.098l-0 0c-0.031 0.022-0.051 0.058-0.051 0.099 0 0.008 0.001 0.016 0.002 0.023l-0-0.001c0 0.075-0.028 0.121-0.073 0.121s-0.073 0.046-0.073 0.121c0.001 0.007 0.002 0.015 0.002 0.023 0 0.040-0.020 0.076-0.050 0.098l-0 0c-0.031 0.022-0.051 0.058-0.051 0.099 0 0.008 0.001 0.016 0.002 0.023l-0-0.001c0 0.075-0.028 0.121-0.073 0.121s-0.073 0.048-0.073 0.145-0.024 0.145-0.073 0.145-0.073 0.046-0.073 0.121c0.001 0.007 0.002 0.015 0.002 0.023 0 0.040-0.020 0.076-0.050 0.098l-0 0c-0.031 0.022-0.051 0.058-0.051 0.099 0 0.008 0.001 0.016 0.002 0.023l-0-0.001c0 0.075-0.028 0.121-0.073 0.121s-0.073 0.046-0.073 0.121c0.001 0.007 0.002 0.015 0.002 0.023 0 0.040-0.020 0.076-0.050 0.098l-0 0c-0.031 0.022-0.051 0.058-0.051 0.099 0 0.008 0.001 0.016 0.002 0.023l-0-0.001c0 0.075-0.028 0.121-0.073 0.121-0.044 0.009-0.077 0.047-0.077 0.093 0 0.010 0.002 0.020 0.005 0.029l-0-0.001c0 0.003 0 0.006 0 0.010 0 0.056-0.029 0.105-0.072 0.134l-0.001 0c-0.044 0.031-0.073 0.081-0.073 0.138 0 0.004 0 0.008 0 0.013l-0-0.001c0.001 0.007 0.002 0.015 0.002 0.023 0 0.040-0.020 0.076-0.050 0.098l-0 0c-0.031 0.022-0.051 0.058-0.051 0.099 0 0.008 0.001 0.016 0.002 0.023l-0-0.001c0 0.075-0.028 0.121-0.073 0.121s-0.073 0.046-0.073 0.121c0.001 0.007 0.002 0.015 0.002 0.023 0 0.040-0.020 0.076-0.050 0.098l-0 0c-0.031 0.022-0.051 0.058-0.051 0.099 0 0.008 0.001 0.016 0.002 0.023l-0-0.001c0 0.075-0.028 0.121-0.073 0.121-0.105 0-0.105 0.669 0 0.709 0.044 0.029 0.073 0.078 0.073 0.134 0 0.003-0 0.007-0 0.010l0-0c-0.002 0.008-0.004 0.018-0.004 0.028 0 0.039 0.021 0.074 0.052 0.093l0 0c0.030 0.013 0.050 0.041 0.050 0.075 0 0.006-0.001 0.011-0.002 0.016l0-0.001c0.004 0.060 0.031 0.113 0.073 0.151l0 0c0.036 0.027 0.062 0.066 0.072 0.11l0 0.001c0 0.086 0.162 0.423 0.204 0.423 0.025 0.017 0.041 0.046 0.041 0.078 0 0.007-0.001 0.014-0.002 0.021l0-0.001c0.001 0.052 0.030 0.097 0.072 0.121l0.001 0c0.044 0.029 0.073 0.078 0.073 0.134 0 0.003-0 0.007-0 0.010l0-0c-0.002 0.008-0.004 0.018-0.004 0.028 0 0.039 0.021 0.074 0.052 0.093l0 0c0.030 0.015 0.050 0.045 0.050 0.080 0 0.006-0.001 0.013-0.002 0.019l0-0.001c0.001 0.052 0.030 0.097 0.072 0.121l0.001 0c0.043 0.022 0.073 0.066 0.073 0.117 0 0.001-0 0.003-0 0.004v-0c0.032 0.165 0.105 0.31 0.207 0.428l-0.001-0.001c0.023 0.025 0.037 0.058 0.037 0.095 0 0.005-0 0.011-0.001 0.016l0-0.001c0 0 0 0 0 0 0 0.052 0.029 0.097 0.072 0.121l0.001 0c0.044 0.029 0.073 0.078 0.073 0.134 0 0.003-0 0.007-0 0.010l0-0c-0.002 0.008-0.004 0.018-0.004 0.028 0 0.039 0.021 0.074 0.052 0.093l0 0c0.030 0.015 0.050 0.045 0.050 0.080 0 0.006-0.001 0.013-0.002 0.019l0-0.001c0.001 0.052 0.030 0.097 0.072 0.121l0.001 0c0.041 0.018 0.070 0.057 0.073 0.103l0 0c0 0.105 0.155 0.447 0.204 0.447 0.023 0.005 0.039 0.026 0.039 0.050 0 0.003-0 0.005-0.001 0.008l0-0c0 0.091 0.16 0.428 0.204 0.428 0.025 0.017 0.041 0.046 0.041 0.078 0 0.007-0.001 0.014-0.002 0.021l0-0.001c0.001 0.052 0.030 0.097 0.072 0.121l0.001 0c0.044 0.029 0.073 0.078 0.073 0.134 0 0.003-0 0.007-0 0.010l0-0c-0.002 0.008-0.004 0.018-0.004 0.028 0 0.039 0.021 0.074 0.052 0.093l0 0c0.030 0.013 0.050 0.041 0.050 0.075 0 0.006-0.001 0.011-0.002 0.016l0-0.001c0.004 0.060 0.031 0.113 0.073 0.151l0 0c0.036 0.027 0.062 0.066 0.072 0.11l0 0.001c0 0.086 0.162 0.423 0.204 0.423 0.025 0.017 0.041 0.046 0.041 0.078 0 0.007-0.001 0.014-0.002 0.021l0-0.001c0.001 0.052 0.030 0.097 0.072 0.121l0.001 0c0.044 0.028 0.073 0.076 0.073 0.132 0 0.003-0 0.006-0 0.008l0-0c-0.001 0.006-0.001 0.014-0.001 0.021 0 0.041 0.014 0.078 0.038 0.108l-0-0c0.034 0.015 0.087 0.121 0.297 0.573 0.028 0.072 0.067 0.133 0.116 0.186l-0-0c0.023 0.025 0.037 0.058 0.037 0.095 0 0.005-0 0.011-0.001 0.016l0-0.001c0 0 0 0 0 0 0 0.052 0.029 0.097 0.072 0.121l0.001 0c0.044 0.029 0.073 0.078 0.073 0.134 0 0.003-0 0.007-0 0.010l0-0c-0.002 0.008-0.004 0.018-0.004 0.028 0 0.039 0.021 0.074 0.052 0.093l0 0c0.030 0.015 0.050 0.045 0.050 0.080 0 0.006-0.001 0.013-0.002 0.019l0-0.001c0.001 0.052 0.030 0.097 0.072 0.121l0.001 0c0.043 0.022 0.073 0.066 0.073 0.117 0 0.001-0 0.003-0 0.004v-0c0.032 0.165 0.105 0.31 0.207 0.428l-0.001-0.001c0.023 0.025 0.037 0.058 0.037 0.095 0 0.005-0 0.011-0.001 0.016l0-0.001c0 0 0 0 0 0 0 0.052 0.029 0.097 0.072 0.121l0.001 0c0.044 0.029 0.073 0.078 0.073 0.134 0 0.003-0 0.007-0 0.010l0-0c-0.002 0.008-0.004 0.018-0.004 0.028 0 0.039 0.021 0.074 0.052 0.093l0 0c0.030 0.015 0.050 0.045 0.050 0.080 0 0.006-0.001 0.013-0.002 0.019l0-0.001c0.001 0.052 0.030 0.097 0.072 0.121l0.001 0c0.044 0.029 0.073 0.078 0.073 0.134 0 0.003-0 0.007-0 0.010l0-0c-0.002 0.008-0.004 0.018-0.004 0.028 0 0.039 0.021 0.074 0.052 0.093l0 0c0.030 0.013 0.050 0.043 0.050 0.077 0 0.006-0.001 0.012-0.002 0.017l0-0.001c0.005 0.065 0.032 0.122 0.073 0.166l-0-0c0.033 0.028 0.058 0.065 0.072 0.106l0.001 0.002c0 0.075 0.166 0.407 0.204 0.407 0.025 0.017 0.041 0.046 0.041 0.078 0 0.007-0.001 0.014-0.002 0.021l0-0.001c0.001 0.052 0.030 0.097 0.072 0.121l0.001 0c0.044 0.028 0.073 0.076 0.073 0.132 0 0.003-0 0.006-0 0.008l0-0c-0.001 0.006-0.001 0.014-0.001 0.021 0 0.041 0.014 0.078 0.038 0.108l-0-0c0.050 0.056 0.091 0.121 0.12 0.193l0.002 0.004 0.17 0.364c0.030 0.076 0.071 0.142 0.122 0.198l-0.001-0.001c0.023 0.025 0.037 0.058 0.037 0.095 0 0.005-0 0.011-0.001 0.016l0-0.001c0 0 0 0 0 0 0 0.052 0.029 0.097 0.072 0.121l0.001 0c0.044 0.029 0.073 0.078 0.073 0.134 0 0.003-0 0.007-0 0.010l0-0c-0.002 0.009-0.004 0.019-0.004 0.029 0 0.038 0.019 0.072 0.047 0.092l0 0c0.041 0.026 0.069 0.070 0.074 0.121l0 0.001c0.005 0.052 0.034 0.096 0.077 0.121l0.001 0c0.029 0.015 0.049 0.045 0.049 0.079 0 0.007-0.001 0.013-0.002 0.019l0-0.001c0.022 0.11 0.064 0.207 0.123 0.292l-0.002-0.003c0.054 0.076 0.096 0.165 0.12 0.261l0.001 0.006c0.003 0.046 0.032 0.085 0.072 0.103l0.001 0c0.044 0.029 0.073 0.078 0.073 0.134 0 0.003-0 0.007-0 0.010l0-0c-0.002 0.008-0.004 0.018-0.004 0.028 0 0.039 0.021 0.074 0.052 0.093l0 0c0.030 0.015 0.050 0.045 0.050 0.080 0 0.006-0.001 0.013-0.002 0.019l0-0.001c0.001 0.052 0.030 0.097 0.072 0.121l0.001 0c0.043 0.022 0.073 0.066 0.073 0.117 0 0.001-0 0.003-0 0.004v-0c0.032 0.165 0.105 0.31 0.207 0.428l-0.001-0.001c0.023 0.025 0.037 0.058 0.037 0.095 0 0.005-0 0.011-0.001 0.016l0-0.001c0 0 0 0 0 0 0 0.052 0.029 0.097 0.072 0.121l0.001 0c0.044 0.029 0.073 0.078 0.073 0.134 0 0.003-0 0.007-0 0.010l0-0c-0.002 0.008-0.004 0.018-0.004 0.028 0 0.039 0.021 0.074 0.052 0.093l0 0c0.030 0.015 0.050 0.045 0.050 0.080 0 0.006-0.001 0.013-0.002 0.019l0-0.001c0.001 0.052 0.030 0.097 0.072 0.121l0.001 0c0.044 0.028 0.073 0.076 0.073 0.132 0 0.003-0 0.006-0 0.008l0-0c-0.001 0.006-0.001 0.014-0.001 0.021 0 0.041 0.014 0.078 0.038 0.108l-0-0c0.039 0.017 0.142 0.222 0.284 0.561 0.023 0.081 0.065 0.15 0.121 0.206v0c0.025 0.017 0.041 0.046 0.041 0.078 0 0.007-0.001 0.014-0.002 0.021l0-0.001c0.001 0.052 0.030 0.097 0.072 0.121l0.001 0c0.044 0.027 0.073 0.075 0.073 0.13 0 0.003-0 0.006-0 0.008l0-0c0 0.173-0.324 0.168 10.786 0.17 11.075 0 10.687 0.008 10.687-0.202-0.001-0.004-0.001-0.010-0.001-0.015 0-0.033 0.020-0.061 0.049-0.072l0.001-0c0.031-0.022 0.051-0.058 0.051-0.099 0-0.008-0.001-0.016-0.002-0.023l0 0.001c0-0.075 0.028-0.121 0.073-0.121s0.073-0.046 0.073-0.121c-0.001-0.007-0.002-0.015-0.002-0.023 0-0.040 0.020-0.076 0.050-0.098l0-0c0.031-0.022 0.051-0.058 0.051-0.099 0-0.008-0.001-0.016-0.002-0.023l0 0.001c0-0.075 0.028-0.121 0.073-0.121s0.073-0.046 0.073-0.121c-0.001-0.007-0.002-0.015-0.002-0.023 0-0.040 0.020-0.076 0.050-0.098l0-0c0.032-0.020 0.052-0.054 0.052-0.093 0-0.010-0.001-0.020-0.004-0.029l0 0.001c-0-0.003-0-0.006-0-0.010 0-0.056 0.029-0.105 0.072-0.134l0.001-0c0.044-0.031 0.073-0.081 0.073-0.138 0-0.004-0-0.008-0-0.013l0 0.001c0-0.076 0.028-0.121 0.073-0.121s0.073-0.046 0.073-0.121c-0.001-0.007-0.002-0.015-0.002-0.023 0-0.040 0.020-0.076 0.050-0.098l0-0c0.031-0.022 0.051-0.058 0.051-0.099 0-0.008-0.001-0.016-0.002-0.023l0 0.001c0-0.075 0.028-0.121 0.073-0.121s0.073-0.046 0.073-0.121c-0.001-0.007-0.002-0.015-0.002-0.023 0-0.040 0.020-0.076 0.050-0.098l0-0c0.032-0.020 0.052-0.054 0.052-0.093 0-0.010-0.001-0.020-0.004-0.029l0 0.001c-0-0.003-0-0.006-0-0.010 0-0.056 0.029-0.105 0.072-0.134l0.001-0c0.044-0.031 0.073-0.081 0.073-0.138 0-0.004-0-0.008-0-0.013l0 0.001c0-0.076 0.028-0.121 0.073-0.121s0.073-0.046 0.073-0.121c-0.001-0.007-0.002-0.015-0.002-0.023 0-0.040 0.020-0.076 0.050-0.098l0-0c0.031-0.022 0.051-0.058 0.051-0.099 0-0.008-0.001-0.016-0.002-0.023l0 0.001c0-0.075 0.028-0.121 0.073-0.121s0.073-0.046 0.073-0.121c-0.001-0.007-0.002-0.015-0.002-0.023 0-0.040 0.020-0.076 0.050-0.098l0-0c0.031-0.022 0.051-0.058 0.051-0.099 0-0.008-0.001-0.016-0.002-0.023l0 0.001c0-0.075 0.028-0.121 0.073-0.121 0.044-0.009 0.077-0.047 0.077-0.093 0-0.010-0.002-0.020-0.005-0.029l0 0.001c-0-0.003-0-0.006-0-0.010 0-0.056 0.029-0.105 0.072-0.134l0.001-0c0.044-0.031 0.073-0.081 0.073-0.138 0-0.004-0-0.008-0-0.013l0 0.001c-0.001-0.007-0.002-0.015-0.002-0.023 0-0.040 0.020-0.076 0.050-0.098l0-0c0.031-0.022 0.051-0.058 0.051-0.099 0-0.008-0.001-0.016-0.002-0.023l0 0.001c0-0.075 0.028-0.121 0.073-0.121s0.073-0.046 0.073-0.121c-0.001-0.007-0.002-0.015-0.002-0.023 0-0.040 0.020-0.076 0.050-0.098l0-0c0.031-0.022 0.051-0.058 0.051-0.099 0-0.008-0.001-0.016-0.002-0.023l0 0.001c0-0.075 0.028-0.121 0.073-0.121s0.073-0.046 0.073-0.121c-0.001-0.007-0.002-0.015-0.002-0.023 0-0.040 0.020-0.076 0.050-0.098l0-0c0.032-0.020 0.052-0.054 0.052-0.093 0-0.010-0.001-0.020-0.004-0.029l0 0.001c-0-0.003-0-0.006-0-0.010 0-0.056 0.029-0.105 0.072-0.134l0.001-0c0.044-0.031 0.073-0.081 0.073-0.138 0-0.004-0-0.008-0-0.013l0 0.001c0-0.076 0.028-0.121 0.073-0.121s0.073-0.046 0.073-0.121c-0.001-0.007-0.002-0.015-0.002-0.023 0-0.040 0.020-0.076 0.050-0.098l0-0c0.031-0.022 0.051-0.058 0.051-0.099 0-0.008-0.001-0.016-0.002-0.023l0 0.001c0-0.075 0.028-0.121 0.073-0.121s0.073-0.046 0.073-0.121c-0.001-0.007-0.002-0.015-0.002-0.023 0-0.040 0.020-0.076 0.050-0.098l0-0c0.032-0.020 0.052-0.054 0.052-0.093 0-0.010-0.001-0.020-0.004-0.029l0 0.001c-0-0.003-0-0.006-0-0.010 0-0.056 0.029-0.105 0.072-0.134l0.001-0c0.044-0.031 0.073-0.081 0.073-0.138 0-0.004-0-0.008-0-0.013l0 0.001c0-0.076 0.028-0.121 0.073-0.121s0.073-0.046 0.073-0.121c-0.001-0.007-0.002-0.015-0.002-0.023 0-0.040 0.020-0.076 0.050-0.098l0-0c0.031-0.022 0.051-0.058 0.051-0.099 0-0.008-0.001-0.016-0.002-0.023l0 0.001c0-0.075 0.028-0.121 0.073-0.121s0.073-0.046 0.073-0.121c-0.001-0.007-0.002-0.015-0.002-0.023 0-0.040 0.020-0.076 0.050-0.098l0-0c0.031-0.022 0.051-0.058 0.051-0.099 0-0.008-0.001-0.016-0.002-0.023l0 0.001c0-0.075 0.028-0.121 0.073-0.121 0.044-0.009 0.077-0.047 0.077-0.093 0-0.010-0.002-0.020-0.005-0.029l0 0.001c-0-0.003-0-0.006-0-0.010 0-0.056 0.029-0.105 0.072-0.134l0.001-0c0.044-0.031 0.073-0.081 0.073-0.138 0-0.004-0-0.008-0-0.013l0 0.001c-0.001-0.007-0.002-0.015-0.002-0.023 0-0.040 0.020-0.076 0.050-0.098l0-0c0.031-0.022 0.051-0.058 0.051-0.099 0-0.008-0.001-0.016-0.002-0.023l0 0.001c0-0.075 0.028-0.121 0.073-0.121s0.073-0.046 0.073-0.121c-0.001-0.007-0.002-0.015-0.002-0.023 0-0.040 0.020-0.076 0.050-0.098l0-0c0.031-0.022 0.051-0.058 0.051-0.099 0-0.008-0.001-0.016-0.002-0.023l0 0.001c0-0.075 0.028-0.121 0.073-0.121 0.044-0.009 0.077-0.047 0.077-0.093 0-0.010-0.002-0.020-0.005-0.029l0 0.001c-0-0.003-0-0.006-0-0.010 0-0.056 0.029-0.105 0.072-0.134l0.001-0c0.044-0.031 0.073-0.081 0.073-0.138 0-0.004-0-0.008-0-0.013l0 0.001c-0.001-0.007-0.002-0.015-0.002-0.023 0-0.040 0.020-0.076 0.050-0.098l0-0c0.031-0.022 0.051-0.058 0.051-0.099 0-0.008-0.001-0.016-0.002-0.023l0 0.001c0-0.075 0.028-0.121 0.073-0.121s0.073-0.046 0.073-0.121c-0.001-0.007-0.002-0.015-0.002-0.023 0-0.040 0.020-0.076 0.050-0.098l0-0c0.031-0.022 0.051-0.058 0.051-0.099 0-0.008-0.001-0.016-0.002-0.023l0 0.001c0-0.075 0.028-0.121 0.073-0.121s0.073-0.046 0.073-0.121c-0.001-0.007-0.002-0.015-0.002-0.023 0-0.040 0.020-0.076 0.050-0.098l0-0c0.032-0.020 0.052-0.054 0.052-0.093 0-0.010-0.001-0.020-0.004-0.029l0 0.001c-0-0.003-0-0.006-0-0.010 0-0.056 0.029-0.105 0.072-0.134l0.001-0c0.044-0.031 0.073-0.081 0.073-0.138 0-0.004-0-0.008-0-0.013l0 0.001c0-0.076 0.027-0.121 0.073-0.121s0.073-0.046 0.073-0.121c-0.001-0.007-0.002-0.015-0.002-0.023 0-0.040 0.020-0.076 0.050-0.098l0-0c0.031-0.022 0.051-0.058 0.051-0.099 0-0.008-0.001-0.016-0.002-0.023l0 0.001c0-0.075 0.028-0.121 0.073-0.121s0.073-0.046 0.073-0.121c-0.001-0.007-0.002-0.015-0.002-0.023 0-0.040 0.020-0.076 0.050-0.098l0-0c0.031-0.022 0.051-0.058 0.051-0.099 0-0.008-0.001-0.016-0.002-0.023l0 0.001c0-0.075 0.028-0.121 0.073-0.121 0.044-0.009 0.077-0.047 0.077-0.093 0-0.010-0.002-0.020-0.005-0.029l0 0.001c-0-0.003-0-0.006-0-0.010 0-0.056 0.029-0.105 0.072-0.134l0.001-0c0.044-0.031 0.073-0.081 0.073-0.138 0-0.004-0-0.008-0-0.013l0 0.001c-0.001-0.007-0.002-0.015-0.002-0.023 0-0.040 0.020-0.076 0.050-0.098l0-0c0.031-0.022 0.051-0.058 0.051-0.099 0-0.008-0.001-0.016-0.002-0.023l0 0.001c0-0.075 0.028-0.121 0.073-0.121s0.073-0.046 0.073-0.121c-0.001-0.007-0.002-0.015-0.002-0.023 0-0.040 0.020-0.076 0.050-0.098l0-0c0.031-0.022 0.051-0.058 0.051-0.099 0-0.008-0.001-0.016-0.002-0.023l0 0.001c0-0.075 0.028-0.121 0.073-0.121 0.044-0.009 0.077-0.047 0.077-0.093 0-0.010-0.002-0.020-0.005-0.029l0 0.001c-0-0.003-0-0.006-0-0.010 0-0.056 0.029-0.105 0.072-0.134l0.001-0c0.044-0.031 0.073-0.081 0.073-0.138 0-0.004-0-0.008-0-0.013l0 0.001c-0.001-0.007-0.002-0.015-0.002-0.023 0-0.040 0.020-0.076 0.050-0.098l0-0c0.031-0.022 0.051-0.058 0.051-0.099 0-0.008-0.001-0.016-0.002-0.023l0 0.001c0-0.075 0.028-0.121 0.073-0.121s0.073-0.046 0.073-0.121c-0.001-0.007-0.002-0.015-0.002-0.023 0-0.040 0.020-0.076 0.050-0.098l0-0c0.031-0.022 0.051-0.058 0.051-0.099 0-0.008-0.001-0.016-0.002-0.023l0 0.001c0-0.075 0.028-0.121 0.073-0.121 0.044-0.009 0.077-0.047 0.077-0.093 0-0.010-0.002-0.020-0.005-0.029l0 0.001c-0-0.003-0-0.006-0-0.010 0-0.056 0.029-0.105 0.072-0.134l0.001-0c0.043-0.024 0.073-0.069 0.073-0.121v-0c-0-0.001-0-0.003-0-0.005 0-0.046 0.019-0.087 0.049-0.116v0c0.030-0.031 0.049-0.073 0.049-0.12 0-0.004-0-0.008-0-0.011l0 0c0.005-0.067 0.037-0.126 0.084-0.167l0-0c0.081-0.063 0.081-0.069 0-0.132-0.050-0.044-0.082-0.107-0.085-0.178l-0-0.001c0-0.133-0.148-0.485-0.204-0.485-0.025-0.015-0.041-0.042-0.041-0.072 0-0.007 0.001-0.013 0.002-0.019l-0 0.001c-0.004-0.060-0.031-0.113-0.073-0.151l-0-0c-0.036-0.027-0.062-0.065-0.072-0.109l-0-0.001c0-0.086-0.162-0.423-0.204-0.423-0.023-0.005-0.039-0.026-0.039-0.050 0-0.003 0-0.005 0.001-0.008l-0 0c0-0.091-0.16-0.428-0.204-0.428-0.026-0.022-0.042-0.055-0.042-0.092 0-0.010 0.001-0.020 0.004-0.030l-0 0.001c0-0.075-0.028-0.121-0.073-0.121s-0.073-0.046-0.073-0.121c0.001-0.007 0.002-0.015 0.002-0.023 0-0.040-0.020-0.076-0.050-0.098l-0-0c-0.030-0.013-0.050-0.043-0.050-0.077 0-0.006 0.001-0.012 0.002-0.017l-0 0.001c-0.005-0.065-0.032-0.122-0.073-0.166l0 0c-0.033-0.028-0.058-0.065-0.072-0.106l-0.001-0.002c0-0.075-0.166-0.407-0.204-0.407-0.025-0.017-0.041-0.046-0.041-0.078 0-0.007 0.001-0.014 0.002-0.021l-0 0.001c-0.001-0.052-0.030-0.097-0.072-0.121l-0.001-0c-0.044-0.029-0.073-0.078-0.073-0.134 0-0.004 0-0.007 0-0.010l-0 0c0.002-0.008 0.004-0.018 0.004-0.028 0-0.039-0.021-0.074-0.052-0.093l-0-0c-0.030-0.013-0.050-0.041-0.050-0.075 0-0.006 0.001-0.011 0.002-0.016l-0 0.001c-0.004-0.060-0.031-0.113-0.073-0.151l-0-0c-0.036-0.027-0.062-0.066-0.072-0.11l-0-0.001c0-0.086-0.162-0.423-0.204-0.423-0.025-0.017-0.041-0.046-0.041-0.078 0-0.007 0.001-0.014 0.002-0.021l-0 0.001c-0.001-0.052-0.030-0.097-0.072-0.121l-0.001-0c-0.044-0.029-0.073-0.078-0.073-0.134 0-0.004 0-0.007 0-0.010l-0 0c0.002-0.008 0.004-0.018 0.004-0.028 0-0.039-0.021-0.074-0.052-0.093l-0-0c-0.030-0.015-0.050-0.045-0.050-0.080 0-0.007 0.001-0.013 0.002-0.019l-0 0.001c-0.001-0.052-0.030-0.097-0.072-0.121l-0.001-0c-0.041-0.018-0.069-0.057-0.073-0.103l-0-0c0-0.105-0.155-0.447-0.204-0.447-0.023-0.005-0.039-0.026-0.039-0.050 0-0.003 0-0.005 0.001-0.008l-0 0c0-0.091-0.16-0.428-0.204-0.428-0.025-0.015-0.041-0.042-0.041-0.072 0-0.007 0.001-0.013 0.002-0.019l-0 0.001c-0.004-0.060-0.031-0.113-0.073-0.151l-0-0c-0.036-0.027-0.062-0.066-0.072-0.11l-0-0.001c0-0.086-0.162-0.423-0.204-0.423-0.023-0.005-0.039-0.026-0.039-0.050 0-0.003 0-0.005 0.001-0.008l-0 0c0-0.091-0.16-0.428-0.204-0.428-0.025-0.017-0.041-0.046-0.041-0.078 0-0.007 0.001-0.014 0.002-0.021l-0 0.001c-0.001-0.052-0.030-0.097-0.072-0.121l-0.001-0c-0.044-0.028-0.073-0.076-0.073-0.132 0-0.003 0-0.005 0-0.008l-0 0c0.001-0.006 0.001-0.014 0.001-0.021 0-0.041-0.014-0.078-0.038-0.108l0 0c-0.039-0.017-0.142-0.222-0.284-0.561-0.023-0.081-0.065-0.15-0.121-0.206v0c-0.025-0.017-0.041-0.046-0.041-0.078 0-0.007 0.001-0.014 0.002-0.021l-0 0.001c-0.001-0.052-0.030-0.097-0.072-0.121l-0.001-0c-0.044-0.029-0.073-0.078-0.073-0.134 0-0.003 0-0.007 0-0.010l-0 0c0.002-0.008 0.004-0.018 0.004-0.028 0-0.039-0.021-0.074-0.052-0.093l-0-0c-0.030-0.015-0.050-0.045-0.050-0.080 0-0.006 0.001-0.013 0.002-0.019l-0 0.001c-0.001-0.052-0.030-0.097-0.072-0.121l-0.001-0c-0.041-0.018-0.069-0.057-0.073-0.103l-0-0c0-0.105-0.155-0.447-0.204-0.447-0.025-0.017-0.041-0.046-0.041-0.078 0-0.007 0.001-0.014 0.002-0.021l-0 0.001c-0.001-0.052-0.030-0.097-0.072-0.121l-0.001-0c-0.044-0.029-0.073-0.078-0.073-0.134 0-0.003 0-0.007 0-0.010l-0 0c0.002-0.008 0.004-0.018 0.004-0.028 0-0.039-0.021-0.074-0.052-0.093l-0-0c-0.030-0.015-0.050-0.045-0.050-0.080 0-0.006 0.001-0.013 0.002-0.019l-0 0.001c-0.001-0.052-0.030-0.097-0.072-0.121l-0.001-0c-0.041-0.018-0.070-0.057-0.073-0.103l-0-0c0-0.105-0.155-0.447-0.204-0.447-0.023-0.005-0.039-0.026-0.039-0.050 0-0.003 0-0.005 0.001-0.008l-0 0c0-0.091-0.16-0.428-0.204-0.428-0.025-0.017-0.041-0.046-0.041-0.078 0-0.007 0.001-0.014 0.002-0.021l-0 0.001c-0.001-0.052-0.030-0.097-0.072-0.121l-0.001-0c-0.044-0.029-0.073-0.078-0.073-0.134 0-0.003 0-0.007 0-0.010l-0 0c0.002-0.008 0.004-0.018 0.004-0.028 0-0.039-0.021-0.074-0.052-0.093l-0-0c-0.030-0.013-0.050-0.041-0.050-0.075 0-0.006 0.001-0.011 0.002-0.016l-0 0.001c-0.004-0.060-0.031-0.113-0.073-0.151l-0-0c-0.036-0.027-0.062-0.065-0.072-0.109l-0-0.001c0-0.086-0.162-0.423-0.204-0.423-0.025-0.017-0.041-0.046-0.041-0.078 0-0.007 0.001-0.014 0.002-0.021l-0 0.001c-0.001-0.052-0.030-0.097-0.072-0.121l-0.001-0c-0.044-0.028-0.073-0.076-0.073-0.132 0-0.003 0-0.006 0-0.008l-0 0c0.001-0.006 0.001-0.014 0.001-0.021 0-0.041-0.014-0.078-0.038-0.108l0 0c-0.050-0.056-0.091-0.121-0.12-0.193l-0.002-0.004-0.17-0.364c-0.030-0.076-0.071-0.141-0.122-0.198l0.001 0.001c-0.023-0.025-0.037-0.058-0.037-0.095 0-0.005 0-0.011 0.001-0.016l-0 0.001c0-0 0-0 0-0 0-0.052-0.029-0.097-0.072-0.121l-0.001-0c-0.044-0.029-0.073-0.078-0.073-0.134 0-0.004 0-0.007 0-0.010l-0 0c0.002-0.008 0.004-0.018 0.004-0.028 0-0.039-0.021-0.074-0.052-0.093l-0-0c-0.030-0.015-0.050-0.045-0.050-0.080 0-0.006 0.001-0.013 0.002-0.019l-0 0.001c-0.001-0.052-0.030-0.097-0.072-0.121l-0.001-0c-0.041-0.018-0.070-0.057-0.073-0.103l-0-0c0-0.105-0.155-0.447-0.204-0.447-0.023-0.007-0.040-0.028-0.040-0.053 0-0.003 0-0.007 0.001-0.010l-0 0c0-0.111-0.121-0.324-0.182-0.325-0.002 0-0.003 0-0.005 0-0.028 0-0.052-0.021-0.055-0.048l-0-0c0-0.086-21.194-0.062-21.27 0.024zM19.238 5.854c0.133 0.065 0.294 0.129 0.459 0.181l0.025 0.007c0.048 0.006 0.088 0.035 0.109 0.076l0 0.001c0.005 0.026 0.027 0.046 0.055 0.046 0.002 0 0.004-0 0.006-0l-0 0c0.056 0 0.135 0.062 0.485 0.364 0.234 0.219 0.428 0.478 0.57 0.766l0.007 0.016c0.069 0.142 0.133 0.258 0.202 0.37l-0.010-0.017c0.094 0.174 0.186 0.382 0.263 0.597l0.010 0.033c0.038 0.093 0.090 0.207 0.115 0.255 0.025 0.046 0.042 0.1 0.046 0.157l0 0.001c0.004 0.058 0.020 0.112 0.046 0.16l-0.001-0.002c0.082 0.137 0.149 0.295 0.194 0.462l0.003 0.013c0.013 0.075 0.037 0.141 0.070 0.202l-0.002-0.003c0.038 0.075 0.095 0.202 0.121 0.282s0.088 0.204 0.121 0.274c0.035 0.067 0.059 0.145 0.067 0.228l0 0.002c-0.002 0.006-0.002 0.014-0.002 0.022 0 0.033 0.016 0.062 0.040 0.080l0 0c0.056 0.071 0.099 0.157 0.12 0.25l0.001 0.004c0.047 0.139 0.121 0.32 0.151 0.4s0.091 0.211 0.121 0.291 0.088 0.207 0.121 0.282c0.035 0.067 0.059 0.145 0.068 0.227l0 0.003c-0.001 0.005-0.002 0.011-0.002 0.017 0 0.034 0.020 0.063 0.050 0.076l0.001 0c0.028 0.007 0.049 0.032 0.049 0.062 0 0.004-0 0.007-0.001 0.010l0-0c0.016 0.095 0.044 0.181 0.083 0.26l-0.003-0.006c0.082 0.19 0.159 0.372 0.261 0.619 0.033 0.080 0.090 0.204 0.121 0.274 0.033 0.059 0.056 0.128 0.066 0.201l0 0.003c0.028 0.115 0.069 0.216 0.124 0.308l-0.003-0.005c0.051 0.085 0.092 0.183 0.119 0.287l0.002 0.008c0.005 0.056 0.022 0.107 0.047 0.152l-0.001-0.002c0.025 0.046 0.080 0.166 0.121 0.265s0.108 0.256 0.148 0.347c0.030 0.060 0.055 0.13 0.071 0.203l0.001 0.006c0.035 0.114 0.076 0.212 0.126 0.305l-0.004-0.009c0.051 0.094 0.093 0.203 0.119 0.318l0.002 0.009c0.007 0.059 0.034 0.11 0.073 0.149v0c0.041 0.043 0.067 0.1 0.073 0.163l0 0.001c-0 0.002-0 0.005-0 0.008 0 0.045 0.019 0.085 0.049 0.113l0 0c0.030 0.026 0.049 0.065 0.049 0.107 0 0.001-0 0.003-0 0.004v-0c0.028 0.123 0.069 0.231 0.124 0.331l-0.003-0.006c0.063 0.133 0.154 0.342 0.2 0.462 0.095 0.265 0.186 0.476 0.286 0.682l-0.018-0.041c0.025 0.044 0.041 0.097 0.046 0.152l0 0.001c0.012 0.077 0.035 0.147 0.070 0.211l-0.002-0.003c0.038 0.075 0.096 0.202 0.128 0.282l0.121 0.291c0.184 0.441 0.282 0.68 0.385 0.945 0.091 0.234 0.148 0.375 0.242 0.606 0.034 0.080 0.087 0.211 0.121 0.291s0.088 0.207 0.121 0.282c0.034 0.064 0.058 0.139 0.068 0.217l0 0.003c0 0 0 0 0 0.001 0 0.048 0.015 0.093 0.042 0.13l-0-0.001c0.048 0.089 0.089 0.193 0.119 0.302l0.002 0.011c0.047 0.147 0.121 0.338 0.153 0.425 0.037 0.088 0.061 0.191 0.067 0.298l0 0.002c-0.001 0.007-0.001 0.015-0.001 0.024 0 0.056 0.019 0.107 0.050 0.148l-0-0.001c0.067 0.041 0.061 0.682-0.008 0.893-0.183 0.56-0.59 1.054-1.040 1.264l-0.354 0.165c-0.167 0.078-1.073 0.069-1.246-0.012l-0.31-0.144c-0.307-0.142-0.824-0.766-0.824-0.993 0-0.003 0-0.006 0-0.010 0-0.032-0.014-0.061-0.037-0.080l-0-0c-0.048-0.052-0.087-0.114-0.114-0.181l-0.001-0.004c-0.28-0.606-0.358-0.788-0.527-1.236-0.101-0.264-0.213-0.549-0.273-0.686-0.031-0.066-0.055-0.143-0.066-0.224l-0-0.004c0-0 0-0.001 0-0.001 0-0.041-0.019-0.079-0.048-0.103l-0-0c-0.030-0.028-0.049-0.068-0.049-0.113 0-0.003 0-0.006 0-0.009l-0 0c-0.013-0.094-0.042-0.179-0.083-0.256l0.002 0.004c-0.045-0.088-0.096-0.194-0.114-0.234-0.029-0.063-0.463-0.074-3.403-0.085l-3.37-0.012-0.058 0.158c-0.031 0.087-0.086 0.223-0.121 0.303s-0.102 0.265-0.149 0.412c-0.035 0.12-0.078 0.223-0.132 0.32l0.004-0.008c-0.026 0.036-0.041 0.081-0.041 0.129 0 0 0 0 0 0.001v-0c-0.014 0.091-0.043 0.172-0.083 0.246l0.002-0.004c-0.149 0.298-0.161 0.33-0.161 0.418-0.007 0.070-0.033 0.132-0.072 0.184l0.001-0.001c-0.035 0.044-0.061 0.097-0.072 0.155l-0 0.002c0 0.184-0.614 1.382-0.828 1.624-0.395 0.448-1.445 0.676-1.966 0.427l-0.308-0.145c-0.092-0.044-0.172-0.094-0.245-0.152l0.003 0.002c-0.045-0.040-0.121-0.108-0.173-0.15-0.4-0.357-0.651-0.874-0.651-1.45 0-0.161 0.020-0.318 0.057-0.467l-0.003 0.013c0.069-0.264 0.189-0.66 0.242-0.782 0.139-0.344 0.205-0.494 0.242-0.568 0.025-0.044 0.041-0.097 0.046-0.152l0-0.001c0.016-0.087 0.044-0.165 0.083-0.235l-0.002 0.004c0.148-0.296 0.161-0.33 0.161-0.408 0.010-0.077 0.034-0.147 0.069-0.21l-0.002 0.003c0.038-0.070 0.104-0.216 0.148-0.322s0.101-0.231 0.121-0.279c0.026-0.049 0.043-0.107 0.047-0.168l0-0.001c0.009-0.068 0.035-0.129 0.073-0.18l-0.001 0.001c0.037-0.047 0.063-0.105 0.072-0.168l0-0.002c0.029-0.12 0.071-0.226 0.125-0.324l-0.003 0.007c0.049-0.087 0.090-0.188 0.119-0.293l0.002-0.010c0-0.062 0.017-0.102 0.162-0.391 0.037-0.067 0.065-0.145 0.081-0.227l0.001-0.005c0.005-0.057 0.021-0.109 0.047-0.156l-0.001 0.002c0.056-0.101 0.113-0.242 0.4-0.982 0.025-0.067 0.078-0.183 0.121-0.258 0.033-0.061 0.057-0.132 0.067-0.207l0-0.003c0.015-0.085 0.043-0.161 0.082-0.23l-0.002 0.003c0.142-0.273 0.162-0.32 0.162-0.376 0.016-0.083 0.041-0.156 0.075-0.225l-0.002 0.005c0.113-0.257 0.198-0.464 0.265-0.65 0.083-0.24 0.165-0.436 0.257-0.626l-0.015 0.033c0.025-0.044 0.041-0.097 0.046-0.152l0-0.001c0.012-0.077 0.036-0.147 0.070-0.211l-0.002 0.003c0.038-0.075 0.095-0.202 0.121-0.282s0.088-0.207 0.121-0.282c0.032-0.060 0.056-0.13 0.067-0.204l0-0.004c0-0.070 0.015-0.107 0.161-0.399 0.037-0.065 0.065-0.141 0.080-0.222l0.001-0.005c0.012-0.076 0.036-0.144 0.070-0.206l-0.002 0.003c0.038-0.075 0.095-0.202 0.121-0.282s0.088-0.207 0.121-0.282c0.032-0.060 0.056-0.13 0.067-0.204l0-0.004c0.004-0.057 0.019-0.109 0.042-0.156l-0.001 0.003c0.080-0.164 0.191-0.425 0.252-0.594 0.034-0.093 0.087-0.235 0.121-0.315s0.097-0.242 0.144-0.364c0.166-0.422 0.223-0.559 0.269-0.641 0.025-0.044 0.041-0.097 0.046-0.152l0-0.001c0.016-0.087 0.044-0.165 0.083-0.235l-0.002 0.004c0.143-0.285 0.161-0.328 0.161-0.379 0-0.096 0.404-0.899 0.606-1.212 0.268-0.408 0.899-0.97 1.091-0.97 0.049-0.007 0.093-0.022 0.133-0.043l-0.002 0.001c0.35-0.178 0.439-0.194 1.091-0.196 0.514 0 0.707 0.015 0.848 0.076zM18.215 10.606c-0.048 0.153-0.121 0.345-0.155 0.429-0.032 0.066-0.055 0.143-0.066 0.224l-0 0.004c0 0.001 0 0.003 0 0.005 0 0.038-0.016 0.072-0.042 0.096l-0 0c-0.036 0.044-0.061 0.098-0.069 0.158l-0 0.002c-0.099 0.372-0.21 0.687-0.342 0.99l0.017-0.045c-0.026 0.045-0.043 0.098-0.048 0.155l-0 0.001c-0.048 0.198-0.116 0.372-0.205 0.533l0.006-0.011c-0.025 0.057-0.041 0.123-0.044 0.193l-0 0.001c-0.006 0.077-0.032 0.147-0.074 0.205l0.001-0.001c-0.041 0.057-0.067 0.127-0.071 0.202l-0 0.001c0 0.004 0 0.009 0 0.014 0 0.049-0.019 0.093-0.049 0.126l0-0c-0.030 0.030-0.049 0.072-0.049 0.119 0 0.004 0 0.007 0 0.010l-0-0c-0.008 0.085-0.033 0.162-0.071 0.231l0.002-0.003c-0.041 0.116-0.079 0.257-0.106 0.402l-0.003 0.018c-0.047 0.16-0.101 0.324-0.121 0.364-0.070 0.154-0.132 0.336-0.175 0.525l-0.004 0.020c-0.001 0.053-0.024 0.101-0.062 0.133l-0 0c-0.037 0.033-0.061 0.080-0.062 0.133v0c-0.052 0.22-0.115 0.41-0.193 0.593l0.009-0.023c-0.021 0.053-0.059 0.168-0.087 0.255l-0.050 0.158h2.337c1.285 0 2.312-0.017 2.282-0.036-0.042-0.042-0.073-0.095-0.088-0.154l-0-0.002c-0.018-0.067-0.051-0.165-0.072-0.218-0.064-0.15-0.128-0.335-0.179-0.526l-0.007-0.032c-0.009-0.055-0.029-0.104-0.057-0.147l0.001 0.001c-0.047-0.090-0.088-0.194-0.118-0.304l-0.003-0.012c-0.050-0.16-0.121-0.364-0.158-0.444-0.032-0.066-0.055-0.143-0.066-0.224l-0-0.004c0-0 0-0.001 0-0.001 0-0.041-0.019-0.079-0.048-0.103l-0-0c-0.031-0.033-0.050-0.077-0.050-0.126 0-0.003 0-0.007 0-0.010l-0 0c-0.006-0.076-0.033-0.144-0.074-0.201l0.001 0.001c-0.041-0.057-0.067-0.127-0.071-0.202l-0-0.001c0-0.004 0-0.009 0-0.014 0-0.049-0.019-0.093-0.049-0.126l0 0c-0.030-0.033-0.049-0.077-0.049-0.126 0-0.005 0-0.010 0.001-0.014l-0 0.001c-0.005-0.077-0.031-0.147-0.072-0.205l0.001 0.001c-0.042-0.063-0.069-0.139-0.073-0.222l-0-0.001c0.001-0.007 0.001-0.015 0.001-0.023 0-0.047-0.017-0.090-0.044-0.123l0 0c-0.062-0.095-0.111-0.205-0.141-0.323l-0.002-0.008c-0.125-0.433-0.254-0.79-0.403-1.136l0.024 0.062c-0.035-0.066-0.059-0.143-0.066-0.225l-0-0.002c0-0.003 0-0.006 0-0.010 0-0.046-0.019-0.088-0.049-0.119v0c-0.030-0.027-0.049-0.065-0.049-0.108 0-0.001 0-0.003 0-0.004v0c-0.012-0.082-0.037-0.157-0.074-0.224l0.002 0.003c-0.033-0.058-0.059-0.125-0.072-0.196l-0.001-0.004c-0.014-0.075-0.039-0.142-0.074-0.203l0.002 0.003c-0.035-0.063-0.061-0.137-0.072-0.215l-0-0.004c0-0.231-0.13-0.176-0.216 0.093z"></path>
<path fill="#81ac3c" style="fill: var(--color3, #81ac3c)" d="M18.3 10.238c-0.023 0.036-0.016 0.046 0.016 0.027 0.003-0 0.007-0 0.011-0 0.052 0 0.097 0.031 0.117 0.076l0 0.001c0.042 0.059 0.076 0.085 0.076 0.057 0-0.096-0.181-0.225-0.221-0.16zM18.421 16.827l-2.351 0.025 2.337 0.011c1.517 0.007 2.346 0 2.366-0.038s0.023-0.044 0.015-0.038-1.073 0.023-2.366 0.038zM13.137 24.154c-0.121 0.109-0.175 0.176-0.121 0.148 0.091-0.048 0.406-0.353 0.364-0.349-0.090 0.064-0.169 0.13-0.243 0.202l0.001-0.001z"></path>
<path fill="#8cb444" style="fill: var(--color4, #8cb444)" d="M17.773 5.891c-0.61 0.124-1.126 0.457-1.483 0.919l-0.004 0.006c-0.121 0.167-0.113 0.159 0.090-0.052 0.594-0.624 1.506-0.985 2.206-0.873 0.427 0.069 0.713 0.082 0.55 0.025-0.242-0.085-1.036-0.099-1.357-0.025zM19.318 6.004c0.052 0.045 0.117 0.076 0.188 0.087l0.002 0c0.229 0.050 0.737 0.431 0.97 0.727 0.207 0.263 0.364 0.372 0.185 0.13-0.255-0.348-0.836-0.822-1.091-0.896-0.053-0.015-0.139-0.044-0.19-0.065s-0.082-0.021-0.059 0.015zM20.762 7.18c0.003 0.051 0.024 0.097 0.057 0.132l-0-0c0.090 0.137 0.178 0.296 0.255 0.462l0.009 0.023c0.114 0.234 0.208 0.401 0.21 0.371-0.159-0.389-0.321-0.714-0.505-1.026l0.020 0.037c-0.045-0.064-0.051-0.064-0.051 0zM15.816 7.588c-0.113 0.242-0.229 0.485-0.258 0.545-0.020 0.028-0.031 0.063-0.031 0.101 0 0.012 0.001 0.024 0.004 0.036l-0-0.001c0.015 0.015 0.061-0.061 0.104-0.167 0.105-0.284 0.227-0.528 0.373-0.756l-0.009 0.016c0.031-0.032 0.050-0.076 0.050-0.125 0-0.007-0-0.014-0.001-0.021l0 0.001c-0.012-0.035-0.114 0.133-0.225 0.373zM21.294 8.257c0 0.007 0.046 0.132 0.101 0.279s0.144 0.385 0.198 0.532c0.039 0.12 0.087 0.223 0.146 0.32l-0.004-0.007c0.057 0.059 0.057 0 0-0.108-0.025-0.046-0.121-0.297-0.222-0.557-0.147-0.391-0.218-0.542-0.218-0.459zM15.343 8.714c-0.025 0.040-0.040 0.088-0.040 0.14 0 0.003 0 0.005 0 0.008v-0c0.029 0.029 0.133-0.181 0.121-0.231-0.008-0.024-0.042 0.013-0.075 0.084zM15.107 9.314c-0.025 0.050-0.040 0.11-0.040 0.172 0 0.002 0 0.005 0 0.008v-0c0.035 0.035 0.131-0.185 0.115-0.263-0.008-0.045-0.040-0.010-0.075 0.084zM21.788 9.487c0 0.079 0.188 0.52 0.215 0.492-0.006-0.080-0.030-0.152-0.069-0.215l0.001 0.002c-0.050-0.104-0.102-0.223-0.121-0.263s-0.029-0.047-0.030-0.016zM14.948 9.7c-0.035 0.091-0.115 0.293-0.179 0.447-0.121 0.297-0.161 0.501-0.048 0.251 0.181-0.396 0.223-0.505 0.223-0.567 0.004-0.047 0.024-0.089 0.055-0.121l-0 0c0.023-0.022 0.037-0.053 0.037-0.087 0-0.010-0.001-0.019-0.003-0.029l0 0.001c-0.011-0.034-0.048 0.013-0.084 0.105zM22.023 10.097c0.003 0.062 0.019 0.12 0.046 0.172l-0.001-0.002c0.025 0.046 0.076 0.16 0.114 0.255 0.164 0.405 0.184 0.447 0.208 0.423 0.003-0.011 0.005-0.024 0.005-0.038 0-0.031-0.011-0.060-0.029-0.083l0 0c-0.027-0.050-0.115-0.253-0.196-0.453s-0.148-0.325-0.149-0.279zM18.297 10.137c-0.036 0.045-0.057 0.103-0.057 0.166 0 0 0 0 0 0v0c0 0.004 0 0.008 0 0.013 0 0.048-0.019 0.093-0.049 0.126l0-0c-0.029 0.031-0.047 0.073-0.047 0.119 0 0.006 0 0.011 0.001 0.017l-0-0.001c0 0.102 0.063-0.018 0.164-0.325 0.029-0.088 0.034-0.088 0.121 0 0.053 0.047 0.096 0.065 0.096 0.039 0-0.101-0.172-0.211-0.234-0.15zM18.534 10.444c0.005 0.081 0.029 0.155 0.067 0.221l-0.001-0.002c0.044 0.076 0.070 0.093 0.072 0.046-0-0.046-0.016-0.088-0.043-0.122l0 0c-0.031-0.040-0.054-0.088-0.066-0.14l-0-0.003-0.023-0.097v0.097zM18.054 10.808c-0.034 0.059-0.054 0.129-0.055 0.203v0c0 0.067 0.013 0.081 0.028 0.036 0.027-0.074 0.053-0.134 0.082-0.192l-0.005 0.011c0.068-0.138 0.028-0.184-0.050-0.059zM14.497 10.83c-0.016 0.053-0.045 0.141-0.064 0.194-0.030 0.084-0.024 0.081 0.046-0.013 0.040-0.050 0.064-0.115 0.064-0.185 0-0.003-0-0.006-0-0.009v0c-0.015-0.073-0.022-0.072-0.046 0.013zM18.677 10.836c0.014 0.082 0.038 0.155 0.071 0.223l-0.002-0.005c0.048 0.113 0.072 0.133 0.072 0.067 0-0.102-0.137-0.381-0.141-0.285zM22.411 11.078c0.006 0.097 0.231 0.526 0.235 0.448 0-0.003 0-0.007 0-0.010 0-0.040-0.017-0.076-0.045-0.101l-0-0c-0.031-0.027-0.050-0.067-0.050-0.111 0-0 0-0.001 0-0.001v0c-0.009-0.067-0.035-0.127-0.073-0.177l0.001 0.001c-0.039-0.052-0.070-0.074-0.068-0.048zM14.319 11.31c-0.035 0.085-0.096 0.242-0.137 0.349s-0.093 0.231-0.121 0.278c-0.023 0.042-0.038 0.092-0.042 0.144l-0 0.001c0 0.065 0.080-0.097 0.217-0.448 0.046-0.121 0.108-0.268 0.136-0.327 0.019-0.030 0.031-0.066 0.031-0.105 0-0.009-0.001-0.018-0.002-0.027l0 0.001c-0.044 0.031-0.074 0.078-0.085 0.132l-0 0.001zM17.815 11.529c-0.030 0.060-0.050 0.129-0.058 0.202l-0 0.003c0 0.041 0.034 0 0.074-0.091 0.086-0.198 0.073-0.299-0.016-0.114zM18.918 11.529c0 0.090 0.142 0.389 0.143 0.302-0.010-0.081-0.035-0.155-0.072-0.221l0.002 0.003c-0.040-0.076-0.073-0.114-0.073-0.084zM22.651 11.693c0.007 0.050 0.023 0.095 0.047 0.135l-0.001-0.002c0.025 0.046 0.076 0.16 0.114 0.255 0.164 0.405 0.184 0.447 0.208 0.423 0.004-0.012 0.006-0.025 0.006-0.039 0-0.031-0.010-0.059-0.028-0.082l0 0c-0.027-0.050-0.108-0.242-0.181-0.417-0.128-0.318-0.166-0.381-0.166-0.278zM17.668 11.951c-0.031 0.064-0.052 0.139-0.059 0.218l-0 0.003c0 0.002 0 0.005 0 0.007 0 0.045-0.019 0.085-0.049 0.114l-0 0c-0.029 0.026-0.047 0.063-0.047 0.105 0 0.002 0 0.004 0 0.007v-0c0 0.121 0.139-0.132 0.142-0.259 0.002-0.056 0.021-0.106 0.053-0.147l-0 0.001c0.023-0.022 0.038-0.053 0.038-0.088 0-0.008-0.001-0.017-0.003-0.025l0 0.001c-0.011-0.031-0.046 0-0.079 0.070zM19.058 11.99c0 0.046 0.015 0.088 0.040 0.122l-0-0.001c0.042 0.072 0.078 0.156 0.104 0.244l0.002 0.008c0.012 0.072 0.042 0.135 0.084 0.187l-0.001-0.001c0.025-0.025-0.135-0.527-0.187-0.585-0.025-0.028-0.041-0.017-0.041 0.027zM13.803 12.604c-0.225 0.587-0.268 0.708-0.252 0.727 0.038-0.038 0.065-0.086 0.077-0.14l0-0.002c0.033-0.087 0.087-0.224 0.121-0.304 0.145-0.355 0.183-0.465 0.164-0.485-0.051 0.057-0.089 0.127-0.108 0.204l-0.001 0.003zM17.412 12.7c-0.032 0.102-0.111 0.332-0.178 0.511-0.049 0.11-0.085 0.238-0.102 0.373l-0.001 0.007c0.010 0.029 0.099-0.191 0.201-0.485 0.064-0.159 0.12-0.349 0.158-0.544l0.003-0.021c-0.043 0.042-0.072 0.098-0.080 0.161l-0 0.001zM23.039 12.61c0.003 0.054 0.018 0.103 0.042 0.147l-0.001-0.002c0.032 0.062 0.066 0.142 0.097 0.224l0.006 0.018c0.013 0.056 0.039 0.104 0.075 0.143l-0-0c-0.004-0.067-0.021-0.13-0.049-0.186l0.001 0.003c-0.107-0.287-0.17-0.413-0.172-0.349zM19.305 12.678c-0 0.002-0 0.005-0 0.008 0 0.041 0.018 0.078 0.046 0.104l0 0c0.034 0.035 0.055 0.082 0.055 0.135 0 0 0 0.001 0 0.001v-0c0 0.078 0.012 0.084 0.027 0.024 0-0.007 0.001-0.016 0.001-0.024 0-0.072-0.020-0.138-0.054-0.196l0.001 0.002q-0.074-0.137-0.075-0.055zM19.47 13.128c0.019 0.053 0.072 0.204 0.114 0.335s0.086 0.212 0.097 0.182c0.022-0.065-0.13-0.494-0.199-0.565-0.032-0.031-0.035-0.015-0.012 0.048zM23.283 13.237c0.003 0.054 0.020 0.104 0.046 0.147l-0.001-0.001c0.034 0.062 0.067 0.136 0.094 0.212l0.004 0.012c0.028 0.078 0.061 0.128 0.075 0.121-0.014-0.106-0.047-0.203-0.096-0.289l0.002 0.004c-0.065-0.143-0.121-0.234-0.121-0.2zM13.398 13.649c-0.042 0.079-0.071 0.172-0.081 0.271l-0 0.003c0.013 0.013 0.046-0.040 0.074-0.121 0.038-0.102 0.074-0.184 0.114-0.264l-0.007 0.015c0.021-0.029 0.033-0.065 0.033-0.104 0-0.011-0.001-0.021-0.003-0.032l0 0.001c-0.015-0.015-0.073 0.087-0.13 0.225zM17.034 13.804c-0.023 0.055-0.041 0.12-0.049 0.186l-0 0.004c-0.005 0.044-0.024 0.083-0.053 0.113l0-0c-0.024 0.030-0.039 0.068-0.039 0.109 0 0.011 0.001 0.021 0.003 0.031l-0-0.001c0.010 0.047 0.064-0.053 0.121-0.223 0.103-0.299 0.121-0.485 0.016-0.219zM19.717 13.811c0.021 0.051 0.073 0.202 0.121 0.336s0.086 0.207 0.097 0.155c0.002-0.010 0.003-0.022 0.003-0.034 0-0.041-0.012-0.080-0.034-0.112l0 0.001c-0.037-0.062-0.065-0.134-0.079-0.212l-0.001-0.004c-0.011-0.074-0.041-0.139-0.086-0.191l0 0c-0.035-0.022-0.041 0-0.016 0.059zM23.533 13.81c0 0.091 0.342 0.909 0.371 0.881-0.090-0.306-0.192-0.566-0.314-0.815l0.013 0.030c-0.038-0.080-0.069-0.121-0.070-0.097zM13.142 14.334c-0.075 0.191-0.161 0.398-0.19 0.458-0.019 0.028-0.030 0.063-0.030 0.1 0 0.012 0.001 0.024 0.004 0.036l-0-0.001c0.015 0.015 0.053-0.046 0.086-0.133 0.086-0.227 0.193-0.485 0.252-0.606 0.021-0.038 0.034-0.083 0.034-0.131 0-0.009-0-0.017-0.001-0.026l0 0.001c-0.010-0.028-0.079 0.107-0.155 0.298zM16.797 14.498c-0.025 0.051-0.040 0.11-0.040 0.173 0 0.015 0.001 0.029 0.002 0.043l-0-0.002c0.015 0.035 0.027 0.019 0.029-0.036 0.003-0.058 0.024-0.111 0.059-0.153l-0 0.001c0.023-0.022 0.037-0.053 0.037-0.087 0-0.010-0.001-0.019-0.003-0.029l0 0.001c-0.011-0.034-0.048 0.007-0.084 0.090zM19.948 14.412c0.062 0.221 0.135 0.411 0.222 0.592l-0.009-0.021c0.042 0.042 0.030-0.080-0.017-0.172-0.023-0.046-0.076-0.16-0.121-0.255-0.018-0.056-0.045-0.104-0.079-0.145l0.001 0.001zM23.919 14.776c0.013 0.073 0.038 0.138 0.072 0.197l-0.002-0.003c0.040 0.076 0.072 0.107 0.070 0.067 0-0.087-0.139-0.339-0.142-0.261zM12.825 15.106c-0.085 0.187-0.072 0.271 0.016 0.104 0.033-0.053 0.054-0.117 0.058-0.186l0-0.001c-0.008-0.025-0.041 0.012-0.074 0.082zM16.56 15.169c-0.030 0.060-0.050 0.129-0.058 0.202l-0 0.003c0 0.041 0.034 0 0.074-0.091 0.086-0.198 0.073-0.299-0.016-0.114zM20.184 15.143c-0 0.001-0 0.002-0 0.004 0 0.043 0.019 0.081 0.048 0.107l0 0c0.030 0.022 0.048 0.057 0.048 0.097v0c0.010 0.076 0.030 0.144 0.059 0.208l-0.002-0.005c0.032 0.075 0.095 0.242 0.141 0.379s0.086 0.21 0.088 0.168c-0.020-0.127-0.054-0.241-0.101-0.349l0.004 0.009c-0.041-0.1-0.085-0.229-0.122-0.36l-0.006-0.027c-0.036-0.166-0.158-0.345-0.158-0.231zM24.161 15.376c0 0.087 0.139 0.339 0.142 0.261-0.013-0.073-0.038-0.138-0.072-0.197l0.002 0.003c-0.040-0.076-0.072-0.107-0.070-0.067zM16.431 15.526c-0.073 0.166-0.131 0.36-0.166 0.561l-0.002 0.015c0 0.040 0.055-0.080 0.121-0.265 0.044-0.106 0.077-0.228 0.094-0.356l0.001-0.007c-0.011-0.011-0.030 0.011-0.044 0.047zM12.604 15.634c-0.016 0.053-0.045 0.141-0.064 0.194-0.030 0.084-0.024 0.081 0.046-0.013 0.040-0.050 0.064-0.115 0.064-0.185 0-0.003-0-0.006-0-0.009v0c-0.015-0.073-0.022-0.072-0.046 0.013zM24.395 15.976c0.005 0.073 0.030 0.14 0.070 0.195l-0.001-0.001c0.092 0.121 0.092 0.075 0-0.131-0.052-0.121-0.072-0.137-0.073-0.063zM12.333 16.327c-0.031 0.072-0.092 0.229-0.136 0.349-0.045 0.126-0.088 0.228-0.136 0.327l0.008-0.019c-0.017 0.023-0.028 0.051-0.028 0.082 0 0.014 0.002 0.027 0.006 0.040l-0-0.001c0.023 0.023 0.067-0.064 0.175-0.35 0.021-0.053 0.075-0.19 0.121-0.303 0.036-0.066 0.059-0.144 0.065-0.226l0-0.002c-0.040 0.023-0.069 0.062-0.077 0.108l-0 0.001zM16.151 16.287c-0.029 0.057-0.048 0.123-0.052 0.194l-0 0.001c0 0.003 0 0.006 0 0.010 0 0.046-0.019 0.087-0.049 0.118v0c-0.062 0.039-0.063 0.267 0 0.267 0.025 0 0.036-0.027 0.024-0.061 0.004-0.118 0.031-0.229 0.076-0.329l-0.002 0.005c0.098-0.268 0.101-0.383 0-0.205zM20.558 16.205c0.018 0.074 0.042 0.139 0.072 0.2l-0.003-0.006c0.052 0.121 0.072 0.137 0.073 0.063s-0.138-0.339-0.142-0.257zM24.534 16.332c0.003 0.054 0.018 0.103 0.041 0.147l-0.001-0.002c0.024 0.046 0.068 0.147 0.099 0.224s0.067 0.128 0.081 0.114c0.004-0.012 0.006-0.026 0.006-0.040 0-0.031-0.010-0.059-0.027-0.081l0 0c-0.025-0.050-0.080-0.166-0.121-0.259s-0.076-0.142-0.079-0.109zM24.777 16.888c-0.007 0.076 0.164 0.515 0.2 0.515s0-0.092-0.052-0.206-0.101-0.242-0.121-0.279-0.029-0.053-0.032-0.030zM11.896 17.442c-0.043 0.086-0.073 0.187-0.086 0.293l-0 0.004c0.040-0.027 0.068-0.070 0.073-0.121l0-0.001c0.028-0.076 0.075-0.187 0.104-0.242 0.023-0.039 0.036-0.085 0.036-0.135 0-0.008-0-0.016-0.001-0.024l0 0.001c-0.010-0.029-0.067 0.072-0.121 0.223zM25.028 17.532c0.005 0.073 0.030 0.14 0.070 0.195l-0.001-0.001c0.092 0.121 0.092 0.075 0-0.131-0.052-0.121-0.072-0.137-0.073-0.063zM11.693 17.946c-0.026 0.044-0.042 0.096-0.042 0.153 0 0.006 0 0.011 0 0.017l-0-0.001c0.043-0.027 0.074-0.070 0.085-0.12l0-0.001c0.080-0.194 0.041-0.233-0.044-0.044zM25.167 17.885c0.003 0.054 0.018 0.103 0.041 0.147l-0.001-0.002c0.024 0.046 0.068 0.147 0.099 0.224s0.067 0.128 0.081 0.114c0.004-0.012 0.006-0.026 0.006-0.040 0-0.031-0.010-0.059-0.027-0.081l0 0c-0.025-0.050-0.080-0.166-0.121-0.259s-0.076-0.142-0.079-0.108zM11.546 18.34c-0.037 0.102-0.073 0.183-0.113 0.263l0.007-0.015c-0.017 0.023-0.028 0.051-0.028 0.082 0 0.014 0.002 0.027 0.006 0.040l-0-0.001c0.015 0.015 0.051-0.038 0.082-0.114s0.079-0.189 0.107-0.248c0.018-0.027 0.028-0.061 0.028-0.097 0-0.013-0.001-0.026-0.004-0.039l0 0.001c-0.015-0.015-0.052 0.046-0.085 0.133zM25.409 18.486c0.041 0.186 0.108 0.35 0.199 0.499l-0.004-0.007c0.022 0.038 0.038 0.083 0.045 0.13l0 0.002c0.032 0.117 0.072 0.218 0.12 0.314l-0.005-0.010c0.063 0.141 0.153 0.354 0.2 0.474 0.081 0.206 0.175 0.438 0.265 0.654 0.022 0.053 0.067 0.168 0.101 0.256s0.070 0.148 0.085 0.135-0.324-0.921-0.427-1.105c-0.023-0.038-0.040-0.082-0.047-0.13l-0-0.002c-0.034-0.117-0.076-0.218-0.126-0.314l0.004 0.009c-0.064-0.141-0.183-0.419-0.265-0.619s-0.149-0.328-0.15-0.286zM11.283 18.994l-0.201 0.519c-0.257 0.665-0.31 0.819-0.294 0.835 0.038-0.038 0.065-0.086 0.077-0.14l0-0.002c0.033-0.087 0.087-0.224 0.121-0.304s0.087-0.222 0.121-0.315c0.075-0.208 0.185-0.474 0.253-0.613 0.021-0.038 0.034-0.084 0.034-0.133 0-0.010-0-0.019-0.001-0.028l0 0.001c-0.010-0.030-0.059 0.048-0.108 0.177zM14.921 20.156c-0.045 0.101-0.102 0.221-0.121 0.267-0.026 0.049-0.042 0.107-0.045 0.169l-0 0.001c0 0.047 0.062-0.057 0.135-0.23l0.133-0.315 6.811-0.024 0.053 0.133c0.029 0.074 0.073 0.177 0.096 0.23 0.056 0.121 0.285 0.749 0.321 0.871 0.042 0.142 0.156 0.349 0.156 0.286-0.051-0.202-0.117-0.377-0.199-0.543l0.007 0.016c-0.023-0.053-0.069-0.173-0.102-0.267-0.084-0.233-0.187-0.485-0.257-0.63l-0.059-0.121-6.845-0.024-0.081 0.182zM10.638 20.66c-0.042 0.079-0.071 0.172-0.081 0.271l-0 0.003c0.013 0.013 0.046-0.040 0.074-0.121 0.038-0.102 0.074-0.184 0.114-0.264l-0.007 0.015c0.021-0.029 0.033-0.065 0.033-0.104 0-0.011-0.001-0.021-0.003-0.032l0 0.001c-0.015-0.015-0.073 0.087-0.13 0.225zM14.658 20.853c-0.037 0.1-0.071 0.18-0.11 0.258l0.007-0.015c-0.048 0.091-0.062 0.216-0.018 0.172 0.082-0.16 0.15-0.346 0.194-0.541l0.003-0.016c-0.037 0.038-0.064 0.086-0.076 0.14l-0 0.002zM10.478 21.059c-0.016 0.053-0.045 0.141-0.064 0.194-0.030 0.084-0.024 0.081 0.046-0.013 0.040-0.050 0.064-0.115 0.064-0.185 0-0.003-0-0.006-0-0.009v0c-0.015-0.073-0.022-0.072-0.046 0.013zM26.436 21.048c-0 0.001-0 0.002-0 0.003 0 0.042 0.019 0.080 0.048 0.105l0 0c0.030 0.022 0.048 0.057 0.048 0.097v0c0 0.093 0.095 0.333 0.121 0.307-0.040-0.212-0.107-0.401-0.198-0.575l0.005 0.011c-0.015-0.015-0.027 0.008-0.027 0.052zM14.417 21.474c-0.155 0.412-0.213 0.561-0.261 0.663-0.018 0.028-0.029 0.062-0.029 0.098 0 0.013 0.001 0.025 0.004 0.037l-0-0.001c0.015 0.015 0.053-0.046 0.086-0.133s0.091-0.228 0.127-0.311c0.031-0.064 0.054-0.138 0.066-0.216l0.001-0.004c0.004-0.047 0.024-0.089 0.055-0.121l-0 0c0.023-0.022 0.037-0.053 0.037-0.087 0-0.010-0.001-0.019-0.003-0.029l0 0.001c-0.011-0.034-0.048 0.013-0.082 0.105zM10.198 21.815c-0.082 0.269-0.073 0.364 0.016 0.153 0.037-0.076 0.058-0.165 0.059-0.259v-0c-0.008-0.057-0.036-0.017-0.075 0.107zM22.451 21.631c0.067 0.223 0.14 0.412 0.226 0.592l-0.011-0.025c0.050 0.050 0.025-0.063-0.061-0.291-0.075-0.198-0.156-0.341-0.156-0.276zM26.692 21.752c0.011 0.080 0.046 0.265 0.078 0.412 0.064 0.302 0.034 1.001-0.046 1.082-0.030 0.034-0.049 0.078-0.051 0.127v0c0 0.133 0.121-0.155 0.187-0.442s0-0.764-0.138-1.179l-0.050-0.145 0.021 0.145zM10.088 22.443c-0.003 0.048-0.005 0.104-0.005 0.161 0 0.11 0.007 0.218 0.019 0.324l-0.001-0.013c0.021 0.133 0.033 0.046 0.036-0.279 0.006-0.519-0.023-0.634-0.051-0.194zM22.701 22.267c0.018 0.065 0.042 0.121 0.073 0.173l-0.002-0.003c0.040 0.076 0.073 0.105 0.073 0.063 0-0.072-0.141-0.299-0.144-0.233zM14.027 22.509c-0.039 0.105-0.075 0.189-0.116 0.271l0.007-0.016c-0.017 0.022-0.028 0.051-0.028 0.082 0 0.014 0.002 0.028 0.006 0.040l-0-0.001c0.034 0.034 0.231-0.424 0.21-0.485-0.010-0.027-0.045 0.025-0.079 0.121zM22.943 22.837c0 0.081 0.141 0.292 0.141 0.216-0.009-0.064-0.035-0.121-0.072-0.168l0.001 0.001c-0.039-0.052-0.070-0.074-0.069-0.048zM13.706 23.259c-0.143 0.32-0.312 0.595-0.511 0.845l0.006-0.008c-0.068 0.081-0.036 0.058 0.070-0.052 0.184-0.192 0.648-1.014 0.606-1.063-0.070 0.078-0.126 0.171-0.162 0.273l-0.002 0.006zM10.152 23.184c-0.019 0.576 1.143 1.4 1.918 1.36l0.335-0.017-0.339-0.011c-0.776-0.017-1.443-0.466-1.774-1.114l-0.005-0.012c-0.080-0.158-0.147-0.261-0.147-0.229zM23.161 23.309c0.068 0.165 0.162 0.31 0.162 0.25-0.060-0.165-0.133-0.307-0.221-0.439l0.005 0.007c0.005 0.067 0.025 0.129 0.056 0.184l-0.001-0.002zM26.495 23.649c-0.079 0.107-0.158 0.201-0.243 0.289l0.001-0.001c-0.047 0.039-0.084 0.086-0.11 0.141l-0.001 0.003c0 0.063 0.339-0.291 0.436-0.454 0.121-0.211 0.091-0.2-0.076 0.023zM23.411 23.745c0.113 0.199 0.275 0.359 0.47 0.467l0.006 0.003c0.257 0.162 0.635 0.304 0.684 0.256 0.016-0.016-0.065-0.053-0.182-0.082-0.399-0.102-0.863-0.444-0.942-0.692-0.008-0.040-0.035-0.071-0.072-0.085l-0.001-0c-0.025 0-0.008 0.061 0.036 0.133zM25.971 24.149c-0.035 0.057-0.17 0.121-0.532 0.242-0.133 0.046-0.21 0.085-0.17 0.087 0.238-0.044 0.45-0.118 0.645-0.22l-0.012 0.006c0.147-0.075 0.228-0.168 0.148-0.168-0.034 0.005-0.063 0.024-0.080 0.052l-0 0zM12.88 24.29c-0.022 0.030-0.057 0.048-0.097 0.048v0c-0.095 0-0.333 0.096-0.307 0.121s0.469-0.121 0.503-0.176c0.015-0.024 0-0.044-0.022-0.044-0.033 0.004-0.061 0.022-0.079 0.048l-0 0zM24.793 24.517c0.040 0.005 0.086 0.008 0.133 0.008s0.093-0.003 0.139-0.009l-0.005 0.001c0.074-0.011 0.013-0.021-0.133-0.021s-0.207 0.010-0.133 0.021z"></path>
<path fill="#79a13c" style="fill: var(--color5, #79a13c)" d="M17.555 5.856c-0.173 0.078-0.325 0.139-0.412 0.17-0.107 0.035-0.509 0.308-0.509 0.344s0.098-0.028 0.218-0.11c0.534-0.364 1.493-0.526 2.278-0.376 0.187 0.036 0.19 0.035 0.073-0.035-0.177-0.104-1.411-0.099-1.648 0.007zM19.494 6c0.093 0.041 0.207 0.095 0.255 0.121s0.085 0.025 0.085-0.007c-0.033-0.047-0.086-0.077-0.146-0.079h-0c-0.066-0.008-0.124-0.034-0.173-0.072l0.001 0.001c-0.024-0.024-0.058-0.039-0.095-0.039-0.005 0-0.009 0-0.013 0.001l0.001-0c-0.045 0 0 0.038 0.087 0.079zM19.997 6.283c0.043 0.046 0.099 0.080 0.163 0.096l0.002 0c0.028-0.028-0.198-0.215-0.259-0.213-0.027 0 0.016 0.053 0.095 0.121zM16.361 6.606c-0.205 0.227-0.531 0.727-0.498 0.755 0.068-0.056 0.121-0.126 0.156-0.206l0.001-0.004c0.114-0.183 0.23-0.342 0.356-0.491l-0.005 0.006c0.255-0.299 0.242-0.343-0.011-0.058zM20.495 6.748c0.297 0.355 0.613 0.938 0.922 1.697 0.081 0.2 0.149 0.325 0.149 0.278-0.003-0.062-0.019-0.12-0.046-0.172l0.001 0.002c-0.025-0.046-0.076-0.16-0.115-0.255-0.088-0.248-0.18-0.456-0.286-0.656l0.013 0.026c-0.015-0.013-0.102-0.173-0.195-0.356-0.093-0.185-0.195-0.344-0.311-0.491l0.005 0.006c-0.075-0.084-0.151-0.175-0.17-0.201-0.046-0.053-0.095-0.101-0.148-0.144l-0.002-0.002c-0.064-0.053 0.018 0.065 0.183 0.263zM15.629 7.793c-0.064 0.123-0.121 0.267-0.165 0.416l-0.004 0.018c-0 0.039-0.019 0.074-0.048 0.096l-0 0c-0.028 0.025-0.045 0.061-0.045 0.102 0 0.003 0 0.007 0 0.010l-0-0c0 0.075 0.061-0.030 0.219-0.402l0.16-0.376c0.159-0.37 0.069-0.264-0.121 0.137zM15.273 8.641c-0.033 0.052-0.054 0.114-0.060 0.18l-0 0.002c0 0.057 0.024 0.039 0.074-0.056 0.086-0.165 0.075-0.268-0.013-0.121zM21.585 8.917c0.020 0.049 0.042 0.112 0.061 0.176l0.003 0.014c0.042 0.156 0.156 0.308 0.156 0.207 0-0.001 0-0.003 0-0.005 0-0.041-0.017-0.077-0.045-0.103l-0-0c-0.039-0.047-0.066-0.106-0.076-0.17l-0-0.002c-0.011-0.069-0.041-0.129-0.085-0.177l0 0c-0.035-0.022-0.040 0-0.015 0.061zM15.117 9.065c-0.038 0.102-0.074 0.184-0.114 0.264l0.007-0.015c-0.021 0.029-0.033 0.065-0.033 0.104 0 0.011 0.001 0.021 0.003 0.032l-0-0.001c0.015 0.013 0.073-0.087 0.13-0.225 0.042-0.079 0.071-0.172 0.081-0.271l0-0.003c-0.013-0.013-0.046 0.040-0.074 0.121zM21.808 9.489c0.007 0.045 0.021 0.086 0.042 0.123l-0.001-0.002c0.023 0.046 0.076 0.16 0.121 0.255s0.087 0.114 0.087 0.073c0-0.003 0-0.006 0-0.010 0-0.040-0.017-0.076-0.045-0.102l-0-0c-0.030-0.027-0.049-0.066-0.049-0.11 0-0.002 0-0.004 0-0.006v0c0-0.081-0.141-0.313-0.144-0.236zM14.887 9.666c-0.033 0.087-0.079 0.202-0.102 0.256-0.076 0.151-0.141 0.326-0.185 0.51l-0.004 0.017c0 0.058 0.2-0.395 0.314-0.719 0.082-0.233 0.061-0.288-0.023-0.064zM22.062 10.051c0.018 0.074 0.042 0.139 0.072 0.2l-0.003-0.006c0.052 0.121 0.072 0.137 0.073 0.063s-0.138-0.339-0.142-0.257zM18.305 10.315c-0.017 0.051-0.053 0.154-0.081 0.228-0.018 0.033-0.028 0.072-0.028 0.113 0 0.017 0.002 0.034 0.005 0.051l-0-0.002c0.016 0.015 0.055-0.062 0.087-0.171 0.057-0.193 0.19-0.211 0.19-0.027 0 0.088 0.096 0.331 0.121 0.305s-0.121-0.447-0.194-0.522-0.072-0.057-0.098 0.024zM22.325 10.695c0.029 0.092 0.070 0.173 0.123 0.245l-0.002-0.002c0.022-0.030-0.159-0.515-0.195-0.515 0.003 0.097 0.029 0.187 0.073 0.266l-0.002-0.003zM14.498 10.646c-0.030 0.076-0.075 0.177-0.099 0.224-0.024 0.050-0.040 0.108-0.041 0.169v0.001c0 0.047 0.035 0 0.076-0.109s0.096-0.234 0.121-0.284c0.018-0.023 0.028-0.052 0.028-0.083 0-0.014-0.002-0.027-0.006-0.039l0 0.001c-0.015-0.015-0.051 0.038-0.081 0.114zM18.1 10.882c-0.087 0.187-0.074 0.308 0.015 0.138 0.035-0.059 0.057-0.129 0.061-0.204l0-0.001c-0.007-0.035-0.041 0-0.075 0.067zM18.624 10.903c0.010 0.081 0.035 0.155 0.072 0.221l-0.002-0.003c0.093 0.178 0.095 0.079 0-0.135-0.039-0.090-0.072-0.127-0.073-0.084zM22.451 11.006c0.007 0.045 0.021 0.086 0.042 0.123l-0.001-0.002c0.023 0.046 0.076 0.16 0.121 0.255s0.076 0.133 0.079 0.087c0-0.003 0-0.006 0-0.010 0-0.040-0.017-0.076-0.045-0.102l-0-0c-0.030-0.027-0.049-0.066-0.049-0.11 0-0.002 0-0.004 0-0.006v0c0-0.081-0.141-0.313-0.144-0.236zM14.256 11.265c-0.031 0.076-0.079 0.189-0.107 0.248-0.018 0.027-0.028 0.061-0.028 0.097 0 0.013 0.001 0.026 0.004 0.039l-0-0.001c0.015 0.015 0.052-0.046 0.085-0.133 0.037-0.102 0.073-0.183 0.113-0.263l-0.007 0.015c0.017-0.023 0.028-0.051 0.028-0.082 0-0.014-0.002-0.027-0.006-0.040l0 0.001c-0.015-0.015-0.051 0.038-0.082 0.114zM17.854 11.592c-0.027 0.054-0.043 0.119-0.043 0.186 0 0.004 0 0.009 0 0.013v-0.001c0.033 0.033 0.145-0.258 0.121-0.321-0.010-0.030-0.047 0.025-0.082 0.121zM18.864 11.591c0.005 0.073 0.030 0.14 0.070 0.195l-0.001-0.001c0.092 0.121 0.092 0.075 0-0.131-0.052-0.121-0.072-0.137-0.073-0.063zM22.687 11.573c0.020 0.074 0.044 0.138 0.073 0.199l-0.003-0.007c0.050 0.113 0.072 0.133 0.072 0.067-0.006-0.073-0.032-0.138-0.072-0.193l0.001 0.001c-0.039-0.052-0.072-0.081-0.072-0.067zM14.021 11.804c-0.033 0.052-0.054 0.114-0.060 0.18l-0 0.002c0 0.057 0.024 0.039 0.074-0.056 0.086-0.165 0.075-0.268-0.013-0.121zM17.677 12.084c-0.039 0.13-0.087 0.279-0.108 0.332s-0.019 0.081 0.012 0.048c0.062-0.062 0.222-0.56 0.19-0.591-0.049 0.058-0.082 0.13-0.094 0.209l-0 0.002zM19.010 11.981c0.054 0.227 0.127 0.425 0.22 0.612l-0.007-0.017c0.015 0.015 0.027-0.008 0.027-0.052 0-0.001 0-0.002 0-0.003 0-0.042-0.019-0.080-0.048-0.105l-0-0c-0.031-0.027-0.051-0.067-0.051-0.111v-0c0-0.095-0.133-0.398-0.139-0.324zM13.865 12.224c-0.030 0.076-0.075 0.177-0.099 0.224-0.024 0.050-0.040 0.108-0.041 0.169v0.001c0 0.047 0.035 0 0.076-0.109s0.096-0.234 0.121-0.284c0.018-0.023 0.028-0.052 0.028-0.083 0-0.014-0.002-0.027-0.006-0.039l0 0.001c-0.015-0.015-0.051 0.038-0.081 0.114zM22.933 12.17c0.013 0.073 0.038 0.138 0.072 0.197l-0.002-0.003c0.040 0.076 0.072 0.107 0.070 0.067 0-0.087-0.139-0.339-0.142-0.261zM17.465 12.725c-0.027 0.054-0.043 0.119-0.043 0.186 0 0.004 0 0.009 0 0.013v-0.001c0.033 0.033 0.145-0.258 0.121-0.321-0.010-0.030-0.047 0.025-0.082 0.121zM23.080 12.567c0.007 0.045 0.021 0.086 0.042 0.123l-0.001-0.002c0.023 0.046 0.076 0.16 0.121 0.255s0.076 0.133 0.079 0.087c0-0.003 0-0.006 0-0.010 0-0.040-0.017-0.076-0.045-0.102l-0-0c-0.030-0.027-0.049-0.066-0.049-0.11 0-0.002 0-0.004 0-0.006v0c0-0.081-0.141-0.313-0.144-0.236zM19.261 12.7c0.107 0.396 0.154 0.533 0.184 0.533s-0.121-0.527-0.175-0.578c-0.016-0.016-0.021 0-0.010 0.045zM13.625 12.876c-0.031 0.076-0.079 0.189-0.107 0.248-0.018 0.027-0.028 0.061-0.028 0.097 0 0.013 0.001 0.026 0.004 0.039l-0-0.001c0.015 0.015 0.052-0.046 0.085-0.133 0.037-0.102 0.073-0.183 0.113-0.263l-0.007 0.015c0.017-0.023 0.028-0.051 0.028-0.082 0-0.014-0.002-0.027-0.006-0.040l0 0.001c-0.015-0.015-0.051 0.038-0.082 0.114zM23.32 13.137c0.018 0.074 0.042 0.139 0.072 0.2l-0.003-0.006c0.052 0.121 0.072 0.137 0.073 0.063s-0.138-0.339-0.142-0.257zM17.257 13.331c-0.022 0.089-0.044 0.162-0.070 0.233l0.005-0.015c-0.032 0.082-0.024 0.081 0.046-0.013 0.041-0.056 0.066-0.126 0.066-0.202 0-0.006-0-0.011-0-0.017l0 0.001c-0.016-0.104-0.018-0.104-0.046 0.013zM19.498 13.38c0.003 0.081 0.029 0.155 0.071 0.217l-0.001-0.001c0.087 0.121 0.087 0.102 0-0.143-0.056-0.154-0.070-0.168-0.070-0.073zM13.398 13.427c-0.033 0.052-0.054 0.114-0.060 0.18l-0 0.002c0 0.057 0.024 0.039 0.074-0.056 0.086-0.165 0.075-0.268-0.013-0.121zM13.24 13.85c-0.028 0.078-0.069 0.183-0.092 0.242-0.121 0.284-0.152 0.378-0.13 0.401s0.040-0.017 0.057-0.067 0.084-0.221 0.147-0.378c0.045-0.090 0.077-0.195 0.090-0.306l0-0.005c-0.042 0.026-0.070 0.070-0.074 0.121l-0 0.001zM17.117 13.739c0 0.013-0.047 0.144-0.101 0.29-0.114 0.313-0.121 0.347-0.023 0.221 0.040-0.055 0.066-0.122 0.071-0.195l0-0.001c0-0.059 0.021-0.114 0.055-0.157l-0 0.001c0.021-0.022 0.034-0.051 0.034-0.084 0-0.013-0.002-0.026-0.006-0.038l0 0.001c-0.015-0.035-0.028-0.053-0.029-0.040zM23.563 13.768c0.015 0.072 0.041 0.136 0.074 0.195l-0.002-0.003c0.058 0.111 0.073 0.121 0.072 0.042-0.007-0.073-0.033-0.138-0.073-0.193l0.001 0.001c-0.039-0.052-0.072-0.070-0.072-0.042zM19.636 13.844c-0 0.001-0 0.002-0 0.003 0 0.042 0.019 0.080 0.048 0.105l0 0c0.030 0.033 0.049 0.077 0.049 0.126 0 0.005-0 0.010-0.001 0.014l0-0.001c0.005 0.077 0.031 0.147 0.072 0.205l-0.001-0.001c0.095 0.121 0.092 0.092-0.021-0.216-0.104-0.285-0.148-0.354-0.148-0.234zM23.712 14.157c0.007 0.095 0.231 0.516 0.235 0.442 0-0.004 0.001-0.008 0.001-0.012 0-0.038-0.016-0.073-0.042-0.097l-0-0c-0.039-0.047-0.066-0.106-0.076-0.17l-0-0.002c-0.028-0.128-0.121-0.261-0.121-0.16zM16.811 14.623c-0.044 0.138-0.121 0.372-0.181 0.518-0.038 0.089-0.073 0.194-0.097 0.303l-0.002 0.012c0 0.091 0.141-0.191 0.142-0.292 0-0 0-0.001 0-0.001 0-0.054 0.016-0.104 0.044-0.145l-0.001 0.001c0.055-0.059 0.221-0.599 0.194-0.627-0.048 0.065-0.083 0.143-0.1 0.228l-0.001 0.004zM19.873 14.525c-0 0.001-0 0.002-0 0.003 0 0.042 0.019 0.080 0.048 0.105l0 0c0.030 0.022 0.048 0.057 0.048 0.097v0c0 0.093 0.095 0.333 0.121 0.307-0.040-0.212-0.107-0.401-0.198-0.575l0.005 0.011c-0.015-0.015-0.027 0.008-0.027 0.052zM12.896 14.71c-0.026 0.044-0.042 0.096-0.042 0.153 0 0.006 0 0.011 0 0.017l-0-0.001c0.043-0.027 0.074-0.070 0.085-0.12l0-0.001c0.080-0.194 0.041-0.233-0.044-0.044zM23.965 14.786c0.021 0.051 0.058 0.162 0.082 0.248 0.044 0.15 0.138 0.264 0.138 0.165-0.002-0.031-0.018-0.058-0.042-0.075l-0-0c-0.040-0.055-0.067-0.121-0.075-0.193l-0-0.002c-0.009-0.078-0.040-0.147-0.087-0.203l0.001 0.001c-0.038-0.023-0.044 0-0.017 0.059zM12.747 15.069c-0.024 0.058-0.041 0.124-0.049 0.194l-0 0.004c0 0.040-0.019 0.075-0.048 0.097l-0 0c-0.030 0.025-0.049 0.063-0.049 0.105 0 0.001 0 0.002 0 0.003v-0c0 0.042 0.012 0.067 0.027 0.052 0.086-0.163 0.153-0.352 0.191-0.551l0.002-0.013c-0.039 0.023-0.066 0.062-0.071 0.108l-0 0.001zM20.119 15.138c0.046 0.223 0.107 0.419 0.185 0.605l-0.008-0.021c0.047 0.075 0.055-0.058 0.008-0.172-0.121-0.293-0.135-0.336-0.158-0.406s-0.025-0.056-0.028-0.006zM24.189 15.348c-0 0.002-0 0.005-0 0.008 0 0.041 0.018 0.078 0.046 0.104l0 0c0.034 0.035 0.055 0.082 0.055 0.135 0 0 0 0.001 0 0.001v-0c0 0.078 0.012 0.084 0.028 0.024 0-0.007 0.001-0.016 0.001-0.024 0-0.072-0.020-0.138-0.054-0.196l0.001 0.002q-0.074-0.137-0.075-0.055zM16.465 15.599c-0.012 0.021-0.019 0.046-0.019 0.073 0 0.017 0.003 0.034 0.009 0.050l-0-0.001c0.044 0.045 0.082-0.028 0.064-0.121s-0.019-0.085-0.055 0zM12.507 15.669c-0.029 0.054-0.047 0.117-0.051 0.184l-0 0.001c0 0.052 0.030 0.022 0.074-0.076 0.079-0.181 0.061-0.265-0.023-0.109zM24.376 15.81c0.024 0.046 0.073 0.16 0.107 0.251s0.070 0.139 0.081 0.108c0.002-0.010 0.004-0.021 0.004-0.033 0-0.034-0.011-0.064-0.031-0.089l0 0c-0.035-0.055-0.061-0.12-0.077-0.189l-0.001-0.004c-0.004-0.056-0.035-0.104-0.079-0.133l-0.001-0c-0.030 0-0.032 0.031 0 0.085zM16.39 15.852c0 0 0 0.001 0 0.001 0 0.052-0.021 0.1-0.055 0.135l0-0c-0.028 0.026-0.046 0.063-0.046 0.104 0 0.003 0 0.005 0 0.008l-0-0q0 0.082 0.076-0.055c0.033-0.055 0.053-0.122 0.053-0.194 0-0.009-0-0.017-0.001-0.025l0 0.001c-0.016-0.061-0.023-0.053-0.028 0.024zM20.368 15.841c0.005 0.081 0.029 0.155 0.067 0.221l-0.001-0.002c0.044 0.078 0.070 0.093 0.072 0.046-0-0.046-0.016-0.088-0.043-0.122l0 0c-0.031-0.040-0.054-0.088-0.066-0.14l-0-0.003-0.023-0.097v0.097zM12.362 16.084c-0.030 0.076-0.079 0.189-0.107 0.248-0.018 0.027-0.028 0.061-0.028 0.097 0 0.013 0.001 0.026 0.004 0.039l-0-0.001c0.015 0.015 0.052-0.046 0.085-0.133 0.037-0.102 0.073-0.183 0.113-0.263l-0.007 0.015c0.017-0.023 0.028-0.051 0.028-0.082 0-0.014-0.002-0.027-0.006-0.040l0 0.001c-0.015-0.015-0.051 0.038-0.082 0.114zM20.513 16.275c-0.001 0.006-0.001 0.013-0.001 0.020 0 0.043 0.016 0.083 0.041 0.113l-0-0c0.040 0.055 0.067 0.122 0.075 0.194l0 0.002c0.003 0.067 0.032 0.127 0.079 0.169l0 0c0.058 0 0.058-0.028 0-0.133-0.024-0.046-0.079-0.171-0.121-0.278-0.051-0.136-0.075-0.161-0.076-0.087zM16.251 16.24c0 0.013-0.047 0.143-0.099 0.287-0.039 0.083-0.065 0.18-0.074 0.282l-0 0.003c0.025 0.025 0.121-0.212 0.121-0.301 0.005-0.045 0.024-0.084 0.053-0.114l-0 0c0.021-0.022 0.034-0.051 0.034-0.084 0-0.013-0.002-0.026-0.006-0.038l0 0.001c-0.015-0.035-0.028-0.053-0.030-0.040zM24.584 16.309c0.012 0.041 0.028 0.078 0.049 0.111l-0.001-0.002c0.034 0.062 0.067 0.136 0.094 0.212l0.004 0.012c0.028 0.078 0.063 0.121 0.079 0.111s-0.159-0.469-0.201-0.469c0 0-0 0-0 0-0.013 0-0.024 0.011-0.024 0.024 0 0 0 0.001 0 0.001v-0zM12.128 16.684c-0.037 0.1-0.071 0.18-0.11 0.258l0.007-0.015c-0.057 0.109-0.057 0.166 0 0.107s0.201-0.47 0.177-0.494c-0.036 0.039-0.063 0.087-0.075 0.141l-0 0.002zM24.829 16.845c0.059 0.2 0.123 0.369 0.199 0.532l-0.010-0.023c0.105 0.251 0.193 0.417 0.194 0.37-0.003-0.062-0.019-0.12-0.046-0.172l0.001 0.002c-0.025-0.046-0.076-0.16-0.114-0.255-0.121-0.314-0.222-0.509-0.224-0.456zM11.895 17.25c-0.030 0.060-0.050 0.129-0.058 0.202l-0 0.003c0 0.041 0.034 0 0.074-0.091 0.086-0.198 0.073-0.299-0.016-0.114zM11.73 17.687c-0.029 0.074-0.075 0.181-0.102 0.242-0.020 0.037-0.031 0.082-0.031 0.129 0 0.011 0.001 0.023 0.002 0.034l-0-0.001c0.011 0.032 0.065-0.075 0.121-0.242 0.103-0.297 0.109-0.41 0.010-0.161zM25.253 17.917c0.024 0.053 0.057 0.13 0.072 0.17 0.023 0.063 0.028 0.062 0.030 0-0.007-0.065-0.033-0.123-0.072-0.17l0 0c-0.074-0.092-0.075-0.092-0.030 0zM11.437 18.409c-0.041 0.080-0.069 0.172-0.080 0.27l-0 0.003c0.008 0.027 0.062-0.075 0.121-0.225 0.121-0.331 0.098-0.364-0.036-0.048zM25.457 18.438c0.008 0.046 0.023 0.086 0.044 0.123l-0.001-0.002c0.025 0.046 0.113 0.259 0.196 0.473s0.17 0.431 0.193 0.485 0.068 0.168 0.101 0.256 0.072 0.148 0.086 0.133c0.002-0.011 0.004-0.023 0.004-0.036 0-0.037-0.011-0.071-0.030-0.099l0 0.001c-0.028-0.059-0.088-0.207-0.136-0.327-0.155-0.398-0.222-0.556-0.268-0.641-0.024-0.043-0.041-0.093-0.046-0.146l-0-0.002c0-0.068-0.142-0.279-0.144-0.216zM11.264 18.864c-0.032 0.051-0.052 0.112-0.057 0.178l-0 0.001c0 0.048 0.033 0.013 0.074-0.080 0.081-0.187 0.072-0.242-0.017-0.101zM11.021 19.503c-0.035 0.087-0.096 0.216-0.133 0.286-0.036 0.063-0.060 0.137-0.068 0.216l-0 0.002c0 0.050 0.067-0.062 0.147-0.242 0.055-0.108 0.1-0.233 0.129-0.365l0.002-0.011c-0.007-0.022-0.042 0.030-0.078 0.121zM26.089 19.995c0.007 0.045 0.021 0.086 0.042 0.123l-0.001-0.002c0.023 0.046 0.076 0.16 0.121 0.255s0.076 0.133 0.079 0.087c0-0.003 0-0.006 0-0.010 0-0.040-0.017-0.076-0.045-0.102l-0-0c-0.030-0.027-0.049-0.066-0.049-0.11 0-0.002 0-0.004 0-0.006v0c0-0.081-0.141-0.313-0.144-0.236zM14.967 20.191c-0.036 0.067-0.063 0.145-0.078 0.228l-0.001 0.005c-0.005 0.047-0.026 0.089-0.057 0.121l0-0c-0.019 0.013-0.032 0.035-0.032 0.059 0 0.011 0.002 0.021 0.006 0.030l-0-0c0.030 0.030 0.057-0.022 0.182-0.358l0.059-0.158 3.37 0.012c2.939 0.011 3.375 0.022 3.407 0.085 0.019 0.040 0.062 0.136 0.092 0.212s0.067 0.128 0.081 0.114c0.004-0.013 0.007-0.027 0.007-0.042 0-0.030-0.009-0.057-0.025-0.079l0 0-0.114-0.235-0.070-0.145-6.748-0.024-0.079 0.165zM10.635 20.454c-0.032 0.051-0.052 0.112-0.057 0.178l-0 0.001c0 0.048 0.033 0.013 0.074-0.080 0.081-0.187 0.072-0.242-0.017-0.101zM26.331 20.557c0.020 0.074 0.044 0.138 0.073 0.199l-0.003-0.007c0.048 0.113 0.072 0.133 0.072 0.067-0.006-0.072-0.031-0.138-0.071-0.193l0.001 0.001c-0.039-0.052-0.072-0.081-0.072-0.067zM22.018 20.678c-0 0.005-0.001 0.011-0.001 0.016 0 0.046 0.018 0.088 0.047 0.12l-0-0c0.030 0.025 0.048 0.062 0.048 0.103 0 0 0 0.001 0 0.001v-0c0.012 0.085 0.035 0.162 0.069 0.233l-0.002-0.005c0.036 0.084 0.095 0.224 0.127 0.311s0.072 0.148 0.086 0.133c-0.015-0.122-0.049-0.233-0.101-0.334l0.003 0.006c-0.068-0.167-0.158-0.391-0.199-0.498-0.052-0.136-0.076-0.162-0.078-0.087zM14.686 20.919c-0.042 0.131-0.095 0.281-0.114 0.334s-0.019 0.080 0.012 0.048c0.069-0.070 0.221-0.499 0.199-0.565-0.010-0.030-0.053 0.051-0.097 0.182zM10.388 21.089c-0.026 0.044-0.042 0.096-0.042 0.153 0 0.006 0 0.011 0 0.017l-0-0.001c0.043-0.027 0.074-0.070 0.085-0.12l0-0.001c0.080-0.194 0.041-0.233-0.044-0.044zM26.477 20.946c0.067 0.223 0.14 0.412 0.226 0.592l-0.011-0.025c0.050 0.050 0.025-0.063-0.061-0.291-0.075-0.198-0.156-0.341-0.156-0.276zM14.466 21.509c-0.085 0.182-0.075 0.251 0.016 0.121 0.038-0.049 0.062-0.111 0.062-0.179v-0c-0.010-0.046-0.038-0.025-0.076 0.059zM10.151 21.731c-0.029 0.076-0.050 0.163-0.057 0.255l-0 0.003c0 0.052 0.035 0 0.075-0.121 0.033-0.076 0.053-0.164 0.057-0.257l0-0.002c-0.008-0.027-0.042 0.025-0.075 0.121zM26.744 21.719c0.017 0.067 0.052 0.208 0.079 0.315 0.212 0.857 0 1.5-0.699 2.097-0.101 0.086-0.162 0.158-0.137 0.158 0.098 0 0.669-0.618 0.764-0.825 0.207-0.456 0.301-1.199 0.164-1.283-0.032-0.045-0.051-0.1-0.051-0.16 0-0.008 0-0.017 0.001-0.025l-0 0.001c-0.004-0.102-0.031-0.196-0.077-0.28l0.002 0.003-0.074-0.121 0.032 0.121zM22.406 21.712c0.006 0.053 0.022 0.101 0.046 0.144l-0.001-0.002c0.032 0.062 0.066 0.142 0.097 0.224l0.006 0.018c0.012 0.056 0.039 0.104 0.076 0.142l-0-0c-0.047-0.211-0.115-0.397-0.204-0.571l0.006 0.014c-0.015-0.015-0.027 0-0.027 0.032zM14.227 22.159c-0.025 0.050-0.040 0.11-0.040 0.172 0 0.003 0 0.005 0 0.008v-0c0.035 0.035 0.131-0.185 0.115-0.263-0.008-0.045-0.040-0.010-0.075 0.084zM10.028 22.216c-0.016 0.114-0.026 0.245-0.026 0.378 0 0.157 0.013 0.31 0.038 0.46l-0.002-0.016c0.018 0.046 0.034-0.145 0.035-0.424 0-0.544 0-0.565-0.045-0.399zM22.651 22.323c0.033 0.111 0.074 0.208 0.125 0.298l-0.004-0.007c0.064 0.133 0.158 0.336 0.206 0.448 0.027 0.080 0.068 0.149 0.122 0.206l-0-0c-0.033-0.151-0.083-0.284-0.151-0.407l0.004 0.008c-0.196-0.44-0.293-0.619-0.296-0.547zM14.128 22.435c-0.037 0.131-0.082 0.243-0.136 0.35l0.005-0.011c-0.383 0.83-0.522 1.082-0.742 1.345-0.068 0.081-0.034 0.056 0.075-0.058 0.242-0.253 0.877-1.504 0.825-1.632-0.017-0.040-0.024-0.039-0.027 0.006zM10.104 23.221c0 0.11 0.282 0.582 0.35 0.581 0.045 0 0.046-0.010 0-0.038-0.079-0.094-0.147-0.201-0.2-0.317l-0.004-0.009c-0.081-0.16-0.148-0.257-0.148-0.217zM23.142 23.359c0 0.227 0.524 0.848 0.848 0.997l0.278 0.132c0.050 0.023 0.108 0.037 0.169 0.039h0c0.047 0 0-0.036-0.109-0.078-0.473-0.167-0.852-0.502-1.072-0.931l-0.005-0.011c-0.059-0.121-0.109-0.185-0.109-0.149zM10.538 23.938c0.023 0.044 0.056 0.080 0.096 0.106l0.001 0.001c0.058 0.029 0.108 0.065 0.15 0.109l0 0c0.088 0.077 0.188 0.146 0.295 0.202l0.008 0.004 0.274 0.133c0.050 0.024 0.108 0.039 0.169 0.040h0c0.047 0 0-0.035-0.109-0.076-0.281-0.1-0.522-0.244-0.73-0.426l0.002 0.002c-0.154-0.127-0.213-0.159-0.17-0.088zM12.754 24.406c-0.144 0.056-0.242 0.109-0.205 0.121 0.059 0.019 0.492-0.164 0.492-0.208 0-0.013 0-0.022-0.012-0.018l-0.275 0.107zM25.694 24.372c-0.075 0.042-0.093 0.068-0.046 0.068 0.065-0.008 0.123-0.034 0.17-0.071l-0.001 0.001c0.121-0.088 0.038-0.087-0.121 0zM25.382 24.491c-0.093 0.040-0.093 0.042 0.010 0.045 0.005 0.001 0.012 0.001 0.018 0.001 0.045 0 0.087-0.017 0.118-0.046l-0 0c0.035-0.057-0.012-0.057-0.145 0zM11.82 24.574c0.062 0.005 0.134 0.008 0.206 0.008s0.144-0.003 0.215-0.008l-0.009 0.001c0.113-0.010 0.021-0.018-0.206-0.018s-0.319 0.008-0.206 0.018zM24.765 24.574c0.044 0.005 0.094 0.008 0.145 0.008s0.102-0.003 0.151-0.009l-0.006 0.001c0.073-0.011 0-0.019-0.159-0.019s-0.219 0.010-0.132 0.021z"></path>
</symbol>
<symbol id="letter" viewBox="0 0 32 32">
<path fill="#d1d5d5" style="fill: var(--color1, #d1d5d5)" d="M6.822 12.481c0 0.19-0.057 0.344-0.127 0.344h-4.012c-0.070 0-0.127-0.154-0.127-0.344v0c0-0.19 0.057-0.344 0.127-0.344h4.012c0.070-0 0.127 0.154 0.127 0.344v0z"></path>
<path fill="#d1d5d5" style="fill: var(--color1, #d1d5d5)" d="M6.822 14.241c0 0.19-0.075 0.344-0.169 0.344h-5.316c-0.093 0-0.169-0.154-0.169-0.344v0c0-0.19 0.075-0.344 0.169-0.344h5.316c0.093-0 0.169 0.154 0.169 0.344v0z"></path>
<path fill="#d1d5d5" style="fill: var(--color1, #d1d5d5)" d="M6.822 19.519c0-0.19-0.057-0.344-0.127-0.344h-4.012c-0.070 0-0.127 0.154-0.127 0.344v0c0 0.19 0.057 0.343 0.127 0.343h4.012c0.070 0 0.127-0.154 0.127-0.343v0z"></path>
<path fill="#d1d5d5" style="fill: var(--color1, #d1d5d5)" d="M6.822 17.759c0-0.19-0.075-0.344-0.169-0.344h-5.316c-0.093 0-0.169 0.154-0.169 0.344v0c0 0.19 0.075 0.343 0.169 0.343h5.316c0.093 0 0.169-0.154 0.169-0.343v0z"></path>
<path fill="#d1d5d5" style="fill: var(--color1, #d1d5d5)" d="M6.822 16c0 0.19-0.091 0.344-0.203 0.344h-6.415c-0.112 0-0.203-0.154-0.203-0.344v0c0-0.19 0.091-0.344 0.203-0.344h6.415c0.112 0 0.203 0.154 0.203 0.344v0z"></path>
<path fill="#e2e5e7" style="fill: var(--color2, #e2e5e7)" d="M32 23.050c0 0.759-0.616 1.375-1.375 1.375h-21.392c-0.759 0-1.375-0.616-1.375-1.375v-14.101c0-0.759 0.616-1.375 1.375-1.375h21.392c0.759 0 1.375 0.616 1.375 1.375v14.101z"></path>
<path fill="#d1d5d5" style="fill: var(--color1, #d1d5d5)" d="M30.015 19.744c0 0.153-0.169 0.277-0.378 0.277h-7.437c-0.209 0-0.378-0.124-0.378-0.277v-0.011c0-0.153 0.169-0.277 0.378-0.277h7.437c0.209 0 0.378 0.124 0.378 0.277v0.011z"></path>
<path fill="#d1d5d5" style="fill: var(--color1, #d1d5d5)" d="M30.015 20.808c0 0.153-0.169 0.277-0.378 0.277h-7.437c-0.209 0-0.378-0.124-0.378-0.277v-0.010c0-0.153 0.169-0.277 0.378-0.277h7.437c0.209 0 0.378 0.124 0.378 0.277v0.010z"></path>
<path fill="#d1d5d5" style="fill: var(--color1, #d1d5d5)" d="M30.015 21.871c0 0.153-0.169 0.277-0.378 0.277h-7.437c-0.209 0-0.378-0.124-0.378-0.277v-0.010c0-0.153 0.169-0.277 0.378-0.277h7.437c0.209 0 0.378 0.124 0.378 0.277v0.010z"></path>
<path fill="#df584c" style="fill: var(--color3, #df584c)" d="M13.715 7.574l-0.92 0.813h1.461l0.92-0.813z"></path>
<path fill="#e2e5e7" style="fill: var(--color2, #e2e5e7)" d="M12.255 7.574l-0.92 0.813h1.46l0.92-0.813z"></path>
<path fill="#e2e5e7" style="fill: var(--color2, #e2e5e7)" d="M15.176 7.574l-0.92 0.813h1.46l0.92-0.813z"></path>
<path fill="#e2e5e7" style="fill: var(--color2, #e2e5e7)" d="M18.097 7.574l-0.92 0.813h1.46l0.92-0.813z"></path>
<path fill="#df584c" style="fill: var(--color3, #df584c)" d="M7.858 7.574v0.813h0.556l0.92-0.813z"></path>
<path fill="#e2e5e7" style="fill: var(--color2, #e2e5e7)" d="M9.334 7.574l-0.92 0.813h1.461l0.92-0.813z"></path>
<path fill="#e2e5e7" style="fill: var(--color2, #e2e5e7)" d="M26.86 7.574l-0.92 0.813h1.461l0.92-0.813z"></path>
<path fill="#e2e5e7" style="fill: var(--color2, #e2e5e7)" d="M29.781 7.574l-0.92 0.813h1.461l0.92-0.813z"></path>
<path fill="#df584c" style="fill: var(--color3, #df584c)" d="M19.557 7.574l-0.92 0.813h1.461l0.92-0.813z"></path>
<path fill="#df584c" style="fill: var(--color3, #df584c)" d="M31.242 7.574l-0.92 0.813h1.678v-0.813z"></path>
<path fill="#df584c" style="fill: var(--color3, #df584c)" d="M25.4 7.574l-0.92 0.813h1.461l0.92-0.813z"></path>
<path fill="#e2e5e7" style="fill: var(--color2, #e2e5e7)" d="M21.018 7.574l-0.92 0.813h1.461l0.92-0.813z"></path>
<path fill="#2d404e" style="fill: var(--color4, #2d404e)" d="M16.636 7.574l-0.92 0.813h1.461l0.92-0.813z"></path>
<path fill="#2d404e" style="fill: var(--color4, #2d404e)" d="M10.794 7.574l-0.92 0.813h1.461l0.92-0.813z"></path>
<path fill="#2d404e" style="fill: var(--color4, #2d404e)" d="M28.321 7.574l-0.92 0.813h1.46l0.92-0.813z"></path>
<path fill="#2d404e" style="fill: var(--color4, #2d404e)" d="M22.479 7.574l-0.92 0.813h1.46l0.92-0.813z"></path>
<path fill="#e2e5e7" style="fill: var(--color2, #e2e5e7)" d="M23.939 7.574l-0.92 0.813h1.461l0.92-0.813z"></path>
<path fill="#df584c" style="fill: var(--color3, #df584c)" d="M8.67 21.5l-0.813 0.701v-1.112l0.813-0.701z"></path>
<path fill="#e2e5e7" style="fill: var(--color2, #e2e5e7)" d="M8.67 22.612l-0.813 0.701v-1.112l0.813-0.701z"></path>
<path fill="#e2e5e7" style="fill: var(--color2, #e2e5e7)" d="M8.67 20.388l-0.813 0.701v-1.112l0.813-0.701z"></path>
<path fill="#e2e5e7" style="fill: var(--color2, #e2e5e7)" d="M8.67 18.163l-0.813 0.701v-1.112l0.813-0.701z"></path>
<path fill="#e2e5e7" style="fill: var(--color2, #e2e5e7)" d="M8.67 11.489l-0.813 0.701v-1.112l0.813-0.701z"></path>
<path fill="#e2e5e7" style="fill: var(--color2, #e2e5e7)" d="M8.67 9.264l-0.813 0.701v-1.112l0.813-0.701z"></path>
<path fill="#df584c" style="fill: var(--color3, #df584c)" d="M8.67 17.051l-0.813 0.701v-1.112l0.813-0.701z"></path>
<path fill="#df584c" style="fill: var(--color3, #df584c)" d="M8.67 8.152l-0.813 0.701v-1.278h0.813z"></path>
<path fill="#df584c" style="fill: var(--color3, #df584c)" d="M8.67 12.601l-0.813 0.701v-1.112l0.813-0.701z"></path>
<path fill="#e2e5e7" style="fill: var(--color2, #e2e5e7)" d="M8.67 15.938l-0.813 0.701v-1.112l0.813-0.701z"></path>
<path fill="#2d404e" style="fill: var(--color4, #2d404e)" d="M8.67 19.275l-0.813 0.701v-1.112l0.813-0.701z"></path>
<path fill="#2d404e" style="fill: var(--color4, #2d404e)" d="M8.67 24.426l-0.813 0v-1.113l0.813-0.701z"></path>
<path fill="#2d404e" style="fill: var(--color4, #2d404e)" d="M8.67 10.376l-0.813 0.701v-1.112l0.813-0.701z"></path>
<path fill="#2d404e" style="fill: var(--color4, #2d404e)" d="M8.67 14.826l-0.813 0.701v-1.113l0.813-0.701z"></path>
<path fill="#e2e5e7" style="fill: var(--color2, #e2e5e7)" d="M8.67 13.714l-0.813 0.701v-1.112l0.813-0.701z"></path>
<path fill="#df584c" style="fill: var(--color3, #df584c)" d="M13.911 24.425l-0.91-0.813h1.445l0.91 0.813z"></path>
<path fill="#e2e5e7" style="fill: var(--color2, #e2e5e7)" d="M12.466 24.425l-0.91-0.813h1.445l0.91 0.813z"></path>
<path fill="#e2e5e7" style="fill: var(--color2, #e2e5e7)" d="M15.356 24.425l-0.91-0.813h1.445l0.91 0.813z"></path>
<path fill="#e2e5e7" style="fill: var(--color2, #e2e5e7)" d="M18.246 24.425l-0.91-0.813h1.445l0.91 0.813z"></path>
<path fill="#df584c" style="fill: var(--color3, #df584c)" d="M7.858 24.425v-0.813h0.809l0.91 0.813z"></path>
<path fill="#e2e5e7" style="fill: var(--color2, #e2e5e7)" d="M26.915 24.425l-0.91-0.813h1.445l0.91 0.813z"></path>
<path fill="#e2e5e7" style="fill: var(--color2, #e2e5e7)" d="M29.805 24.425l-0.91-0.813h1.445l0.91 0.813z"></path>
<path fill="#df584c" style="fill: var(--color3, #df584c)" d="M19.691 24.425l-0.91-0.813h1.445l0.91 0.813z"></path>
<path fill="#df584c" style="fill: var(--color3, #df584c)" d="M31.25 24.425l-0.91-0.813h1.66v0.813z"></path>
<path fill="#df584c" style="fill: var(--color3, #df584c)" d="M25.47 24.425l-0.91-0.813h1.445l0.91 0.813z"></path>
<path fill="#e2e5e7" style="fill: var(--color2, #e2e5e7)" d="M21.136 24.425l-0.91-0.813h1.445l0.91 0.813z"></path>
<path fill="#2d404e" style="fill: var(--color4, #2d404e)" d="M16.801 24.425l-0.91-0.813h1.445l0.91 0.813z"></path>
<path fill="#2d404e" style="fill: var(--color4, #2d404e)" d="M11.021 24.425l-0.91-0.813h1.445l0.91 0.813z"></path>
<path fill="#2d404e" style="fill: var(--color4, #2d404e)" d="M28.36 24.425l-0.91-0.813h1.445l0.91 0.813z"></path>
<path fill="#2d404e" style="fill: var(--color4, #2d404e)" d="M22.581 24.425l-0.91-0.813h1.445l0.91 0.813z"></path>
<path fill="#e2e5e7" style="fill: var(--color2, #e2e5e7)" d="M24.026 24.425l-0.91-0.813h1.445l0.91 0.813z"></path>
<path fill="#df584c" style="fill: var(--color3, #df584c)" d="M31.188 21.445l0.813 0.678v-1.076l-0.813-0.677z"></path>
<path fill="#e2e5e7" style="fill: var(--color2, #e2e5e7)" d="M31.188 22.52l0.813 0.678v-1.075l-0.813-0.678z"></path>
<path fill="#e2e5e7" style="fill: var(--color2, #e2e5e7)" d="M31.188 20.37l0.813 0.677v-1.075l-0.813-0.677z"></path>
<path fill="#e2e5e7" style="fill: var(--color2, #e2e5e7)" d="M31.188 18.218l0.813 0.678v-1.075l-0.813-0.677z"></path>
<path fill="#e2e5e7" style="fill: var(--color2, #e2e5e7)" d="M31.188 11.765l0.813 0.678v-1.075l-0.813-0.678z"></path>
<path fill="#e2e5e7" style="fill: var(--color2, #e2e5e7)" d="M31.188 9.614l0.813 0.678v-1.075l-0.813-0.678z"></path>
<path fill="#df584c" style="fill: var(--color3, #df584c)" d="M31.188 17.143l0.813 0.677v-1.076l-0.813-0.677z"></path>
<path fill="#df584c" style="fill: var(--color3, #df584c)" d="M31.188 8.539l0.813 0.678v-1.236h-0.813z"></path>
<path fill="#df584c" style="fill: var(--color3, #df584c)" d="M31.188 12.841l0.813 0.677v-1.075l-0.813-0.678z"></path>
<path fill="#e2e5e7" style="fill: var(--color2, #e2e5e7)" d="M31.188 16.067l0.813 0.677v-1.075l-0.813-0.678z"></path>
<path fill="#2d404e" style="fill: var(--color4, #2d404e)" d="M31.188 19.294l0.813 0.677v-1.075l-0.813-0.678z"></path>
<path fill="#2d404e" style="fill: var(--color4, #2d404e)" d="M31.188 24.274l0.813 0v-1.076l-0.813-0.678z"></path>
<path fill="#2d404e" style="fill: var(--color4, #2d404e)" d="M31.188 10.69l0.813 0.678v-1.076l-0.813-0.678z"></path>
<path fill="#2d404e" style="fill: var(--color4, #2d404e)" d="M31.188 14.992l0.813 0.678v-1.076l-0.813-0.677z"></path>
<path fill="#e2e5e7" style="fill: var(--color2, #e2e5e7)" d="M31.188 13.917l0.813 0.677v-1.076l-0.813-0.677z"></path>
<path fill="#d1d5d5" style="fill: var(--color1, #d1d5d5)" d="M29.661 13.691c0 0.392-0.319 0.71-0.712 0.71h-2.521c-0.393 0-0.712-0.318-0.712-0.71v-3.106c0-0.392 0.319-0.71 0.712-0.71h2.521c0.393 0 0.712 0.318 0.712 0.71v3.106z"></path>
</symbol>
</defs>
</svg>
